<svg xmlns="http://www.w3.org/2000/svg" viewBox="0 0 2450.73 1566.02"><defs><style>.cls-1{isolation:isolate;}.cls-2{fill:#cafbff;}.cls-3{fill:#7fc6a6;}.cls-4{fill:#3f9896;}.cls-5{fill:#fff;}.cls-6{fill:#ff424d;}.cls-7{fill:#aac9f8;}.cls-8{fill:#21111d;}.cls-9{fill:#fecc86;}.cls-10{fill:#4cb7d8;}.cls-11{opacity:0.3;}.cls-11,.cls-16,.cls-30{mix-blend-mode:multiply;}.cls-12{fill:#f99247;}.cls-13,.cls-30{opacity:0.5;}.cls-14{fill:#f3fffe;}.cls-15{fill:#3aa1c9;}.cls-17{fill:#258d8c;}.cls-18{fill:#49263e;}.cls-19{fill:#ffb357;}.cls-20{fill:#fe9f73;}.cls-21{fill:#fec786;}.cls-22{fill:#e01b2f;}.cls-23{fill:#dcf4ff;}.cls-24{fill:#fc4963;}.cls-25{fill:#f07162;}.cls-26{fill:#fbfdfc;}.cls-27{fill:#e23e3d;}.cls-28{fill:#fd7583;}.cls-29{fill:#683d46;}.cls-31{fill:#f78c63;}.cls-32{fill:#472a31;}.cls-33{fill:#d7e4f7;}.cls-34{fill:#105e5a;}.cls-35{fill:#fdffdc;}.cls-36{fill:#fc4f68;}.cls-37{fill:#61a3c5;}</style></defs><g class="cls-1"><g id="Layer_2" data-name="Layer 2"><g id="Layer_1-2" data-name="Layer 1"><path class="cls-2" d="M351.12,1557.85S151.24,1433.31,187.53,946.68C214.89,579.73,492.14,89,1063.13,6.87c383.07-55.11,365,237.45,785.67,306.7,536,88.26,804.6,717.12,422.2,1236.09Z"/><path class="cls-3" d="M1652.58,1033.17s168.28,21.3,269.54-167.17C1922.12,866,1669.26,846.6,1652.58,1033.17Z"/><path class="cls-4" d="M1705.18,866.33a2.52,2.52,0,0,1-1.09,4.8h-2.34a99,99,0,0,0-15.79,37h18.13a2.53,2.53,0,1,1,0,5h-18.94c-1.88,14.32-.31,30,6.19,47,0,0,93.23-31.78,98-155.92C1789.38,804.25,1735.78,825.52,1705.18,866.33Z"/><path class="cls-4" d="M1205.18,780.51s-63.85-37.25-48.91-129.28C1156.27,651.23,1248.87,711.55,1205.18,780.51Z"/><path class="cls-3" d="M1222.82,840s-127-9.39-173.38-163.09C1049.44,676.89,1238.32,700.26,1222.82,840Z"/><path class="cls-4" d="M743,1559.26c-4.54-3.63-84.15-144.09-133.24-75.91,0,0-73.64-250-174.56-238.19s-15.45,197.28-15.45,197.28-86.37-35.45-66.37,58.19c0,0-110-20-101.82,59.09Z"/><ellipse class="cls-4" cx="308.98" cy="1337.41" rx="20.46" ry="38.18" transform="translate(-782.39 504.92) rotate(-39.66)"/><path class="cls-4" d="M304.2,1388.25c8,9.61,10.25,20.86,5.1,25.13s-15.78-.06-23.75-9.68-10.25-20.86-5.1-25.13S296.23,1378.64,304.2,1388.25Z"/><path d="M423.78,1460.73a1.08,1.08,0,0,0,.66-.45,1.06,1.06,0,0,0-.29-1.46c-.89-.59-21.82-14.4-40.19-10.41h0a1.06,1.06,0,0,0,.45,2.07h0c17.49-3.79,38.36,10,38.56,10.1A1.08,1.08,0,0,0,423.78,1460.73Z"/><path d="M409.72,1462.3a1,1,0,0,0,.65-.44,1.06,1.06,0,0,0-.3-1.47c-.4-.26-10.07-6.52-27.23-5.46A1.06,1.06,0,1,0,383,1457c16.46-1,25.85,5,25.94,5.11A1,1,0,0,0,409.72,1462.3Z"/><path d="M671.88,1503.14a1,1,0,0,0,.73-.3,1.06,1.06,0,0,0,0-1.49c-.74-.77-18.27-18.69-37.07-18.69a1.06,1.06,0,0,0,0,2.11h0c17.92,0,35.38,17.86,35.55,18A1.07,1.07,0,0,0,671.88,1503.14Z"/><path d="M657.8,1501.7a1,1,0,0,0,.73-.3,1.06,1.06,0,0,0,0-1.5c-.33-.34-8.46-8.51-25.46-11.1a1.05,1.05,0,1,0-.32,2.08c16.26,2.49,24.19,10.42,24.27,10.5A1.07,1.07,0,0,0,657.8,1501.7Z"/><path class="cls-4" d="M1822.24,1558.36c4.56-3.62,84.68-143.78,133.52-75.42,0,0,74.55-249.74,175.42-237.55s14.74,197.34,14.74,197.34,86.5-35.15,66.15,58.42c0,0,110.08-19.6,101.61,59.47Z"/><ellipse class="cls-4" cx="2257.11" cy="1338.1" rx="38.18" ry="20.46" transform="translate(-216.71 2212.88) rotate(-50.14)"/><ellipse class="cls-4" cx="2271" cy="1396.72" rx="22.6" ry="12.11" transform="translate(-256.72 2244.6) rotate(-50.14)"/><path d="M2141.86,1461a1,1,0,0,1-.36-1.91c.88-.58,21.87-14.31,40.22-10.26h0a1.06,1.06,0,0,1-.46,2.07h0c-17.48-3.85-38.39,9.82-38.6,10A1,1,0,0,1,2141.86,1461Z"/><path d="M2155.92,1462.62a1,1,0,0,1-.66-.45,1.05,1.05,0,0,1,.31-1.46c.4-.27,10.09-6.49,27.25-5.36a1.06,1.06,0,0,1-.13,2.11c-16.47-1.09-25.87,5-26,5A1,1,0,0,1,2155.92,1462.62Z"/><path d="M1893.61,1502.5a1.06,1.06,0,0,1-.76-1.79c.74-.76,18.34-18.63,37.14-18.56a1.06,1.06,0,1,1,0,2.11h0c-17.91-.06-35.44,17.74-35.61,17.92A1.09,1.09,0,0,1,1893.61,1502.5Z"/><path d="M1907.69,1501.11a1,1,0,0,1-.73-.3,1.06,1.06,0,0,1,0-1.5c.33-.34,8.48-8.48,25.5-11a1.05,1.05,0,0,1,1.2.89,1.07,1.07,0,0,1-.89,1.2c-16.26,2.42-24.23,10.32-24.31,10.4A1.07,1.07,0,0,1,1907.69,1501.11Z"/><path class="cls-5" d="M2064.87,1020.33c41.55-2.19,183.94-8.2,281.32,6.24,12.63,1.87,20.67-13.27,11.94-22.58-5.11-5.44-13.83-9.88-28.49-10.91,0,0,5.05-90.9-63.62-96.92-78.75-6.91-79.71,82.4-79.71,82.4s-35.79-34-61.61,9.1c0,0-44.61-25.78-67.12,21.84A7.61,7.61,0,0,0,2064.87,1020.33Z"/><path class="cls-5" d="M2026.8,687c-36.6-2.1-122.4-5.76-197,.53-30.86,2.6-57.5-22-56.81-53,.28-12.67,4.83-27.42,16.59-44.12,45.29-64.32,124-2.9,123.26,29.76,0,0,15.92-49.17,64.26-40.56s31.24,80.11,31.24,80.11,15.6-3.3,26.42,4.08C2045.39,671.07,2039.66,687.75,2026.8,687Z"/><path class="cls-5" d="M1816.8,1279.32s-57.36,144.34-9.25,253.52l-1102.86,9.25-101.78-9.25-89.7-55.58V1392.2l24.94-70.32,81.42-42.56Z"/><path class="cls-6" d="M653,1556.14H1844.56a14,14,0,0,0,0-28.1H653c-71.93,0-130.44-54.3-130.44-121S581.1,1286,653,1286H1844.56a14.05,14.05,0,0,0,0-28.1H653c-87.42,0-158.54,66.9-158.54,149.13S565.61,1556.14,653,1556.14Z"/><polygon class="cls-6" points="519.02 1442.27 534.01 1431.77 535.75 1452.93 519.02 1442.27"/><path class="cls-7" d="M1800.61,1410.13H1215.87a3.13,3.13,0,0,1,0-6.25h584.74a3.13,3.13,0,1,1,0,6.25Z"/><path class="cls-7" d="M1133.53,1410.13H565.44a3.13,3.13,0,0,1,0-6.25h568.09a3.13,3.13,0,0,1,0,6.25Z"/><path class="cls-7" d="M872.18,1466.07H580.71a3.12,3.12,0,1,1,0-6.24H872.18a3.12,3.12,0,1,1,0,6.24Z"/><path class="cls-7" d="M1800.61,1466.07H914.94a3.12,3.12,0,0,1,0-6.24h885.67a3.12,3.12,0,1,1,0,6.24Z"/><path class="cls-8" d="M1844.56,1559.26H653c-89.14,0-161.67-68.3-161.67-152.25S563.89,1254.75,653,1254.75H1844.56a17.18,17.18,0,1,1,0,34.35,3.13,3.13,0,0,1,0-6.25,10.93,10.93,0,1,0,0-21.85H653c-85.7,0-155.42,65.49-155.42,146S567.33,1553,653,1553H1844.56a10.93,10.93,0,1,0,0-21.86,3.13,3.13,0,0,1,0-6.25,17.18,17.18,0,1,1,0,34.35Z"/><path class="cls-4" d="M1128,1354.15s37.53,93.49,15.9,162.31l-30.5-47.12s-20.81,25-33.58,47.12c0,0-23.28-153.7-68.42-162.31Z"/><path class="cls-7" d="M1800.61,1354.15H580.71a3.12,3.12,0,1,1,0-6.24h1219.9a3.12,3.12,0,1,1,0,6.24Z"/><path class="cls-9" d="M525.76,763.74c0-110.36-89.46-199.82-199.82-199.82S126.11,653.38,126.11,763.74a199.21,199.21,0,0,0,57.67,140.43h0s60.47,64.67,80.89,135.16c0,0,34.91,11.86,61.27,12.51,26.35-.65,61.26-12.51,61.26-12.51,20.42-70.49,80.9-135.16,80.9-135.16h0A199.21,199.21,0,0,0,525.76,763.74Z"/><path class="cls-10" d="M259.27,1023.4v51.72a59.08,59.08,0,0,0,35.8,54.3,31,31,0,0,0,61.63,0,59.08,59.08,0,0,0,35.8-54.3V1023.4Z"/><g class="cls-11"><path class="cls-9" d="M525.76,763.74a198.89,198.89,0,0,0-33.35-110.56C434,797.18,340.75,894,206.49,931.6c16.91,22.18,39.32,55.58,52.88,91.8H392.5c24-64,75.6-119.23,75.6-119.23h0A199.21,199.21,0,0,0,525.76,763.74Z"/></g><path class="cls-12" d="M358.59,1024.18l-5.72-1.57c.18-.68,18.82-69.2,31.74-139.38,22.43-121.77,9.53-147.6-.15-152.16-9.9-4.66-17.68-3.82-23.14,2.48-.4.46-.78,1-1.14,1.45a37,37,0,0,1,18.15,26c2.21,14.13-4.11,28.25-14.1,31.46-2.42.77-7.07,1.17-11.09-4.92-6.39-9.66-8.39-33.82-1.24-49.93-6.86-2.8-15.23-4.3-24.81-4.3h-5.77c-9.57,0-17.94,1.5-24.81,4.3,7.16,16.11,5.16,40.27-1.23,49.93-4,6.09-8.67,5.7-11.1,4.92-10-3.21-16.31-17.33-14.09-31.46a37,37,0,0,1,18.15-26c-.36-.5-.75-1-1.14-1.44-5.46-6.31-13.25-7.15-23.14-2.49-9.69,4.56-22.58,30.39-.16,152.16,12.93,70.18,31.56,138.7,31.75,139.38l-5.72,1.57c-.19-.69-18.88-69.42-31.85-139.85-17.91-97.21-16.78-149.1,3.45-158.62,15.7-7.39,25.06-1.92,30.15,4a26.43,26.43,0,0,1,2,2.63c7-3,16-4.91,27.73-4.91h5.77c11.7,0,20.75,1.94,27.74,4.91a25,25,0,0,1,2-2.63c5.09-5.89,14.45-11.36,30.14-4,20.23,9.52,21.37,61.41,3.46,158.62C377.47,954.76,358.77,1023.49,358.59,1024.18Zm-67.4-283.93c-8.43,4.92-13.77,12.31-15.24,21.68-1.94,12.34,3.63,22.84,10.05,24.9.6.19,2.19.71,4.33-2.54C295.81,776,297.25,754.17,291.19,740.25Zm66,0c-6.06,13.92-4.62,35.77.85,44,2.15,3.25,3.74,2.73,4.34,2.54,6.41-2.06,12-12.56,10.05-24.9C371,752.56,365.66,745.17,357.23,740.25Z"/><path class="cls-8" d="M258.31,1024.79c-1.6-4.55-2.31-6.22-3.89-9.88l-.86-2c-24.95-58.27-70.41-107.25-70.87-107.74l-.14-.15a200.08,200.08,0,0,1-57.92-141.29c0-111,90.3-201.31,201.31-201.31a200.87,200.87,0,0,1,168.53,91.18L492,655.23a197.92,197.92,0,0,0-166-89.83c-109.37,0-198.35,89-198.35,198.34a197.11,197.11,0,0,0,57.25,139.38l1.93,2-.14,0c8.7,9.73,47.33,54.49,69.66,106.64l.85,2c1.61,3.72,2.34,5.42,4,10.07Z"/><path class="cls-8" d="M186.38,671.49l-2.84-.83c.14-.49,14.91-49.68,64.62-68.17l1,2.78C200.92,623.23,186.52,671,186.38,671.49Z"/><path class="cls-8" d="M195.54,689.27l-2.84-.82c.14-.5,14.91-49.68,64.63-68.17l1,2.77C210.08,641,195.68,688.79,195.54,689.27Z"/><path class="cls-8" d="M333.15,1135.67H318.63a60.9,60.9,0,0,1-60.84-60.83v-52.93H392.5v3H260.76v50a57.94,57.94,0,0,0,57.87,57.87h14.52a57.51,57.51,0,0,0,40.58-16.62l2.08,2.12A60.49,60.49,0,0,1,333.15,1135.67Z"/><path class="cls-8" d="M326.75,1158.24c-28.87,0-33-28-33.08-28.29l2.94-.41c.15,1.08,4,26.35,31.1,25.73l.07,3Z"/><path class="cls-8" d="M463,875.61l-1.76-2.38c26.37-19.57,30.52-52.24,30.56-52.57l2.95.35C494.66,821.35,490.39,855.26,463,875.61Z"/><path class="cls-8" d="M457.13,861.37,455.36,859c19.22-14.26,22.26-38.09,22.29-38.33l2.94.35C480.47,822,477.4,846.33,457.13,861.37Z"/><path class="cls-8" d="M253.16,1050l0-3c1.13,0,113.47-1.47,149-14.73l1,2.78C367.14,1048.56,257.79,1050,253.16,1050Z"/><path class="cls-8" d="M253.17,1075.07l-.06-3c1.23,0,123.14-2.44,145.93-14.64l1.4,2.61C377,1072.61,258.21,1075,253.17,1075.07Z"/><path class="cls-8" d="M259.29,1100.76l0-3c1.1,0,110.49-1.16,139.8-16.3l1.36,2.63C370.49,1099.59,263.81,1100.72,259.29,1100.76Z"/><path class="cls-9" d="M75.17,732.29l-.39,0-70.71-6a4.45,4.45,0,0,1,.75-8.86l70.72,6a4.45,4.45,0,0,1-.37,8.88Z"/><path class="cls-9" d="M111.74,619.63a4.42,4.42,0,0,1-2.51-.78L50.66,578.78a4.45,4.45,0,1,1,5-7.34l58.57,40.07a4.45,4.45,0,0,1-2.52,8.12Z"/><path class="cls-9" d="M217.6,538.82a4.46,4.46,0,0,1-4.12-2.77l-26.71-65.76A4.45,4.45,0,1,1,195,467l26.71,65.75a4.46,4.46,0,0,1-4.12,6.12Z"/><path class="cls-9" d="M573.15,745.1a4.44,4.44,0,0,1-.29-8.88l70.82-4.68a4.44,4.44,0,1,1,.58,8.87l-70.81,4.68Z"/><path class="cls-9" d="M538.71,631.77a4.44,4.44,0,0,1-2.44-8.16l59.32-39a4.44,4.44,0,1,1,4.88,7.43l-59.32,39A4.46,4.46,0,0,1,538.71,631.77Z"/><path class="cls-9" d="M448.1,538.56a4.53,4.53,0,0,1-1.75-.36,4.45,4.45,0,0,1-2.33-5.84l28-65.23a4.44,4.44,0,1,1,8.17,3.5l-27.95,65.23A4.44,4.44,0,0,1,448.1,538.56Z"/><path class="cls-9" d="M334.11,504H334a4.43,4.43,0,0,1-4.38-4.51l1.09-71a4.46,4.46,0,0,1,4.45-4.38h.07a4.45,4.45,0,0,1,4.38,4.51l-1.1,71A4.44,4.44,0,0,1,334.11,504Z"/><g class="cls-13"><ellipse class="cls-14" cx="418.9" cy="640.86" rx="23.38" ry="48.96" transform="translate(-346.71 645.84) rotate(-57.2)"/></g><path class="cls-5" d="M750.54,1000.85s53.24,133.95,8.59,235.28l1023.54,8.58,94.45-8.58,83.25-51.59v-78.93l-23.14-65.26-75.57-39.5Z"/><g class="cls-11"><path class="cls-10" d="M1325.21,1231.67l493.11,9.8,58.8-5.34,83.25-51.59v-78.93l-23.14-65.26-75.57-39.5H1316.91l8.3,6.17S1376.37,1127.33,1325.21,1231.67Z"/></g><path class="cls-15" d="M1830.61,1257.75H724.78a13,13,0,0,1,0-26.08H1830.61c66.75,0,121.06-50.39,121.06-112.33S1897.36,1007,1830.61,1007H724.78a13,13,0,0,1,0-26.08H1830.61c81.13,0,147.14,62.09,147.14,138.4S1911.74,1257.75,1830.61,1257.75Z"/><g class="cls-16"><path class="cls-7" d="M1308.25,1122.47H765.57a3.12,3.12,0,1,1,0-6.24h542.68a3.12,3.12,0,1,1,0,6.24Z"/></g><g class="cls-16"><path class="cls-7" d="M1911.9,1122.47H1384.67a3.12,3.12,0,0,1,0-6.24H1911.9a3.12,3.12,0,1,1,0,6.24Z"/></g><g class="cls-16"><path class="cls-7" d="M1897.73,1174.39H1627.22a3.13,3.13,0,0,1,0-6.25h270.51a3.13,3.13,0,0,1,0,6.25Z"/></g><g class="cls-16"><path class="cls-7" d="M1897.8,1070.52H790.85a3.13,3.13,0,0,1,0-6.25H1897.8a3.13,3.13,0,0,1,0,6.25Z"/></g><path class="cls-8" d="M1830.61,1260.88H724.78a16.17,16.17,0,0,1,0-32.33,3.12,3.12,0,0,1,0,6.24,9.92,9.92,0,1,0,0,19.84H1830.61c79.41,0,144-60.69,144-135.29s-64.61-135.28-144-135.28H724.78a9.92,9.92,0,1,0,0,19.84,3.12,3.12,0,0,1,0,6.24,16.16,16.16,0,0,1,0-32.32H1830.61c82.85,0,150.26,63.49,150.26,141.52S1913.46,1260.88,1830.61,1260.88Z"/><g class="cls-16"><path class="cls-7" d="M1587.53,1174.39h-822a3.13,3.13,0,1,1,0-6.25h822a3.13,3.13,0,1,1,0,6.25Z"/></g><g class="cls-16"><g class="cls-13"><path class="cls-17" d="M711.74,994a13,13,0,0,0,13,13h577.51a13,13,0,1,0,0-26.08H724.78A13,13,0,0,0,711.74,994Z"/></g><path class="cls-17" d="M1315.34,1244.71a13,13,0,0,0-13-13H724.78a13,13,0,0,0,0,26.08h577.51A13,13,0,0,0,1315.34,1244.71Z"/></g><path class="cls-18" d="M1547.77,1070.52s32.55,81.07,13.79,140.76L1535,1177.62a303,303,0,0,0-29,33.66s-20.19-133.3-59.33-140.76Z"/><path class="cls-5" d="M1716.26,772.65s-43.11,108.47-7,190.51l-828.79,7-76.48-7L736.63,921.4V857.48l18.74-52.84,61.19-32Z"/><g class="cls-11"><path class="cls-10" d="M1250.93,959.56l-399.28,7.93L804,963.16,736.63,921.4V857.48l18.74-52.84,61.19-32h441.1l-6.73,5S1209.51,875.07,1250.93,959.56Z"/></g><path class="cls-19" d="M841.7,980.68h895.42a10.56,10.56,0,1,0,0-21.12H841.7c-54.05,0-98-40.81-98-91s44-91,98-91h895.42a10.56,10.56,0,1,0,0-21.12H841.7c-65.69,0-119.14,50.28-119.14,112.07S776,980.68,841.7,980.68Z"/><g class="cls-16"><path class="cls-7" d="M1264.67,871.13h439.42a2.53,2.53,0,1,0,0-5H1264.67a2.53,2.53,0,1,0,0,5Z"/></g><g class="cls-16"><path class="cls-7" d="M815.88,871.13H1203a2.54,2.54,0,0,0,0-5H815.88a2.54,2.54,0,0,0,0,5Z"/></g><g class="cls-16"><path class="cls-7" d="M787.36,913.17h219a2.53,2.53,0,1,0,0-5h-219a2.53,2.53,0,1,0,0,5Z"/></g><g class="cls-16"><path class="cls-7" d="M787.36,829.07h916.73a2.53,2.53,0,0,0,0-5.06H787.36a2.53,2.53,0,1,0,0,5.06Z"/></g><g class="cls-16"><path class="cls-7" d="M1038.53,913.17h665.56a2.53,2.53,0,1,0,0-5H1038.53a2.53,2.53,0,1,0,0,5Z"/></g><g class="cls-13"><path class="cls-12" d="M1747.68,767.09a10.56,10.56,0,0,1-10.56,10.56H1269.49a10.56,10.56,0,1,1,0-21.12h467.63A10.56,10.56,0,0,1,1747.68,767.09Z"/></g><path class="cls-12" d="M1258.93,970.12a10.56,10.56,0,0,1,10.56-10.56h467.63a10.56,10.56,0,1,1,0,21.12H1269.49A10.56,10.56,0,0,1,1258.93,970.12Z"/><path class="cls-6" d="M971.29,829.07s-31.35,47.45-13.83,103.18l24.69-38.15s16.85,20.22,27.19,38.15c0,0,19.82-96.22,56.36-103.18Z"/><path class="cls-8" d="M841.7,983.21h895.42a13.09,13.09,0,1,0,0-26.18,2.53,2.53,0,1,0,0,5.05,8,8,0,0,1,0,16.07H841.7c-64.3,0-116.61-49.14-116.61-109.55S777.4,759.06,841.7,759.06h895.42a8,8,0,1,1,0,16.06,2.53,2.53,0,0,0,0,5.06,13.09,13.09,0,1,0,0-26.18H841.7C774.61,754,720,805.41,720,868.6S774.61,983.21,841.7,983.21Z"/><path class="cls-20" d="M2157.06,1554.28l-67.82-.23c-7.88.23-14.23-10.77-15.47-14.12l-18.65-31.75,62.4-11.72Z"/><path class="cls-6" d="M2191.75,1549.66H2073.44v-23.8s8.61-11.43,21.71-5.6c0,0,19.4,14,36.87-2.74l43.81,18.81S2191.75,1541.57,2191.75,1549.66Z"/><path class="cls-21" d="M2075.21,1549.66h121.68a0,0,0,0,1,0,0v7.09a0,0,0,0,1,0,0H2075.21a1.77,1.77,0,0,1-1.77-1.77v-3.55A1.77,1.77,0,0,1,2075.21,1549.66Z" transform="translate(4270.34 3106.41) rotate(180)"/><path class="cls-21" d="M1767.12,1524.17s24.06,39.36,91.68,33.3S1988.5,1447,1988.5,1447l82.77,93.87s45.92-14.51,61.06-38.29c0,0-88.82-147.42-131.21-147.93s-211.54,132.73-213.77,134.24S1767.12,1524.17,1767.12,1524.17Z"/><path class="cls-15" d="M1858.8,1358.13c1.69-.67,79.74,1.69,79.74,1.69l-2.69,32.63-41.38,6.06Z"/><path class="cls-15" d="M1699.3,1401.69s21.28,72.43,63.92,130.46c0,0,23.68-15.51,59.63-45.81S1699.3,1401.69,1699.3,1401.69Z"/><path class="cls-8" d="M1845.13,1545.88c.91,0,1.86,0,2.88-.1a.85.85,0,0,0-.13-1.7c-11.12.81-14.63-3.39-14.67-3.43a.85.85,0,1,0-1.32,1.07C1832,1541.9,1835.36,1545.88,1845.13,1545.88Z"/><path class="cls-8" d="M1846.42,1539.76a33.62,33.62,0,0,0,7.29-.87.86.86,0,0,0,.65-1,.85.85,0,0,0-1-.65c-10.78,2.41-15-1.21-15-1.24a.85.85,0,0,0-1.2,0,.86.86,0,0,0,.05,1.2C1837.32,1537.36,1840,1539.76,1846.42,1539.76Z"/><path class="cls-8" d="M1894.89,1359.46a.85.85,0,0,0,0-1.7l-26.49-.48a.85.85,0,0,0,0,1.7l26.49.48Z"/><path class="cls-8" d="M1911.47,1535.73a.89.89,0,0,0,.53-.18c50.84-40.63,88.14-105.69,88.51-106.34a.85.85,0,0,0-1.48-.85c-.37.65-37.52,65.44-88.1,105.86a.85.85,0,0,0-.13,1.19A.86.86,0,0,0,1911.47,1535.73Z"/><path class="cls-8" d="M2071,1541.81l.54-.18a244.85,244.85,0,0,0,36.34-16.45.85.85,0,0,0-.83-1.49,245.9,245.9,0,0,1-35.52,16.14l-81.75-92.72a109,109,0,0,0,10.56-8.36.85.85,0,1,0-1.14-1.26,103.79,103.79,0,0,1-11.17,8.75l-.82.54Z"/><path class="cls-20" d="M1935.75,1367.94l-7.3,4-2.53,23.53,2.53,5.21s5.21.51,5.38-.67S1935.75,1367.94,1935.75,1367.94Z"/><path class="cls-22" d="M1978.63,1294.84l1.67-.37,34.94,6.23s-1.91.44-2,.44S1978.63,1294.84,1978.63,1294.84Z"/><polygon class="cls-23" points="1994.44 1413.02 1956.83 1398.33 1978.63 1294.84 2015.66 1301.14 1994.44 1413.02"/><polygon points="1977.38 1302.4 1976.74 1302.27 1978.36 1294.57 1980.3 1294.14 1980.36 1294.15 2015.07 1300.29 2014.96 1300.92 1980.31 1294.8 1978.91 1295.11 1977.38 1302.4"/><polygon class="cls-24" points="1994.44 1413.02 1919.81 1413.02 1941.02 1301.14 2015.66 1301.14 1994.44 1413.02"/><path class="cls-20" d="M1978.58,1402.91a4.77,4.77,0,0,0-4.43-4.72l-15-1a1.1,1.1,0,0,1-1-.81h0a1.1,1.1,0,0,1,1-1.39l22.21-1.47a3.67,3.67,0,0,0,3.42-4.79h0a5.9,5.9,0,0,0-5.83-4.17l-22.64,1.5a1.09,1.09,0,0,1-1.14-.81l-.1-.36a1.11,1.11,0,0,1,.78-1.36l24.28-6.52a4.76,4.76,0,0,0,3.43-5.48,4.56,4.56,0,0,0-5.61-3.35l-24.46,6.57a1.1,1.1,0,0,1-1.35-.78l-.31-1.14a1.11,1.11,0,0,1,.65-1.31l21.7-9a4.75,4.75,0,0,0,2.69-5.88,4.54,4.54,0,0,0-6-2.59s-33.39,11.81-38.83,13.25l10-4.69c7.39,6.92-1-2.53-7-3.76-6.73-1.35-24.53,15.12-24.53,15.12-.81,1.42,0,4.59,1.31,7,5,26.37,6,30.39,7.94,37.38l27.43-8.37a68.16,68.16,0,0,1,24.46-2.82l2.07.14A4.54,4.54,0,0,0,1978.58,1402.91Z"/><polygon class="cls-24" points="1930.34 1357.45 1928.47 1368.58 1944.41 1363.26 1944.27 1356.25 1930.34 1357.45"/><polygon class="cls-22" points="1941.15 1301.18 1942.48 1300.7 2015.24 1300.7 2015.66 1301.14 1941.15 1301.18"/><rect x="1901.38" y="1333.75" width="66.99" height="0.65" transform="translate(268.43 2991.31) rotate(-79.43)"/><polygon points="1994.71 1413.34 1953.7 1412.95 1953.71 1412.3 1994.18 1412.69 2005.08 1355.2 2005.71 1355.32 1994.71 1413.34"/><rect x="2002.05" y="1307.18" width="0.65" height="7.42" transform="translate(-389.36 1397.81) rotate(-35.29)"/><rect x="1940.62" y="1344.86" width="0.65" height="7.42" transform="matrix(0.82, -0.58, 0.58, 0.82, -422.42, 1369.32)"/><rect x="1945.55" y="1347.33" width="0.65" height="7.42" transform="translate(-422.93 1372.64) rotate(-35.3)"/><rect x="2001.42" y="1311.86" width="0.65" height="7.42" transform="translate(-392.18 1398.33) rotate(-35.29)"/><path class="cls-15" d="M1745.73,1262.92s-26.55,2.69-43,9.08-32,27.93-31,49.12,47.25,143.33,81.5,164.19,59.81,6,59.81,6l120.78-61.9s-10.09-45.42-24.56-58.21l-26.58,8.44-62.24-93.89S1800.54,1250.14,1745.73,1262.92Z"/><path class="cls-8" d="M1758.07,1429.64a.78.78,0,0,0,.33-.07c1.13-.46,112.57-46.45,150.6-57.35,1.82,2.08,10.71,13,18.19,36.34a.85.85,0,0,0,1.62-.52c-8.48-26.43-18.51-36.94-18.93-37.38l-.35-.36-.49.13c-37.63,10.66-150.16,57.1-151.29,57.57a.85.85,0,0,0,.32,1.64Z"/><path class="cls-8" d="M1785.32,1418.53a.86.86,0,0,0,.71-1.33c-.35-.51-34.72-51.57-53.66-84.72a.85.85,0,0,0-1.48.84c19,33.21,53.38,84.32,53.72,84.83A.86.86,0,0,0,1785.32,1418.53Z"/><path class="cls-8" d="M1866.57,1386.76a.87.87,0,0,0,.53-.18.86.86,0,0,0,.14-1.2c-.43-.55-43.45-55.22-55.65-75.13a.85.85,0,0,0-1.45.89c12.24,20,55.33,74.75,55.76,75.3A.86.86,0,0,0,1866.57,1386.76Z"/><path class="cls-8" d="M1687,1337.71a.85.85,0,0,0,.82-1.07c-2.87-10.67.55-15,.59-15.06a.86.86,0,0,0-1.31-1.1c-.16.2-4.06,5-.92,16.6A.84.84,0,0,0,1687,1337.71Z"/><path class="cls-8" d="M1694.85,1341.89a.83.83,0,0,0,.34-.07.85.85,0,0,0,.44-1.12c-4.41-10.13-1.65-14.94-1.63-15a.85.85,0,0,0-1.45-.89c-.13.22-3.29,5.51,1.52,16.56A.85.85,0,0,0,1694.85,1341.89Z"/><path class="cls-8" d="M1767.61,1301.49c.8,0,1.61,0,2.43,0a.85.85,0,0,0,0-1.7c-35.35,1.17-44.53-23.85-44.6-24.1a.88.88,0,0,0-1.05-.59.85.85,0,0,0-.6,1C1723.8,1276.34,1733,1301.49,1767.61,1301.49Z"/><path class="cls-20" d="M1769.63,1286.64c14.89-.08,23.56-9.72,28.59-20-11.85-5.72-29-9.17-52.49-3.68,0,0-7.77.79-17.51,2.52C1732.82,1272.41,1745.27,1286.77,1769.63,1286.64Z"/><path class="cls-8" d="M1866.57,1369.84a.86.86,0,0,0,.84-.72l1.88-11.18-.18-.28-47.93-72.31c-.38-.67-5.43-9.3-17.09-16.51-10.93-6.76-30-13.42-58.55-6.75a.85.85,0,0,0,.38,1.66c28-6.53,46.54-.07,57.19,6.49,11.54,7.11,16.55,15.89,16.6,16l0,.06,47.76,72-1.77,10.52a.85.85,0,0,0,.7,1Z"/><path class="cls-8" d="M1761.91,1421.31h.12l23.14-3.18a.85.85,0,1,0-.23-1.68l-23.15,3.17a.85.85,0,0,0,.12,1.7Z"/><path class="cls-20" d="M1787.35,1196.4v37.08s.49,11.92-9.94,13.41l1.95,15.9a12.41,12.41,0,0,1-8.49,13.37,32.48,32.48,0,0,1-9.84,1.52c-11.92,0-18.38-8.94-19.37-13.41s2-25.82,2-25.82l-.36-10.5,1.36-40.66Z"/><path class="cls-25" d="M1753.24,1236.76s.7,20,25.61,21.86l-1.44-11.73S1761.26,1250.14,1753.24,1236.76Z"/><path class="cls-18" d="M1789.08,1227.87s3.24,23.88-12.61,24.73c-22.69,1.21-24.89-11.74-26.24-22.33l-.22-21.87.73-6.34h0a11.27,11.27,0,0,1,2.79,6.5c.47,5.24,1.64,19.37,2.94,20C1758.32,1229.44,1785.55,1225.57,1789.08,1227.87Z"/><path class="cls-18" d="M1758.57,1215.85a.5.5,0,0,1-.36-.84c.07-.07,6.9-7.06,13.14-2a.49.49,0,1,1-.62.77c-5.53-4.45-11.55,1.68-11.8,2A.51.51,0,0,1,1758.57,1215.85Z"/><path class="cls-18" d="M1741.46,1210.64l10.71,2.23,1.94,2s-.93-18-2.95-21.5S1741.46,1210.64,1741.46,1210.64Z"/><path class="cls-18" d="M1779,1212.87a.5.5,0,0,1-.32-.87c.2-.17,4.94-4.23,7.93-1.66a.49.49,0,0,1,0,.7.5.5,0,0,1-.7.06c-2.34-2-6.59,1.61-6.63,1.65A.52.52,0,0,1,1779,1212.87Z"/><circle cx="1767.12" cy="1217.86" r="1.49"/><circle cx="1782.96" cy="1216.37" r="1.49"/><circle class="cls-20" cx="1747.37" cy="1217.34" r="8.94"/><path class="cls-25" d="M1745.8,1222.3a3.72,3.72,0,0,1-3.5-2.79,3.49,3.49,0,0,1,1.41-4.08,4.2,4.2,0,0,1,4.69.16,4,4,0,0,0-1.8-2.2,5.67,5.67,0,0,0-4-.26.23.23,0,0,1-.31-.15.25.25,0,0,1,.15-.32,6,6,0,0,1,4.36.29,4.86,4.86,0,0,1,2.29,3.26l.21.87-.63-.63a3.89,3.89,0,0,0-4.73-.6,3,3,0,0,0-1.19,3.52,3.2,3.2,0,0,0,3,2.44h0a.24.24,0,0,1,.25.24.25.25,0,0,1-.24.25Z"/><path class="cls-25" d="M1773.87,1227.91a.27.27,0,0,1-.24-.17.26.26,0,0,1,.16-.32l5-1.64-1.57-11.72a.25.25,0,1,1,.49-.06l1.63,12.12-5.37,1.77Z"/><path class="cls-26" d="M1770,1232.74c.16,0,9.84-.25,9.84-.25s-1.22,4-4.82,4.09S1770,1232.74,1770,1232.74Z"/><path class="cls-18" d="M1741.46,1210.64s-3-17.41,2.31-23.89,35.91-17.85,39.62-14.6,0,7.18,0,7.18,12.28-3.94,15.06,7-23.63,15.53-39.39,10.43A35.16,35.16,0,0,0,1741.46,1210.64Z"/><path class="cls-8" d="M1790.18,1497.3a55.94,55.94,0,0,0,5.89-.3c10.73-1.1,17.14-4.74,17.41-4.9a.85.85,0,1,0-.86-1.47c-.06,0-6.42,3.64-16.81,4.69-9.59,1-24.68-.11-42.13-10.74-21.9-13.34-49.31-69.55-66.12-113.63a.85.85,0,1,0-1.59.61c16.91,44.33,44.55,100.91,66.82,114.47C1767.45,1495,1780.51,1497.3,1790.18,1497.3Z"/><path class="cls-27" d="M1369.58,453.44a11.41,11.41,0,0,1,10.86-9.43,4.43,4.43,0,0,1,1.62.24c.58.23,1.07.65,1.63.93,1.37.67,3.2.49,4.21,1.64s.48,3.16.8,4.78a21.78,21.78,0,0,0,1.49,3.45,8.89,8.89,0,0,1-.73,7.13,26.09,26.09,0,0,1-4.53,5.8,13.83,13.83,0,0,1-4.7,3.72c-3.67,1.46-6.39-1.26-7.56-4.47C1371.11,462.94,1368.89,458.1,1369.58,453.44Z"/><path class="cls-27" d="M1348.11,476.56s-10.51,30.16-11.78,32.7-7.7,14.23-5.39,28,43.92,18.67,43.92,18.67l-.76-94.51S1355.52,459.17,1348.11,476.56Z"/><path class="cls-27" d="M1399.67,476.56s10.51,30.16,11.78,32.7,7.69,14.23,5.38,28-43.91,18.67-43.91,18.67l.75-94.51S1392.26,459.17,1399.67,476.56Z"/><polygon class="cls-20" points="1387.94 541.07 1361.7 540.61 1363.11 519.19 1385.26 519.19 1387.94 541.07"/><path class="cls-25" d="M1362.53,528.07a19,19,0,0,0,9.24,4.23l1.66,0h.23l1.66,0a20.54,20.54,0,0,0,10.88-5.41l-.94-7.7h-22.15Z"/><path class="cls-20" d="M1390.91,482.13a11.79,11.79,0,0,0-3.84-4.53A43.26,43.26,0,0,0,1374,474h-.73a43.26,43.26,0,0,0-13.12,3.59,11.79,11.79,0,0,0-3.84,4.53,184.76,184.76,0,0,0-1.25,18.55,31.77,31.77,0,0,0,5.27,18.34c2.72,4,6.64,7.58,12,8.1h2.51c5.41-.52,9.33-4.1,12.05-8.1a31.77,31.77,0,0,0,5.27-18.34A184.76,184.76,0,0,0,1390.91,482.13Z"/><path class="cls-20" d="M1387.65,504.93a6.1,6.1,0,1,0,6.09-6.09A6.1,6.1,0,0,0,1387.65,504.93Z"/><path class="cls-25" d="M1394.19,508.69a2.57,2.57,0,0,0,2.42-1.92,2.41,2.41,0,0,0-1-2.81,2.86,2.86,0,0,0-3.16.07,2.69,2.69,0,0,1,1.19-1.42,3.84,3.84,0,0,1,2.68-.17.19.19,0,1,0,.12-.37,4.11,4.11,0,0,0-3,.2,3.34,3.34,0,0,0-1.57,2.24l-.17.68.5-.5a2.63,2.63,0,0,1,3.19-.4,2,2,0,0,1,.8,2.37,2.14,2.14,0,0,1-2.07,1.64.2.2,0,0,0-.19.19.19.19,0,0,0,.19.2Z"/><path class="cls-20" d="M1361.1,504.93a6.1,6.1,0,1,1-6.09-6.09A6.1,6.1,0,0,1,1361.1,504.93Z"/><path class="cls-25" d="M1354.56,508.69a2.57,2.57,0,0,1-2.42-1.92,2.41,2.41,0,0,1,1-2.81,2.86,2.86,0,0,1,3.16.07,2.69,2.69,0,0,0-1.19-1.42,3.84,3.84,0,0,0-2.68-.17.19.19,0,1,1-.12-.37,4.11,4.11,0,0,1,3,.2,3.34,3.34,0,0,1,1.57,2.24l.17.68-.5-.5a2.63,2.63,0,0,0-3.19-.4,2,2,0,0,0-.8,2.37,2.14,2.14,0,0,0,2.07,1.64.2.2,0,0,1,.19.19.19.19,0,0,1-.19.2Z"/><path class="cls-25" d="M1372.81,510.85a.23.23,0,0,0,.22-.18.22.22,0,0,0-.18-.26c-1.43-.31-2.34-2.08-2.6-2.66a6.69,6.69,0,0,0,3.7-4.22,7.27,7.27,0,0,0-1.16-5.41.22.22,0,0,0-.36.26,7,7,0,0,1,1.09,5.05,6.4,6.4,0,0,1-3.66,4l-.18.09.07.19c0,.11,1.06,2.7,3,3.12Z"/><circle cx="1366.71" cy="501.05" r="1.24"/><circle cx="1382.04" cy="501.3" r="1.24"/><path class="cls-27" d="M1352.36,499.05s22.5-10.87,24.35-24.71l1,3.15s7.8,20.37,17.44,21.47c0,0,8.43-30.55-15.76-36.62S1350.42,480.21,1352.36,499.05Z"/><path class="cls-26" d="M1369.82,513.33c.11,0,7.54-.18,7.54-.18s-.94,3.06-3.7,3.13S1369.82,513.33,1369.82,513.33Z"/><path class="cls-27" d="M1387.17,498.62a.51.51,0,0,1-.32-.12c-3.15-2.67-7.63-1.2-7.67-1.18a.5.5,0,0,1-.63-.31.5.5,0,0,1,.31-.63c.21-.07,5.06-1.67,8.63,1.37a.48.48,0,0,1,.06.69A.49.49,0,0,1,1387.17,498.62Z"/><path class="cls-27" d="M1361.8,498.52a.49.49,0,0,1-.38-.18.5.5,0,0,1,.07-.7c3.65-2.94,8.46-1.23,8.67-1.15a.49.49,0,0,1,.29.63.48.48,0,0,1-.63.29s-4.5-1.59-7.71,1A.45.45,0,0,1,1361.8,498.52Z"/><path class="cls-20" d="M1356.41,510.86s2.24,16.5,15.92,16.26Z"/><path class="cls-20" d="M1391.06,510.4s-2.24,17-15.92,16.72l10-23.23Z"/><path class="cls-10" d="M1389.39,465.14a1.1,1.1,0,0,1-.31,0c-10.74-3.45-17.55-3.12-20-2.81l-.24,0a1,1,0,0,1-1-.92,1,1,0,0,1,.91-1.05h.13c3.18-.4,10.11-.56,20.84,2.88a1,1,0,0,1-.3,1.93Z"/><path class="cls-28" d="M1360.17,591.28l34.34,17.12,41.29,25.45,10.51,12.48,20,30.85c69.43-15.48,52.78-54.79,48.65-61.72-11.25-18.88-36.59-40.72-50.56-56.83a123.7,123.7,0,0,0-9.8-10,51.86,51.86,0,0,0-35.1-13.58h-32.08Zm82,8.87s4,3.48,4.14,3.66L1467.49,625l1.49.51-22.72,11.25s-2.31.9-2.54.42C1443.61,636.94,1442.13,600.15,1442.13,600.15Z"/><path class="cls-28" d="M1358.59,535h-32.07a51.86,51.86,0,0,0-35.1,13.58,122.06,122.06,0,0,0-9.8,10c-14,16.11-39.31,38-50.57,56.83-4.13,6.93-20.77,46.24,48.66,61.72l20-30.85,10.51-12.48,41.29-25.45,34.34-17.12Zm-56.24,102.16c-.24.48-2.54-.42-2.54-.42l-22.72-11.25,1.49-.51,21.22-21.18c.18-.18,4.14-3.66,4.14-3.66S1302.46,636.94,1302.35,637.17Z"/><polygon class="cls-20" points="1319.57 981.44 1362.37 968.05 1346.71 917.88 1302.16 925.36 1319.57 981.44"/><path class="cls-27" d="M1291,1018.36l76.84-46.28-9.23-15.33s-10-4-16.27,4.89c0,0-7.15,16.63-25,12.66l-21.16,29.25S1287.86,1013.15,1291,1018.36Z"/><path class="cls-29" d="M1284.56,995.78h91.61a0,0,0,0,1,0,0V1002a0,0,0,0,1,0,0h-91.61a2,2,0,0,1-2-2v-2.28A2,2,0,0,1,1284.56,995.78Z" transform="translate(-324.79 829.23) rotate(-31.07)"/><rect class="cls-20" x="1321.82" y="786.69" width="44.94" height="47.6" transform="translate(1478.12 -753.51) rotate(63.8)"/><path class="cls-18" d="M1386.11,767.76c-1,0-37.29,16.08-37.29,16.08l-11.58,7.55s17.69,120.45,21,152.61c0,0-25.6,18.06-51.53,18.71,0,0-53.5-186.47-53.5-210.16S1367,672.74,1367,672.74l51.78,29.88s77.8,6.4,95.69,18.54-138.89,83.14-138.89,83.14Z"/><path class="cls-18" d="M1346.12,779.33s87.82-52.37,118-60.53,51.86-1.26,55.14,8.26,6.56,36.43,0,45.29-121.11,51.2-147.37,58.42C1371.91,830.77,1348.54,803.62,1346.12,779.33Z"/><path class="cls-8" d="M1517.87,726c-6.94-14-79.22-21.15-83.39-20.52a.83.83,0,0,1-.76-1.47c1.26-.85,21.54,1.6,21.75,1.62,8.64,1.07,25.23,3.41,39.28,7.11s22.33,7.92,24.61,12.53a.83.83,0,0,1-.38,1.11.76.76,0,0,1-.36.08A.82.82,0,0,1,1517.87,726Zm-83.22-20.61h0Z"/><path class="cls-8" d="M1354.88,805.38a.78.78,0,0,0,.44-.13.83.83,0,0,0,.26-1.15,59.86,59.86,0,0,1-8.7-25.52c4.84-3.25,53.37-35.39,121.85-64.69a.83.83,0,1,0-.65-1.53c-72,30.81-122,64.78-122.53,65.12l-.38.26,0,.46a60.11,60.11,0,0,0,9,26.79A.84.84,0,0,0,1354.88,805.38Z"/><path class="cls-8" d="M1453.1,720.42a.82.82,0,0,0,.65-.32c3.17-4.05,9.06-7.51,9.12-7.54a.83.83,0,0,0-.84-1.44c-.25.15-6.22,3.65-9.59,8a.84.84,0,0,0,.14,1.17A.86.86,0,0,0,1453.1,720.42Z"/><path class="cls-8" d="M1272.41,839.42a.68.68,0,0,0,.2,0,.83.83,0,0,0,.61-1c-.17-.71-17.19-71.12-19.3-83.26-2-11.63,23-28.69,23.24-28.86a.83.83,0,1,0-.93-1.37c-1.07.72-26.16,17.83-24,30.52,2.12,12.18,19.15,82.65,19.32,83.36A.84.84,0,0,0,1272.41,839.42Z"/><path class="cls-8" d="M1326.76,798.49a.78.78,0,0,0,.44-.13l20.22-12.91a.83.83,0,0,0,.25-1.15.82.82,0,0,0-1.14-.25L1326.31,797a.83.83,0,0,0-.25,1.15A.82.82,0,0,0,1326.76,798.49Z"/><path class="cls-8" d="M1306.6,963.54h.11c1.5-.21,36.86-5.12,52-18.92l.32-.29-.06-.44-15.26-113.23-4.53-40.27a.81.81,0,0,0-.92-.73.83.83,0,0,0-.73.92l4.53,40.29,15.21,112.81c-14.93,13.23-50.4,18.16-50.76,18.21a.83.83,0,0,0,.11,1.65Z"/><path class="cls-8" d="M1506.73,774a.86.86,0,0,0,.5-.17c9.46-7,9.39-13,9.38-13.22a.84.84,0,0,0-.86-.81.83.83,0,0,0-.8.85c0,.09-.06,5.48-8.71,11.85a.83.83,0,0,0-.18,1.16A.85.85,0,0,0,1506.73,774Z"/><path class="cls-8" d="M1498.24,772.41a.81.81,0,0,0,.39-.1c10.38-5.51,11.18-11.46,11.21-11.71a.82.82,0,0,0-.72-.92.85.85,0,0,0-.93.72c0,.09-.85,5.41-10.34,10.44a.83.83,0,0,0,.39,1.57Z"/><path class="cls-28" d="M1302.35,637.17l-1.12,71.35s76.93,14.06,145.42-4.16c1.69-.45-3.21-70.24-3.21-70.24s0-13.54-7.14-17.72-65-76.84-66.42-76.84S1302.35,637.17,1302.35,637.17Z"/><path class="cls-8" d="M1374.43,558.63a.83.83,0,0,1-.06-1.66c25.28-1.59,33.53-18.9,33.61-19.08a.83.83,0,1,1,1.51.69c-.08.19-8.7,18.39-35,20Z"/><path class="cls-20" d="M1346.56,535h55.73s-10.07,17.44-29.33,17.37C1364.13,552.34,1354.68,549.1,1346.56,535Z"/><path class="cls-10" d="M1341.08,628l-29.84-6.31s9.14,30.16,8.36,30.31c-5,1-24.31,22.67,5.38,21.6.61,0,17.7-3.31,17.7-3.31Z"/><path class="cls-10" d="M1392.89,626l8.71,41.74s17.92-14.59,17.92-16.18-5.67-21-6.27-21.38S1392.89,626,1392.89,626Z"/><polygon class="cls-23" points="1315.53 600.46 1315.53 594.55 1372.46 613 1348.61 636.36 1315.53 600.46"/><polygon class="cls-23" points="1431.56 600.46 1431.56 594.55 1374.62 613 1398.47 636.36 1431.56 600.46"/><path class="cls-21" d="M1313.07,596.58c0,2.17,4.33,88.21,4.33,88.21l55.68,14.46v-84.6Z"/><path class="cls-21" d="M1433.09,596.58c0,2.17-4.34,88.21-4.34,88.21l-55.67,14.46v-84.6Z"/><path class="cls-12" d="M1370.06,613h6.77a1.17,1.17,0,0,1,1.17,1.17v83.75a1.33,1.33,0,0,1-1.33,1.33h-6.43a1.33,1.33,0,0,1-1.33-1.33V614.16A1.17,1.17,0,0,1,1370.06,613Z"/><g class="cls-30"><rect class="cls-12" x="1368.9" y="622.47" width="9.1" height="4.18"/></g><g class="cls-30"><rect class="cls-12" x="1368.9" y="688.14" width="9.1" height="4.18"/></g><path class="cls-31" d="M1345.16,657c3.54-3.58.26-8.13.26-8.13a14.69,14.69,0,0,0,.38-6.23,1.49,1.49,0,0,0-1.88-1.15c-3.87,1.16-15,4.57-21.94,7.12-4.76-.71-6.45-3-6.45-3l-.12.2c-.09-4.13-.21-9.29-.21-9.88,0-1-1.57-2.56-4,.56s-7.22,11.49-7.22,11.49h-14.39l-7.93,27.42s29.86,4.22,34.46,4.55,20.59-3.44,25.35-7.38,3.73-7.47,3.73-7.47A6,6,0,0,0,1345.16,657Z"/><path class="cls-25" d="M1335.31,654.17a.56.56,0,0,1-.53-.39.55.55,0,0,1,.36-.69,68.66,68.66,0,0,0,10-4.72.57.57,0,0,1,.76.2.56.56,0,0,1-.21.76,68.24,68.24,0,0,1-10.22,4.81A.51.51,0,0,1,1335.31,654.17Z"/><path class="cls-25" d="M1335.31,661.18a.55.55,0,0,1-.54-.45.56.56,0,0,1,.44-.65,34,34,0,0,0,9.67-3.58.56.56,0,0,1,.56,1,34.89,34.89,0,0,1-10,3.71Z"/><path class="cls-25" d="M1336.54,669.18a.55.55,0,0,1-.54-.43.56.56,0,0,1,.42-.66,29.78,29.78,0,0,0,8.45-3.52.54.54,0,0,1,.76.16.55.55,0,0,1-.17.77,30,30,0,0,1-8.8,3.67Z"/><path class="cls-28" d="M1307.43,640.54l-3.49,39.36s-12.45,1.36-36.48-6-4.1-46.68-2.63-47.29,17.44,1.39,17.44,1.39Z"/><path d="M1304.61,680.64l-.69,0c-2.61-.09-63.88-2.58-75.94-34.89-.19-.37-5.28-10.84.14-25.7s43-51.31,44.64-52.86c.6-.69,15.73-17.82,23.11-23.11a.71.71,0,0,1,1,.16.72.72,0,0,1-.16,1c-7.25,5.19-22.75,22.76-22.91,22.93-.43.42-39.07,38-44.33,52.37-5.2,14.24-.23,24.52-.17,24.63,11.07,29.67,67.08,33.61,74,34,.74-10,3-34.42,3.39-38.19-23.7-12-46.9-23-47.13-23.13a.72.72,0,0,1,.62-1.3c.24.12,23.73,11.32,47.59,23.37l.44.22,0,.49c0,.29-2.76,29.13-3.49,39.34Z"/><path d="M1278.17,626.75a.74.74,0,0,1-.5-.2.72.72,0,0,1,0-1l25.65-26.37a.72.72,0,1,1,1,1l-25.65,26.36A.7.7,0,0,1,1278.17,626.75Z"/><path d="M1302.35,638.74h0a.72.72,0,0,1-.69-.74l1.59-41.45a.68.68,0,0,1,.75-.69.71.71,0,0,1,.69.74l-1.59,41.45A.72.72,0,0,1,1302.35,638.74Z"/><path d="M1278.58,625.71a.72.72,0,0,1-.61-.34l-4.4-7a.72.72,0,1,1,1.22-.77l4.4,7a.73.73,0,0,1-.23,1A.76.76,0,0,1,1278.58,625.71Z"/><path class="cls-31" d="M1400.9,657c-3.53-3.58-.26-8.13-.26-8.13a16.9,16.9,0,0,1-.52-5.06,2.32,2.32,0,0,1,3-2c4.52,1.37,14.58,4.47,21,6.83,4.76-.71,6.45-3,6.45-3l.12.2c.09-4.13.21-9.29.21-9.88,0-1,1.57-2.56,4,.56s7.23,11.49,7.23,11.49h14.39l7.93,27.42s-29.87,4.22-34.46,4.55-20.59-3.44-25.35-7.38-3.74-7.47-3.74-7.47A6,6,0,0,1,1400.9,657Z"/><path class="cls-25" d="M1410.76,654.17a.54.54,0,0,0,.52-.39.54.54,0,0,0-.35-.69,68.66,68.66,0,0,1-10-4.72.57.57,0,0,0-.76.2.56.56,0,0,0,.21.76,68.24,68.24,0,0,0,10.22,4.81A.47.47,0,0,0,1410.76,654.17Z"/><path class="cls-25" d="M1410.76,661.18a.55.55,0,0,0,.54-.45.56.56,0,0,0-.44-.65,34.32,34.32,0,0,1-9.68-3.58.54.54,0,0,0-.75.2.55.55,0,0,0,.19.76,35,35,0,0,0,10,3.71Z"/><path class="cls-25" d="M1409.53,669.18a.55.55,0,0,0,.11-1.09,29.8,29.8,0,0,1-8.44-3.52.54.54,0,0,0-.76.16.56.56,0,0,0,.16.77,30.16,30.16,0,0,0,8.81,3.67Z"/><path class="cls-28" d="M1438.64,640.54l3.49,39.36s12.44,1.36,36.47-6,4.11-46.68,2.63-47.29-17.44,1.39-17.44,1.39Z"/><path d="M1441.46,680.64l0-.69c-.73-10.21-3.46-39.05-3.49-39.34l0-.49.44-.22c23.86-12,47.35-23.25,47.59-23.37a.72.72,0,0,1,.62,1.3c-.24.11-23.43,11.18-47.13,23.13.36,3.77,2.65,28.2,3.39,38.19,6.9-.38,62.9-4.31,74-33.92.08-.18,5.06-10.46-.14-24.7-5.26-14.42-43.9-51.95-44.29-52.33-.2-.21-15.7-17.78-23-23a.73.73,0,0,1-.17-1,.72.72,0,0,1,1-.16c7.38,5.29,22.51,22.42,23.15,23.15,1.56,1.51,39.23,38.1,44.6,52.82s.33,25.33.11,25.77c-12,32.24-73.31,34.73-75.91,34.82Z"/><path d="M1467.9,626.75a.7.7,0,0,1-.52-.22l-25.65-26.36a.72.72,0,0,1,1-1l25.65,26.37a.72.72,0,0,1,0,1A.74.74,0,0,1,1467.9,626.75Z"/><path d="M1443.72,638.74a.71.71,0,0,1-.72-.69l-1.59-41.45a.71.71,0,0,1,.69-.74.68.68,0,0,1,.75.69l1.59,41.45a.72.72,0,0,1-.69.74Z"/><path d="M1467.49,625.71a.76.76,0,0,1-.38-.11.73.73,0,0,1-.23-1l4.4-7a.72.72,0,0,1,1-.23.73.73,0,0,1,.23,1l-4.4,7A.72.72,0,0,1,1467.49,625.71Z"/><polygon class="cls-20" points="530.89 1485.3 593.7 1486.16 594.6 1427.44 532.04 1419.7 530.89 1485.3"/><path class="cls-15" d="M470.39,1507.1l127.3-15.5-3.1-25.39s-10.74-11.06-24.08-3.12c0,0-19,17.52-40,1.91l-44.69,25.8S469.34,1498.47,470.39,1507.1Z"/><path class="cls-32" d="M466.1,1499.66H598.72a0,0,0,0,1,0,0v9a0,0,0,0,1,0,0H466.1a1.19,1.19,0,0,1-1.19-1.19v-6.58A1.19,1.19,0,0,1,466.1,1499.66Z" transform="translate(-177.89 75.3) rotate(-6.94)"/><path class="cls-33" d="M517.26,1472.64c5.07,6.09,15.27,18.32,21.75,26.11l8.68-1.06-24-28.78Z"/><path class="cls-33" d="M525.09,1500.44l8.68-1c-4.71-5.66-13.9-16.7-20.41-24.5l-6.45,3.72Z"/><path class="cls-9" d="M726.21,1275.94s54.07.89,92-.41c12.16-.42,23,.44,29.4-1,26.37-5.86,32.87-88.19,2.92-138.63s-134.73,104.43-134.73,104.43Z"/><polygon class="cls-20" points="628.37 1485.3 691.18 1486.16 692.08 1427.44 629.52 1419.7 628.37 1485.3"/><path class="cls-10" d="M572.4,1513.5l125.69-25.39L693,1463s-11.57-10.19-24.25-1.23c0,0-17.63,19-39.76,5L586.48,1496S570.67,1505,572.4,1513.5Z"/><path class="cls-29" d="M567.69,1501.27H700.3a0,0,0,0,1,0,0v9a0,0,0,0,1,0,0H567.69a1.19,1.19,0,0,1-1.19-1.19v-6.58a1.19,1.19,0,0,1,1.19-1.19Z" transform="translate(-285.62 155.24) rotate(-11.42)"/><path class="cls-33" d="M616.43,1475.48c5.54,5.67,16.65,17.08,23.73,24.33l8.56-1.73-26.15-26.82Z"/><path class="cls-33" d="M626.41,1502.59l8.57-1.73c-5.14-5.28-15.16-15.56-22.26-22.83l-6.14,4.21Z"/><path class="cls-19" d="M668,1165.76s-132.81,8.49-136.64,23.82-14.82,178.38-6.61,247.94c0,0,50.39,3.47,74.49-2.37l5.86-169.61,39.78-4.56L736,1151.44Z"/><path class="cls-9" d="M731.8,1163.25s-102.42,28.9-106.25,44.24-14.75,160.84-6.53,230.4c0,0,54.18,3.1,78.28-2.74l6.49-160,23.37.81,56.67-99.7Z"/><path class="cls-8" d="M664.79,1439.78c23.94,0,32.47-3.61,32.88-3.79l.53-.23,6.29-160.93-9.9,4.67.79,1.67,7.14-3.37-6.12,156.7c-2.59.89-15,4.47-44.34,3.12l-.08,1.85C656.67,1439.68,660.93,1439.78,664.79,1439.78Z"/><path class="cls-8" d="M687.24,1405.07c2.55-9.85,3.28-106,3.31-110.07l-1.84,0c0,1-.76,100-3.26,109.63Z"/><path class="cls-8" d="M592.06,1269.16c12.14-3.93,28.86-4.52,29-4.52l-.06-1.85c-.17,0-17.15.6-29.54,4.61Z"/><path class="cls-8" d="M564.73,1439.43c20.46,0,34.58-3.35,34.73-3.38l.68-.17,5.93-171.49-7.57,6.09,1.16,1.44,4.42-3.56-5.74,166a168,168,0,0,1-35.4,3.18l0,1.85Z"/><path class="cls-8" d="M590.49,1408.65c2.55-14.89.12-115.66,0-119.94l-1.85,0c0,1,2.52,104.88,0,119.59Z"/><path class="cls-8" d="M766.89,1277.66c23.59,0,51.88-.8,83.67-3.19l-.14-1.84c-94.73,7.14-158.26.08-158.89,0l-.21,1.83C691.74,1274.51,720.06,1277.66,766.89,1277.66Z"/><path class="cls-6" d="M734.46,1111.61c-1.83,0-75.4,31.61-75.4,31.61l14.83,28.37,41.29-9.06Z"/><path class="cls-6" d="M841.06,979.76s31.28-1.09,46.22,7.37c22.28,12.62,14.34,84.93,14.34,84.93s-18.93-10.33-20.08-13.77S841.06,979.76,841.06,979.76Z"/><path class="cls-8" d="M848.65,1136.72l-.12,0-23,5.27a.87.87,0,0,1-1-.65.86.86,0,0,1,.64-1l23-5.27a.86.86,0,0,1,.5,1.65Z"/><path class="cls-8" d="M700.83,1125.77a.86.86,0,0,1-.63-1.61l24.87-9.92a.86.86,0,1,1,.64,1.6l-24.87,9.92Z"/><path class="cls-28" d="M691.44,1142.05s-9,21.23-2.42,63.81l32.9-17.65-9.77-31.81Z"/><path class="cls-8" d="M849.08,1218.66c-2,.76-3.92,1.36-5.68,1.83-10.54,2.79-17.9,1.63-18.21,1.58a.86.86,0,0,1,.28-1.7c.08,0,7.38,1.15,17.58-1.57,9.41-2.51,23.29-8.93,36-25.21,15.94-20.44,21.76-83.37,21.9-131a.86.86,0,1,1,1.72,0c-.14,48-6.06,111.33-22.26,132.11C869.73,1208.32,858.22,1215.21,849.08,1218.66Z"/><path class="cls-34" d="M635.84,1074.93l-1.67-.38-34.94,6.24s1.91.44,2,.44S635.84,1074.93,635.84,1074.93Z"/><polygon class="cls-23" points="620.02 1193.1 657.64 1178.41 635.84 1074.93 598.81 1081.23 620.02 1193.1"/><polygon points="637.09 1082.48 637.72 1082.35 636.11 1074.66 634.17 1074.22 634.11 1074.23 599.4 1080.37 599.51 1081.01 634.16 1074.88 635.56 1075.2 637.09 1082.48"/><polygon class="cls-4" points="620.02 1193.1 694.66 1193.1 673.45 1081.23 598.81 1081.23 620.02 1193.1"/><path class="cls-20" d="M635.89,1183a4.75,4.75,0,0,1,4.43-4.71l15-1a1.11,1.11,0,0,0,1-.82h0a1.11,1.11,0,0,0-1-1.39l-22.21-1.47a3.66,3.66,0,0,1-3.42-4.78h0a5.9,5.9,0,0,1,5.83-4.17l22.64,1.5a1.11,1.11,0,0,0,1.14-.82l.1-.36a1.12,1.12,0,0,0-.78-1.35l-24.28-6.52a4.76,4.76,0,0,1-3.43-5.49,4.55,4.55,0,0,1,5.61-3.34l24.45,6.57a1.12,1.12,0,0,0,1.36-.78l.3-1.15a1.09,1.09,0,0,0-.64-1.3l-21.71-9a4.75,4.75,0,0,1-2.68-5.88,4.54,4.54,0,0,1,6-2.59S677,1146,682.42,1147.39l-10-4.69c-7.39,6.93,1-2.53,7-3.75,6.74-1.36,24.53,15.12,24.53,15.12.82,1.41,0,4.58-1.3,7-5,26.36-5.95,30.39-7.94,37.37L667.27,1190a68.18,68.18,0,0,0-24.46-2.81l-2.08.13A4.53,4.53,0,0,1,635.89,1183Z"/><polygon class="cls-4" points="684.12 1137.53 685.99 1148.66 670.06 1143.34 670.19 1136.34 684.12 1137.53"/><polygon class="cls-34" points="673.32 1081.27 671.99 1080.79 599.23 1080.79 598.81 1081.23 673.32 1081.27"/><rect x="679.27" y="1080.66" width="0.65" height="66.99" transform="translate(-192.89 143.61) rotate(-10.57)"/><polygon points="619.76 1193.43 660.76 1193.03 660.76 1192.38 620.29 1192.78 609.39 1135.29 608.76 1135.41 619.76 1193.43"/><rect x="608.38" y="1090.65" width="7.42" height="0.65" transform="translate(-632.01 960.25) rotate(-54.71)"/><rect x="669.81" y="1128.33" width="7.42" height="0.65" transform="translate(-636.83 1026.25) rotate(-54.7)"/><rect x="664.89" y="1130.8" width="7.42" height="0.65" transform="translate(-640.92 1023.27) rotate(-54.7)"/><rect x="609.01" y="1095.33" width="7.42" height="0.65" transform="translate(-635.56 962.73) rotate(-54.71)"/><path class="cls-6" d="M871.34,985.4c-17.78-2.46-64.69-4.16-64.69-4.16s-6.22,1.63-4.24.72c-51.81,9.14-57.53,47.56-57.53,47.56l-25.29,111-28.15,1.52c-9.1,17.26-2.42,63.81-2.42,63.81l136.31,15.36s29.47,4.86,54.39-27.1c16.48-21.14,22.09-86,22.08-133.48C901.8,1060.64,899,989.23,871.34,985.4Z"/><path class="cls-8" d="M825.52,1142.45a.85.85,0,0,1-.5,0,.87.87,0,0,1-.64-1c.14-.61,14.39-61.16,20.45-99.27a.86.86,0,0,1,1-.72.87.87,0,0,1,.72,1c-6.07,38.17-20.33,98.79-20.48,99.39A.82.82,0,0,1,825.52,1142.45Z"/><path class="cls-8" d="M737.35,1141.46a.89.89,0,0,1-.56,0,.86.86,0,0,1-.56-1.08c.21-.67,21.35-67.73,25.76-90.92a.86.86,0,1,1,1.69.33c-4.43,23.28-25.6,90.44-25.81,91.11A.86.86,0,0,1,737.35,1141.46Z"/><path class="cls-8" d="M823.28,1013.78c-.67.07-1.34.13-2,.18a.73.73,0,0,1-.77-.67.71.71,0,0,1,.67-.76c29.64-2.08,35.15-23.79,35.19-24a.71.71,0,0,1,.82-.58.7.7,0,0,1,.59.79C857.72,989,852.25,1010.78,823.28,1013.78Z"/><path class="cls-8" d="M731.3,1125.45a.85.85,0,0,1-1-.37l-5.78-9.9.07-.33L744,1029.36c.12-.77,1.81-10.73,10.25-21.71,7.92-10.3,23.53-23.4,53-27.31a.86.86,0,0,1,.23,1.71c-28.79,3.82-44,16.56-51.75,26.57-8.37,10.85-10,20.93-10,21l0,.07-19.4,85.18,5.43,9.31a.85.85,0,0,1-.31,1.18A.31.31,0,0,1,731.3,1125.45Z"/><path class="cls-8" d="M855.25,1143.22a.74.74,0,0,1-.33,0c-1.23,0-123-3.69-162.87-.4-1,2.61-5.48,16.13-4.22,40.86a.85.85,0,0,1-.81.9.87.87,0,0,1-.91-.82c-1.42-28,4.3-41.54,4.54-42.1l.21-.47.51,0c39.38-3.38,162.36.32,163.6.35a.86.86,0,0,1,.28,1.67Z"/><path class="cls-20" d="M798.79,918v35.81s-.5,12.1,10.08,13.61l-2,16.15a12.59,12.59,0,0,0,8.62,13.57,33.07,33.07,0,0,0,10,1.54c12.11,0,18.66-9.07,19.67-13.61s-2-26.22-2-26.22l.37-10.66-1.38-41.28Z"/><path class="cls-8" d="M828,935.91a.49.49,0,0,0,.35-.14.5.5,0,0,0,0-.71c-.07-.07-7-7.17-13.34-2.06a.51.51,0,1,0,.63.79c5.62-4.53,11.73,1.7,12,2A.53.53,0,0,0,828,935.91Z"/><path class="cls-8" d="M807.22,932.89a.51.51,0,0,0,.33-.89c-.2-.17-5-4.29-8-1.68a.5.5,0,1,0,.65.77c2.39-2.05,6.7,1.64,6.74,1.68A.52.52,0,0,0,807.22,932.89Z"/><circle cx="819.32" cy="937.95" r="1.51"/><circle cx="803.24" cy="936.44" r="1.51"/><path class="cls-8" d="M840.74,908.91l-8.44,12s-25.57,9.93-38.68-1.83-9.08-17.42-5.24-23.31c1.9-2.9,10.94-8.81,22-3.89,6.05,2.69,10.53-5.33,17.59-1.3s15.38,11,14.45,13.79S840.74,908.91,840.74,908.91Z"/><path class="cls-8" d="M840.23,903.87s11.65-.56,14.9,10.64-1.13,17.08-1.24,20.42,2.16,25.86-13.66,24.18L836,921.91l5.51-14.81Z"/><circle class="cls-20" cx="839.38" cy="937.43" r="9.08" transform="translate(-417.01 868.1) rotate(-45)"/><path class="cls-25" d="M840.05,943a3.78,3.78,0,0,0,3.56-2.83,3.55,3.55,0,0,0-1.43-4.15,4.26,4.26,0,0,0-4.77.17,4.16,4.16,0,0,1,1.84-2.24,5.71,5.71,0,0,1,4-.26.24.24,0,0,0,.31-.16.25.25,0,0,0-.16-.32,6.11,6.11,0,0,0-4.42.3,4.89,4.89,0,0,0-2.32,3.3l-.22.88.64-.64a3.94,3.94,0,0,1,4.8-.6,3.07,3.07,0,0,1,1.22,3.57,3.25,3.25,0,0,1-3.07,2.47H840a.26.26,0,0,0,0,.51Z"/><path class="cls-25" d="M833.42,957.15s-.71,20.25-26,22.19l1.45-11.91S825.28,970.73,833.42,957.15Z"/><path class="cls-25" d="M812.47,948.16a.26.26,0,0,0,.08-.5l-5-1.67,1.6-11.89a.24.24,0,0,0-.22-.28.24.24,0,0,0-.28.21l-1.66,12.31,5.46,1.8Z"/><path class="cls-26" d="M816.39,953.07c-.16,0-10-.26-10-.26s1.23,4.06,4.88,4.16S816.39,953.07,816.39,953.07Z"/><rect class="cls-6" x="708.77" y="234.48" width="320.29" height="24.51" transform="translate(46.59 620.47) rotate(-40.29)"/><path class="cls-9" d="M1013.89,127.64c11.21,13.43,27.9,66.36,14.48,77.56s-51.9-23.54-63.11-37a31.67,31.67,0,1,1,48.63-40.59Z"/><path d="M1021.71,208.17a10.8,10.8,0,0,0,7.16-2.36l-1-1.21c-6.92,5.77-20.91-1.87-31.43-9.29-12.06-8.52-24.5-20.33-30.56-27.59a30.92,30.92,0,0,1,3.92-43.5l-1-1.21a32.49,32.49,0,0,0-4.13,45.72c6.13,7.34,18.7,19.27,30.87,27.87C1003.66,202.35,1013.85,208.17,1021.71,208.17Z"/><path class="cls-6" d="M954.1,697.56h54.43a0,0,0,0,1,0,0v3.12a6.1,6.1,0,0,1-6.1,6.1H960.2a6.1,6.1,0,0,1-6.1-6.1v-3.12A0,0,0,0,1,954.1,697.56Z" transform="translate(1962.63 1404.33) rotate(180)"/><circle class="cls-35" cx="1071.12" cy="263.01" r="45.55" transform="translate(438.01 1166.15) rotate(-68.76)"/><path class="cls-10" d="M986.46,161.56a132.14,132.14,0,0,0-16.79,186.12l202.91-169.33A132.14,132.14,0,0,0,986.46,161.56Z"/><rect class="cls-6" x="797.03" y="352.16" width="24.51" height="371.92" transform="translate(-129.81 287.89) rotate(-18.7)"/><path class="cls-10" d="M1006.34,704.57H819.54a44.66,44.66,0,0,0-44.66,44.66V754h280.9A49.43,49.43,0,0,0,1006.34,704.57Z"/><polygon class="cls-6" points="1172.58 178.35 969.67 347.68 980.11 358.05 1181.29 187.37 1172.58 178.35"/><path d="M1138.6,224.62l43.76-37.13-.44-.59c-.31-.43-32.07-42.77-79.36-53.05-49.19-10.7-78.79,4.18-93,11.33-16.51,8.3-41.62,29.88-50.52,46.34l1.39.75c8.76-16.21,33.54-37.48,49.84-45.68,14.07-7.07,43.33-21.78,92-11.2,43.67,9.5,74,46.72,78,51.86l-42.63,36.17Z"/><rect x="938.98" y="262.22" width="264.28" height="1.58" transform="translate(80.22 747.35) rotate(-39.84)"/><rect x="971.82" y="252.9" width="1.58" height="17.81"/><rect x="979.78" y="258.05" width="1.58" height="19.68"/><rect x="721.05" y="241.32" width="268.74" height="1.58" transform="translate(46.38 610.65) rotate(-40.29)"/><rect x="823.26" y="255.44" width="106.81" height="1.58" transform="translate(42.3 627.74) rotate(-40.29)"/><rect x="794.58" y="356.47" width="1.58" height="357.53" transform="translate(-129.53 282.96) rotate(-18.68)"/><rect x="809.69" y="399.18" width="1.58" height="208.48" transform="translate(-118.66 286.59) rotate(-18.71)"/><path d="M1032.42,712.91l1.16-1.08c-.36-.39-9.26-9.52-43.14-8.05-33.5,1.46-168.51,0-169.87,0l0,1.58c1.36,0,136.41,1.46,170,0C1023.48,703.92,1032.34,712.82,1032.42,712.91Z"/><rect x="800.85" y="722.42" width="13.65" height="1.58" transform="translate(-267.61 584.87) rotate(-34.51)"/><rect x="801.21" y="730.39" width="11.05" height="1.58" transform="translate(-264.9 538.71) rotate(-32.01)"/><circle class="cls-9" cx="748.87" cy="351.92" r="23.27" transform="translate(-20.96 48.57) rotate(-3.66)"/><path class="cls-5" d="M1129.22,518.89c-32.91-1.74-145.67-6.49-222.77,4.94-10,1.48-16.38-10.5-9.46-17.88,4-4.31,11-7.82,22.56-8.64,0,0-4-72,50.38-76.75,62.36-5.47,63.12,65.25,63.12,65.25s28.34-26.9,48.79,7.21c0,0,35.32-20.42,53.15,17.3A6,6,0,0,1,1129.22,518.89Z"/><rect class="cls-36" x="1169.32" y="306.78" width="185.64" height="114.47" rx="8.17"/><path class="cls-36" d="M1298.05,412.36c.19.76,30,39.6,30.22,38.45s-3.44-41.71-3.44-41.71Z"/><path class="cls-5" d="M1241.75,338.46c14-9.78,23,5.75,25,9.68,2.13-3.86,11.68-19,25.31-8.72,18.3,13.84-9.34,49.61-26.3,60.43h0C1249.18,388.39,1222.93,351.59,1241.75,338.46Z"/><rect class="cls-5" x="640.57" y="741.94" width="192.12" height="118.47" rx="8.17"/><path class="cls-37" d="M814.65,763.51H654.45a2,2,0,0,1,0-4h160.2a2,2,0,1,1,0,4Z"/><path class="cls-37" d="M814.65,786.31H654.45a2,2,0,0,1,0-4h160.2a2,2,0,0,1,0,4Z"/><path class="cls-37" d="M758.54,809.11H654.45a2,2,0,0,1,0-4H758.54a2,2,0,0,1,0,4Z"/><path class="cls-37" d="M815.84,809.11H774.3a2,2,0,0,1,0-4h41.54a2,2,0,0,1,0,4Z"/><path class="cls-37" d="M719.88,831.91H654.45a2,2,0,0,1,0-4h65.43a2,2,0,0,1,0,4Z"/><path class="cls-37" d="M815.84,831.91H734.55a2,2,0,0,1,0-4h81.29a2,2,0,0,1,0,4Z"/><path class="cls-5" d="M775.12,853.72c.12.49,19.29,25.44,19.41,24.7s-2.21-26.79-2.21-26.79Z"/><rect class="cls-18" x="217.48" y="1559.26" width="2166.05" height="6.76"/><path class="cls-2" d="M1708.19,207.85c179.1,54,210.8,2.94,198-61.23-16.87-84.93-97.91-141.15-183.7-129.48-115.65,15.73-257.92,54.19-114.62,145.12A405.53,405.53,0,0,0,1708.19,207.85Z"/></g></g></g></svg>