<svg xmlns="http://www.w3.org/2000/svg" xmlns:xlink="http://www.w3.org/1999/xlink" viewBox="0 0 1978.67 1654.2"><defs><style>.cls-1,.cls-14,.cls-3,.cls-5,.cls-51{opacity:0.95;}.cls-1{fill:url(#linear-gradient);}.cls-2{fill:#96bfe6;}.cls-3{fill:url(#linear-gradient-2);}.cls-4{fill:#4598e6;}.cls-5{fill:url(#linear-gradient-3);}.cls-6{fill:url(#linear-gradient-4);}.cls-7{fill:url(#linear-gradient-5);}.cls-8{fill:url(#linear-gradient-6);}.cls-9{fill:url(#linear-gradient-7);}.cls-10{fill:url(#linear-gradient-8);}.cls-11{fill:#fff;}.cls-12{fill:url(#linear-gradient-9);}.cls-13{fill:url(#linear-gradient-10);}.cls-14{fill:url(#linear-gradient-11);}.cls-15{fill:#e65353;}.cls-16{fill:#eea987;}.cls-17{fill:#d98b52;}.cls-18{fill:#b84343;}.cls-19{fill:#c78d71;}.cls-20{fill:#eea886;}.cls-21{fill:#16202e;}.cls-22{fill:#faa146;}.cls-23{fill:#8e4f3a;}.cls-24{fill:#633029;}.cls-25{fill:#323657;}.cls-26{fill:#fccca2;}.cls-27{fill:#e55353;}.cls-28{fill:#a77860;}.cls-29{fill:#ebeeff;}.cls-30{fill:#353a3d;}.cls-31{fill:#81807e;}.cls-32{fill:#2d3133;}.cls-33{fill:#decbc4;}.cls-34{fill:#495055;}.cls-35{fill:#252e3b;}.cls-36{fill:#3c4145;}.cls-37{fill:#b3a5a0;}.cls-38{fill:#51565c;}.cls-39{fill:#f5e2d9;}.cls-40{fill:#ad9f99;}.cls-41{fill:#69737a;}.cls-42{fill:#181929;}.cls-43{fill:#22243b;}.cls-44{fill:#292c47;}.cls-45{fill:#cfbeb6;}.cls-46{fill:#3a3f47;}.cls-47{fill:#23263d;}.cls-48{fill:#d44040;}.cls-49{fill:#eddad3;}.cls-50{fill:#8f5c28;}.cls-52{fill:url(#linear-gradient-12);}.cls-53{fill:url(#linear-gradient-13);}.cls-54{fill:url(#linear-gradient-14);}.cls-55{fill:url(#linear-gradient-15);}.cls-56{fill:url(#linear-gradient-16);}.cls-57{fill:url(#linear-gradient-17);}.cls-58{fill:url(#linear-gradient-18);}.cls-59{fill:url(#linear-gradient-19);}.cls-60{fill:url(#linear-gradient-20);}.cls-61{fill:url(#linear-gradient-21);}.cls-62{fill:url(#linear-gradient-22);}</style><linearGradient id="linear-gradient" x1="943.94" y1="1220.77" x2="902.75" y2="474.2" gradientUnits="userSpaceOnUse"><stop offset="0" stop-color="#d1d7e0"/><stop offset="1" stop-color="#ebebff"/></linearGradient><linearGradient id="linear-gradient-2" x1="1617.72" y1="1428.9" x2="1617.72" y2="660.3" xlink:href="#linear-gradient"/><linearGradient id="linear-gradient-3" x1="906.27" y1="954.27" x2="906.27" y2="392.27" xlink:href="#linear-gradient"/><linearGradient id="linear-gradient-4" x1="-4210.99" y1="1276.1" x2="-4083.6" y2="1276.1" gradientTransform="matrix(-1, 0, 0, 1, -3880.43, 0)" gradientUnits="userSpaceOnUse"><stop offset="0.01" stop-color="#1a2257"/><stop offset="1" stop-color="#5e60f2"/></linearGradient><linearGradient id="linear-gradient-5" x1="-4112.02" y1="1381.26" x2="-3880.43" y2="1381.26" xlink:href="#linear-gradient-4"/><linearGradient id="linear-gradient-6" x1="-4092.22" y1="1414.94" x2="-3918.4" y2="1414.94" xlink:href="#linear-gradient-4"/><linearGradient id="linear-gradient-7" x1="-4302.33" y1="1238.36" x2="-4041.31" y2="1238.36" xlink:href="#linear-gradient-4"/><linearGradient id="linear-gradient-8" x1="266.49" y1="1523.29" x2="114.51" y2="1067.36" gradientTransform="matrix(1, 0, 0, 1, 0, 0)" xlink:href="#linear-gradient-4"/><linearGradient id="linear-gradient-9" x1="148.91" y1="1821.05" x2="224.89" y2="1493.48" gradientUnits="userSpaceOnUse"><stop offset="0" stop-color="#c9c4c1"/><stop offset="1" stop-color="#fff6de"/></linearGradient><linearGradient id="linear-gradient-10" x1="114.68" y1="1565.42" x2="301.48" y2="1565.42" gradientTransform="translate(19.53)" xlink:href="#linear-gradient-9"/><linearGradient id="linear-gradient-11" x1="1415.57" y1="479.15" x2="1415.57" y2="162.56" xlink:href="#linear-gradient"/><linearGradient id="linear-gradient-12" x1="1862.98" y1="333.9" x2="1902.35" y2="333.9" xlink:href="#linear-gradient"/><linearGradient id="linear-gradient-13" x1="1848.88" y1="333.9" x2="1865.29" y2="333.9" xlink:href="#linear-gradient"/><linearGradient id="linear-gradient-14" x1="1749.92" y1="315.9" x2="1876.02" y2="315.9" xlink:href="#linear-gradient"/><linearGradient id="linear-gradient-15" x1="1049.58" y1="7.79" x2="1101.3" y2="7.79" xlink:href="#linear-gradient"/><linearGradient id="linear-gradient-16" x1="1049.58" y1="45.17" x2="1101.3" y2="45.17" xlink:href="#linear-gradient"/><linearGradient id="linear-gradient-17" x1="1049.58" y1="82.55" x2="1101.3" y2="82.55" xlink:href="#linear-gradient"/><linearGradient id="linear-gradient-18" x1="1122.66" y1="7.79" x2="1137.38" y2="7.79" xlink:href="#linear-gradient"/><linearGradient id="linear-gradient-19" x1="1122.66" y1="45.17" x2="1137.38" y2="45.17" xlink:href="#linear-gradient"/><linearGradient id="linear-gradient-20" x1="1122.66" y1="82.55" x2="1137.38" y2="82.55" xlink:href="#linear-gradient"/><linearGradient id="linear-gradient-21" x1="885.72" y1="882.28" x2="956.39" y2="882.28" xlink:href="#linear-gradient"/><linearGradient id="linear-gradient-22" x1="860.4" y1="882.28" x2="889.86" y2="882.28" xlink:href="#linear-gradient"/></defs><g id="Layer_2" data-name="Layer 2"><g id="Слой_1" data-name="Слой 1"><rect class="cls-1" x="642.53" y="274.21" width="527.46" height="527.46" rx="58.67"/><rect class="cls-2" x="784.16" y="681.59" width="244.21" height="12.06"/><rect class="cls-2" x="818.75" y="719.6" width="175.03" height="12.06"/><rect class="cls-3" x="1256.77" y="457.15" width="721.89" height="847.34" rx="69.12"/><rect class="cls-4" x="1584.09" y="957.03" width="57.25" height="10.6"/><rect class="cls-2" x="1366.71" y="1054.2" width="333.16" height="20.53"/><rect class="cls-2" x="1366.71" y="1152.76" width="269.41" height="20.53"/><rect class="cls-2" x="1366.71" y="1103.48" width="157.94" height="20.53"/><path class="cls-4" d="M1787,541.65V552h61v57.3h10.37V541.65Zm-414.59,67.67h10.37V552h61V541.65h-71.42ZM1848.09,905v57.32h-61v10.37h71.42V905Zm-465.27,0h-10.37v67.69h71.42V962.29h-61Z"/><path class="cls-4" d="M1826.13,1174.8a61.06,61.06,0,1,1,61.06-61.06A61.13,61.13,0,0,1,1826.13,1174.8Zm0-110.3a49.24,49.24,0,1,0,49.24,49.24A49.3,49.3,0,0,0,1826.13,1064.5Z"/><polygon class="cls-4" points="1822.24 1137.78 1794.5 1110.04 1802.86 1101.68 1822.24 1121.06 1849.41 1093.89 1857.77 1102.25 1822.24 1137.78"/><rect class="cls-5" x="728.5" y="293.93" width="355.53" height="305.04"/><path class="cls-6" d="M206,1515.8c29.6-20.82,64.24-165.89,66.31-252.29,1.06-44.27,14.14-62.71,25.69-79,11-15.56,20.56-29,15-59.82-10.61-58.94,17.28-84.38,17.56-84.63l-3.22-3.68c-1.25,1.09-30.29,27.33-19.16,89.17,5.19,28.82-3.36,40.87-14.19,56.12-11.35,16-25.49,35.93-26.58,81.69-2.22,92.73-37.64,229.7-64.23,248.4Z"/><path class="cls-7" d="M144,1473.48c-2.8-6.33-5.69-12.88-9-19.79-16.91-35.69-31.89-41.57-56.7-51.31-6.07-2.38-12.94-5.08-20.49-8.47-35.54-16-28.66-39.52-22.59-60.29.85-2.9,1.7-5.8,2.43-8.67,3.13-12.21-2.88-18.34-12-27.62-6.76-6.9-15.17-15.48-21.65-29-7.1-14.83-3.48-22.79.8-26.85,9-8.54,29.81-7,49.45,3.75,6.1,3.33,11.12,8.59,16.43,14.15,12.52,13.11,28.09,29.42,67.49,29.6,22.46.11,34.76,3.21,41.14,10.37,7.23,8.13,5.86,20.29,4,37.13-.66,5.82-1.39,12.42-1.84,19.55-2.68,42.55,22.43,73.25,22.68,73.54,15,17.87,33.49,54.94,25.52,77.76-3.35,9.57-10.83,15.59-22.24,17.89a63.16,63.16,0,0,1-12.51,1.36C167.36,1526.55,157.28,1503.7,144,1473.48Zm-92-224C34.39,1239.93,15.59,1238,8.19,1245c-5.62,5.33-3,14.46.24,21.18,6.14,12.82,13.89,20.73,20.74,27.71,9.51,9.71,17,17.38,13.21,32.27-.74,2.92-1.61,5.87-2.47,8.83-6,20.68-11.76,40.22,19.9,54.45,7.44,3.34,14.25,6,20.26,8.37,25.05,9.83,41.6,16.33,59.34,53.78,3.3,7,6.21,13.54,9,19.91,15.31,34.7,24.55,55.65,58,48.89,9.6-1.94,15.85-6.89,18.58-14.71,7-20.11-9.79-55.32-24.64-73-1.09-1.31-26.63-32.44-23.82-77,.46-7.25,1.2-13.92,1.86-19.8,1.75-15.57,3-26.83-2.77-33.32-5.29-5.94-16.85-8.63-37.5-8.73-41.48-.2-57.85-17.34-71-31.12-5.26-5.51-9.81-10.27-15.24-13.23Z"/><path class="cls-8" d="M206.9,1554.81l4.89-.26c-.24-4.59-6.41-112.85-49.87-144.53-47.69-34.77-62.73-72.12-69.89-97.2-8.44-29.54-51.39-37.44-53.21-37.76l-.85,4.82c.42.07,41.76,7.69,49.35,34.29,7.36,25.77,22.8,64.15,71.71,99.8C200.64,1444.3,206.84,1553.71,206.9,1554.81Z"/><path class="cls-9" d="M198.63,1579.16c-10.23-5.09-9.86-25.57-9.3-56.57.71-39.18,1.68-92.82-18.82-142.17-21.79-52.42-2.36-67.74,16.43-82.56,21-16.59,40.92-32.26,2.77-103-17.52-32.49-23.08-54.47-17.5-69.17,5.51-14.52,21-20.18,37.35-26.18,28.26-10.34,60.3-22.06,56.16-81.88-1.27-18.34.89-29.62,6.79-35.49,6.4-6.38,15.85-5.69,26.78-4.89,16.51,1.21,35.22,2.57,51.52-18.69,1.7-5.31,17.28-52.74,35.92-60.86a13.16,13.16,0,0,1,11.4.06h0C411,903.9,418.47,911.2,421,920.06c4.34,15.42-6.95,32.8-20,52.93-20.55,31.64-43.84,67.49-19.68,110.16,31.93,56.41,15.06,76.16-8.28,103.48-13.37,15.66-28.53,33.4-38.66,62.34-8.15,23.27,5.75,45.47,19.19,66.93,16.87,26.92,34.31,54.76-2.41,78.91-60.71,39.94-120.66,170.32-121.26,171.63l-.25.54-.46.37c-11.19,8.76-19.33,13-25.46,13A11.15,11.15,0,0,1,198.63,1579.16Zm149.78-188.44c32.72-21.52,18-45,.95-72.22-13.4-21.4-28.59-45.65-19.67-71.15,10.44-29.8,25.91-47.92,39.57-63.9,22.87-26.77,38-44.46,7.74-97.89-25.62-45.25-.42-84.06,19.83-115.23,12.43-19.14,23.16-35.66,19.42-48.94-2.09-7.43-8.71-13.71-20.23-19.23h0a8.43,8.43,0,0,0-7.34,0c-17.29,7.54-33.17,57.75-33.33,58.25l-.12.41-.26.34c-18,23.74-39.08,22.19-56,21-10.14-.74-18.14-1.33-23,3.48s-6.5,15.09-5.36,31.68c4.4,63.49-31,76.43-59.36,86.82-16,5.84-29.74,10.89-34.46,23.32-5,13.27.45,34,17.24,65.11,40.1,74.36,17.66,92.06-4.05,109.18-18.15,14.32-35.3,27.84-14.94,76.83,20.9,50.29,19.91,104.53,19.2,144.13-.49,27-.88,48.39,6.58,52.11,4.37,2.17,12.72-1.5,24.83-10.92C230.49,1553.31,287.91,1430.53,348.41,1390.72Z"/><path class="cls-10" d="M102.81,1010.92c30.9-10.59,24.48,49,37.53,93s145.23,19.22,89.75,129.55,70.17,36.89,32.64,133.17-3.27,199.25-44.06,173.06-22.92-147.43-65.35-161.84S104,1346.67,146,1307.51s-110.08-78-72.54-157.13S67.11,1023.16,102.81,1010.92Z"/><path class="cls-11" d="M204.45,1533.39c3.88-16.48,37.06-161.52,6.1-179.06-27.28-15.45-26.61-75.55-22.35-132.31,3.76-50.24-60.76-73.73-63.51-74.7l-1.64,4.61c.64.23,63.75,23.22,60.26,69.72-4.37,58.29-4.84,120.14,24.83,136.94,23.51,13.31,1.87,129.89-8.46,173.68Z"/><polygon class="cls-12" points="321.02 1481.74 276.9 1649.1 178.33 1649.1 134.22 1481.74 321.02 1481.74"/><path class="cls-13" d="M321,1481.74S223.91,1500,223.91,1649.1H178.33l-44.12-167.36Z"/><rect class="cls-14" x="1221.81" y="78.88" width="387.53" height="349.02" rx="48.23"/><rect class="cls-4" x="1398.74" y="361.89" width="30.73" height="5.69"/><path class="cls-4" d="M1507.68,142v5.57h32.78v30.76H1546V142Zm-222.55,36.33h5.56V147.61h32.77V142h-38.33Zm255.33,158.72v30.77h-32.78v5.56H1546V337.09Zm-249.77,0h-5.56v36.33h38.33v-5.56h-32.77Z"/><rect class="cls-4" x="885.74" y="622.65" width="41.05" height="7.6"/><path class="cls-4" d="M1029.3,329v7.44h43.77v41.08h7.44V329ZM732,377.52h7.44V336.44h43.78V329H732Zm341,212v41.1H1029.3v7.43h51.21V589.52Zm-333.61,0H732v48.53h51.22v-7.43H739.46Z"/><path class="cls-15" d="M1835.72,862.33h-68.48c-4.51-32.79-10-70.22-10-70.22s-2.76,30.89-6.13,70.22H1477c-2.49-35.37-5.51-61.83-6.59-62.38-1.58-.78-11.35,30.59-19.46,62.38h-74.19c19.08-82.19,54.67-214.06,75.24-222,29.29-11.26,148.73-48.07,148.73-48.07h68.15s121.12,34.56,132.39,72.12C1810.23,694.36,1830,793.09,1835.72,862.33Z"/><path class="cls-16" d="M1638,371.19s63.64,10,54,109.6S1626,572.2,1622.29,572.1s-56.39,1.82-60.5-119.76C1561.79,452.34,1560,362.44,1638,371.19Z"/><path class="cls-16" d="M1667.66,542.78s-1.75,41,2.22,49.82-52.52,37.34-87,5.61c0,0,8.32-44.51,6-60.29S1667.66,542.78,1667.66,542.78Z"/><path class="cls-16" d="M1692.89,452.66s7-7.44,9.52.1-10.81,41.2-9.94,42.72c0,0-1.27,2.92-2.94,1.31S1692.89,452.66,1692.89,452.66Z"/><path class="cls-16" d="M1562.51,451.4s-6.82-7.57-9.52-.09,10,41.41,9.11,42.91c0,0,1.21,2.94,2.92,1.37S1562.51,451.4,1562.51,451.4Z"/><path class="cls-17" d="M1692.86,467.94l-9.12,12.18s.26-26.71-1.2-30.89-3.7-17-4.92-20-54.65-18-101.85,4.37c0,0,2.08,19.2-2.45,20.91s-2.3,31.28-2.3,31.28l-7.49-8.45s-11.47-76.61-8.64-84.6,11.86-56,108.68-27.49c0,0,30.19-6.39,36.24,14.45S1692.86,467.94,1692.86,467.94Z"/><path class="cls-16" d="M1669.88,592.6s14.35,3.06-45.74,60.65c0,0-42.61-47.15-41.23-55S1669.88,592.6,1669.88,592.6Z"/><polygon class="cls-18" points="1624.14 653.25 1640.54 681.29 1689.19 598.7 1668.12 584 1624.14 653.25"/><polygon class="cls-18" points="1624.14 653.25 1584.35 589.93 1561.79 604.42 1602.24 681.29 1624.14 653.25"/><path class="cls-18" d="M1611.81,828.67c.49,9.34.71,20.79.73,33.66h-2.25c0-12.81-.24-24.24-.73-33.55-3.69-70.25,13.33-155.73,13.43-175.76l2.2.44C1625.08,673.49,1608.12,758.72,1611.81,828.67Z"/><path class="cls-19" d="M1594.84,560.38s15.12,16,36.48,11.73,30.84-14,30.84-14-8.43,21.14-33.13,23.07S1594.84,560.38,1594.84,560.38Z"/><path class="cls-20" d="M857.42,331.82h-.15c-1.43-.35-3.71-7.24-4.15-8.61-.1-.38-.33-1.07-.64-2-1.78-5.51-6-18.42-4.33-23.36.52-1.56,1.32-2.47,2.38-2.69,2.29-.47,4.9,2.43,5,2.56l.05.06v.08c.6,5.43,3.49,32.57,2.24,33.82A.58.58,0,0,1,857.42,331.82Zm-6.36-36.22a2,2,0,0,0-.42,0c-.87.18-1.54,1-2,2.33-1.57,4.78,2.72,18,4.33,23,.32,1,.54,1.66.65,2,1,3.29,2.92,8,3.77,8.25a.06.06,0,0,0,.07,0c.8-1.08-1-21-2.38-33.31C854.74,297.59,852.79,295.6,851.06,295.6Z"/><path class="cls-21" d="M904.73,223.61s35-3.68,47.66,30.16,24.5,44.9,26,62.68c6,71.88,39.59,55.62,30.15,97.06s-16,47.71-16,47.71l-80.26-15.74-81.3.26S862.8,429.86,855.72,396,831,306.74,841,269,883.79,226.49,904.73,223.61Z"/><path class="cls-20" d="M947.52,331.82a.6.6,0,0,1-.43-.18c-1.25-1.25,1.65-28.39,2.24-33.82v-.08l.06-.06c.11-.13,2.72-3,5-2.56,1.07.22,1.87,1.13,2.38,2.69,1.63,4.94-2.55,17.85-4.33,23.36-.31,1-.53,1.65-.63,2-.45,1.38-2.72,8.27-4.16,8.62ZM949.84,298c-1.34,12.35-3.17,32.23-2.37,33.31a.06.06,0,0,0,.07,0c.84-.21,2.71-5,3.77-8.26.11-.37.33-1.07.64-2,1.62-5,5.91-18.26,4.33-23-.45-1.37-1.12-2.15-2-2.33C952.47,295.26,950.22,297.56,949.84,298Z"/><path class="cls-22" d="M1069.45,546.82h-50c-10.37-18.9-18.79-33.68-18.79-33.68s-6.74,12.3-12,33.68H820.32a145.36,145.36,0,0,1-2.19-35.22s-9,16.25-19.44,35.22H742.13c15-28.1,43.14-79.28,49.53-86,8-8.4,54.54-40.56,87.76-51.05s52.11-.36,52.11-.36,34.11,6.14,65.66,18.65C1009.59,433,1043.85,496.29,1069.45,546.82Z"/><path class="cls-23" d="M909.35,243.39s46.4,6.7,39.61,75.19-47.75,63.06-50.48,63-41.08,1.42-44.4-82.15C854.08,299.43,852.54,237.62,909.35,243.39Z"/><path class="cls-23" d="M930,369.43s-2.87,35.63,4,46.3-5.87,25.16-32.1,20.21-24.71-19.83-24.71-19.83,7.35-22,5.2-39.58S930,369.43,930,369.43Z"/><path class="cls-21" d="M904,268.22s21.68,22.79,31.75,34.33S947,336.38,947,336.38s17-20.72,9.87-44.85S933,220.46,890.52,234.88s-44.06,77.9-39.07,109.37C851.45,344.25,870.52,274.77,904,268.22Z"/><path class="cls-23" d="M946.26,412.59s-32.18,81.49-51.74,95.66c0,0-25.69-83.12-23.89-95.29C870.63,413,909.38,397.77,946.26,412.59Z"/><path class="cls-21" d="M878.26,392.88s-57.36,51-42.47,82.87c12.7,27.18,57.75,10.51,50.32-18S878.26,392.88,878.26,392.88Z"/><path class="cls-24" d="M885.76,378.48s19.77,9.34,39-4.46a25.1,25.1,0,0,1-19.51,12.6C891.1,388.19,885.76,378.48,885.76,378.48Z"/><path class="cls-25" d="M1394.87,190s-19,71.6-23,87.73c-1.18,4.86-5,13.26-9.83,22.84,0,.07-.07.14-.12.22a18.1,18.1,0,0,0-1.78,5.82c-.77,6,1.52,10.67-2.45,17.75l-.72,3h-37.65c4.4-13.05,10-29.66,14.44-43,3.74-11.29,6.7-20.27,7.49-22.87,2.33-7.77,10.86-32.92,18.12-49.61,2.53-5.82,12.28-11.57,20.92-15.73C1388,192.37,1394.87,190,1394.87,190Z"/><path class="cls-26" d="M1369.67,87.69S1357.67,10,1422,11.47s63.45,39.83,62.31,77.94-25.79,35.24,2,88.25-24.07,53-24.07,53L1422,175.37Z"/><path class="cls-20" d="M1415,18.92s-43.56,6.88-45.28,68.77,11.75,75.07,49.86,62.18,50.14-77.65,51-87.68S1473.68,11.47,1415,18.92Z"/><path class="cls-27" d="M1491.43,234.19c.16,21.3-24.32,72.25-28.1,88-.45,1.83-.93,3.52-1.41,5.11H1343.06c-.61-7.34-1.19-13.62-1.48-17.16-.95-11.63-12.73-36.69-12.34-48.36.41-11.89,6.25-22.15,14.41-34.85,2.53-3.93,5.2-7.93,7.85-11.83,8.65-12.7,17.29-24.23,21.54-28.2a68.6,68.6,0,0,1,8.67-6.91l0,0a40.16,40.16,0,0,1,8.93-4.7l37.43-6s23.33,8.45,36.76,11.58C1464.85,180.85,1491,184.69,1491.43,234.19Z"/><path class="cls-27" d="M1381.73,180,1360,214.16l-20,31.56c0-.17,1.38-4.95,3.64-18.79.43-2.63.9-5.58,1.39-8.89a22.53,22.53,0,0,1,.63-2.91h0c8.57-19.76,35.07-34.66,36-35.15Z"/><path class="cls-20" d="M1444,122c-3.77,7.13-7.76,51.38-7.76,51.38s-53.27,20.13-47.82,8.75c2.48-5.17,3.2-11.88,3.25-17.66a84,84,0,0,0-.59-10.75c-.14-1.17-.24-1.84-.24-1.84S1447.81,114.86,1444,122Z"/><path class="cls-26" d="M1397.18,63.33s22.35,36.39,42.69,50.72,10,25.79,10,25.79S1503,28.09,1452.52,20.35s-81.41-8.31-82.85,67.34C1369.67,87.69,1392.6,62.76,1397.18,63.33Z"/><path class="cls-28" d="M1421.48,149.15c-8.17,12.06-29.77,15.31-29.77,15.31h0a84,84,0,0,0-.59-10.75C1405,156.38,1421.48,149.15,1421.48,149.15Z"/><path class="cls-29" d="M1345.76,214.9h0s-1.16,2.39-2.11,12l7.85-11.84s14-20.09,18.81-25.31a79.08,79.08,0,0,1,11.4-9.8S1354.14,193.22,1345.76,214.9Z"/><path class="cls-27" d="M1451.76,244.86s34.19-13.41,44.31-14.19c0,0-6.88-54.91-40.47-49.09S1451.76,244.86,1451.76,244.86Z"/><path class="cls-20" d="M1390.65,175.26s-25.1,38.59-16.6,42,54.49-4.49,74-41.15C1448.1,176.07,1418.86,161.07,1390.65,175.26Z"/><path class="cls-25" d="M1496.07,230.67c-1.74,30.26-10.33,59-17.41,85.31-1,3.82-2,7.6-3,11.31H1406.1c-.17-10.43-.13-19.64.19-27.32,3.51-84,30.13-128.17,30.13-128.17s8.5,2.86,33,9.79c16.77,4.74,23.1,26.07,25.41,39l0,.16A91.42,91.42,0,0,1,1496.07,230.67Z"/><path class="cls-25" d="M1390.64,175.28A200.93,200.93,0,0,0,1380.29,196c-8.25,18.91-18.54,48.85-19.42,81.83-.27,10.59-2.38,27.75-5.57,49.42h-13.9a221,221,0,0,0-7.64-43c-1.9-6.76-3.65-11.8-4.59-15-4.43-15.07,9.74-35.14,14.48-42.33S1359.76,186.77,1390.64,175.28Z"/><path class="cls-25" d="M1518.24,327.29h-37.38c0-2.43-.84-6.4-2.2-11.31-6.8-24.13-26.9-71.13-26.9-71.13s-30.07-49.15-1.57-61.67,40.77,22.48,44.6,37.41l0,.16C1495.76,224.32,1512.73,289,1518.24,327.29Z"/><path class="cls-20" d="M908.62,1028.05s13.06-.18,17.71-5.21,12.87-9.55,15.5-10.83c3.53-1.71,13.27-11.19,14.49-6.56s-15.51,16.36-18.7,19.53,13.91,4.55,16.42,7.62-6.22,35.43-17.61,32.92-20.72-14-22.88-14-8.41-1.44-8.41-1.44Z"/><path class="cls-20" d="M951.61,1031.28s34,10.39,35.41,13.33.45,5.1-2.79,4.28-33.29-8.9-33.29-8.9,37.16,20.31,38.84,22.35c1,1.19-.66,5.44-2.46,5.19s-40.05-17.79-40.05-17.79,34.65,19,35.52,21.31c.75,2-1.57,5.62-4.26,4.43s-36.08-16.64-36.08-16.64,24.14,15.82,23.77,18.42c-.23,1.59-1.5,5.31-7.58,1S937,1065.61,937,1065.61Z"/><path class="cls-30" d="M837.1,1601.64S848,1618,863.31,1621.49s30.37,9.13,30.48,18.79-44.24,15.41-61.74,5.67c-26.14-14.52-28.79-10.14-31.69-17.41s3.48-26.68,3.29-29C803.42,1596.7,837.1,1601.64,837.1,1601.64Z"/><path class="cls-31" d="M835.4,1593.59s2,7.88,1.7,8.05-34.48,4.24-33.45-2.09c.84-5.13,2-10.7,2-10.7Z"/><path class="cls-30" d="M622.45,1600.56s7.78,15.61,21.07,20.93c14.21,5.68,25.61,12.21,25.35,21.62s-34.74,18.94-59.82.89c-15.85-11.41-20.88-11.47-23.42-18.65s4.42-25.85,4.32-28.11C589.84,1594.45,622.45,1600.56,622.45,1600.56Z"/><path class="cls-31" d="M622.83,1592.45s-.09,8-.38,8.11-33.34,2.87-32.5-3.32a51.22,51.22,0,0,1,3.21-10.86Z"/><path class="cls-32" d="M744,1115.59s43.39,166.24,59.91,204.67c15.31,35.61,20.36,85.4,22.47,110.41,2.65,31.46,18.43,154,20.29,163.16s-51,5.09-51,5.09S759.11,1387.11,744,1356.2c-10.11-20.63-68.75-168.55-75.46-160s-15,156.73-20,181.33-20.23,219-20.23,219-34.11,5-43.22-2.68c0,0-4.14-166-1-212.12,1.21-17.58-20.6-210.78,7.36-288.56C606.23,1052.05,744,1115.59,744,1115.59Z"/><path class="cls-33" d="M502.27,996.38c0,1.9,3.59,9.5,9.32,20.44,8.38-16.76,15-30.53,17.12-35.59,7.06-16.68,43.45-54.91,43.45-54.91a.32.32,0,0,0,0,.08.11.11,0,0,0,0,.05s0,0,0,0a.75.75,0,0,1,0,.16c0,.09.06.19.09.32l.06.2c0,.06,0,.1,0,.16,2,7.38,14.15,53.52,14.6,76.25.49,24.74,7,70.52,7,70.52h0l7.6,1.07,16.81,2.37,2,.28,4.89.69,44.59,6.27,15.81,2.22,2.14.31,9,1.27,25,3.51,6.36.89h.06l4.77.67,6.59.93h0c.18-.24,6.41-8.77,5.45-27.72-.62-12.23-2.09-35.21-1.48-56.53,0-.11,0-.22,0-.33,0-.27,0-.53,0-.81a2.44,2.44,0,0,0,0-.27v0c.39-11.72,1.42-22.82,3.61-31.25a131.63,131.63,0,0,0,3.1-16.66c0-.27.06-.52.09-.77.11-1,.22-2,.31-2.92a146.63,146.63,0,0,0,.23-26.7l0,0c.45,1,3.71,12.91,8,27.63,7.21,24.9,17.3,57.78,21.61,59.36,6.25,2.3,107.55,32.31,129.43,35.38,2.53.36,4,.35,4.13-.1s.21-.65.31-1c2.66-8.76,6.31-23.65,6.89-26.06.06-.21.09-.33.09-.33l-3.92-1.18-110.22-33L756.94,846c-1.06-.84-13.43-6.83-22.47-11.13-9.21-4.39-20.33-10.83-30.39-16.35-5.13-2.8-10-5.37-14.18-7.29l-.64-.29h0l-11.55-5.27h0l-3-.29c-9.68-.92-39.76-3.74-49.83-4.33-.83,0-1.53-.09-2.07-.1s-.8,0-1,0c-1.28.07-7.47,2.24-15.62,5.34h0l-.93.35-1.15.44-2.16.83-4.47,1.75-1.59.63c-16.31,6.47-35,14.47-39.43,17.66-2.93,2.1-12.06,19.32-22.65,40.61-13.64,43.69-30.93,110.57-31.47,127.07C502.28,995.89,502.27,996.14,502.27,996.38Z"/><path class="cls-34" d="M739.64,1094.58s3.36,4,4.33,21c0,0-137.93-16.09-152.52-22.44,0,0-.57-18.72,2.53-19.05C597.37,1073.74,739.64,1094.58,739.64,1094.58Z"/><path class="cls-20" d="M622,796.27c.43,21.65,42.34,33.49,42.34,33.49s17.53-22,13.34-24.09c-1.64-.82-2.31-4.1-2.51-7.78a75.19,75.19,0,0,1,.24-9.82c.12-1.53.24-2.52.24-2.52s-6-6.32-13.61-13.84c-13.31-13.17-31.61-30-31.64-23.32a5.84,5.84,0,0,0,.15,1.27C633.79,764.76,622,796.27,622,796.27Z"/><path class="cls-30" d="M625.49,1077.42s-3,19-3.27,23.93l-6.38-1.27s1.76-20.08,2.79-23.45Z"/><path class="cls-30" d="M728.14,1092.37s2.41,17.25,2.47,23.77l-6.75-.88s-1.38-21.55-2.15-23.8Z"/><path class="cls-28" d="M638.16,764.55h0c.09.13,1.86,2.79,4.9,6.61,6.43,8.09,18.53,21.39,32.13,26.73a75.19,75.19,0,0,1,.24-9.82,22.61,22.61,0,0,0,4.16-.5,128.29,128.29,0,0,0-9.12-13.35l-8.41-2.51Z"/><path class="cls-20" d="M630.11,748.68c3.63,7.89,7.07,13.61,8,15.87h0a28.22,28.22,0,0,0,4.9,6.61c6.9,7.44,19.74,17.25,32.37,16.91a22.61,22.61,0,0,0,4.16-.5c5.09-1.12,11.11-3.48,14.42-10,26.15-51.19,7.22-93.06,7.22-93.06s-71.5-20.22-82.68,1.31C610.7,700.94,621.59,730.15,630.11,748.68Z"/><path class="cls-35" d="M701.23,684.54s6.64-.37,8.28-12.95-1.66-15.89-1.66-15.89-29.51-12.36-40.11-14-36.67-3.15-42.78,3.83c0,0-14.84-3.45-18.88,21.2-6.42,39.09,21.86,77.05,21.86,77.05s-.24-25.54,5.39-28.92,10.49,4.66,10.49,4.66l11.52,2.07s-17.49-37.79,3.5-39.19S689.21,686.73,701.23,684.54Z"/><path class="cls-20" d="M643.51,709.38c-1.1-11.25-21.45-15.55-20.08-3.75s11.38,23.12,16,22.72S644.34,718,643.51,709.38Z"/><path class="cls-36" d="M511.59,1016.82c8.87,16.91,22.85,41.79,36.66,65.91q-2.73,5.1-5.29,10.09a201.17,201.17,0,0,0-10.46,23.32c-3.15,8.81-7.52,31.4.85,35.59l44.13,24.36s.3-.86.89-2.46c1.46-4,4.63-12.44,9-23.42.14-.35.58-1.4,1.24-2.94.87-2.07,2.14-5,3.58-8.4.65-1.52,1.34-3.11,2-4.75l2.45-5.72c1.2-2.8,2.4-5.58,3.51-8.15l5.36-12.47c.15-.32.3-.64.44-1q2.16-4.66,4.41-9.33c2.32-4.81,4.71-9.6,7.15-14.29.24-.48.49-1,.74-1.42.43-.83.87-1.65,1.31-2.46l.81-1.5.18-.33.33-.59c12.76-23.27,27.12-42.73,31.71-71.26q.66-4.14,1.26-8.21c.66-4.53,1.27-9,1.83-13.39.21-1.66.42-3.29.61-4.92,2.3-19,3.67-36,4.78-47.81,3.45-36.81-19.1-76.67-36.4-101.29a272,272,0,0,0-18.51-23.64s-.06-.07-.09-.09l-.93.35-1.15.44-2.16.83-4.47,1.75-1.59.63c-16.76,6.57-52.06,16.28-56.5,19.47-2.56,1.83-8.3,18.63-14.92,39.85-13.64,43.69-21.73,109.57-22.13,126,0,.26,0,.51,0,.75C502.27,998.28,505.86,1005.88,511.59,1016.82Zm67.05-8.22c0,8.21-2.67,17.61-6.77,27.63l-.32.75c-2.83-6-5.49-11.81-7.88-17.17v0c-6.57-14.7-11.07-26.16-11.32-30.7-1.63-29.14,19.84-62.69,19.84-62.69a.11.11,0,0,0,0,.05s0,0,0,0a.75.75,0,0,1,0,.16,1.68,1.68,0,0,1,.09.32l.06.2c0,.06,0,.1,0,.16C576.83,944.65,578.64,1008.6,578.64,1008.6Z"/><path class="cls-37" d="M662.45,1118.41l-125.77,56a14.1,14.1,0,0,1-18.62-7.14l-34.43-77.36a14.1,14.1,0,0,1,7.15-18.62l125.77-56a14.1,14.1,0,0,1,18.62,7.15l34.43,77.36A14.09,14.09,0,0,1,662.45,1118.41Z"/><path class="cls-36" d="M689.57,811.5s5.9,19.64,13.53,68.65v0c.27,1.65.52,3.32.78,5l.09.6c.17,1.13.35,2.28.52,3.45l.06.4c.12.79.24,1.57.35,2.37q.42,2.91.86,5.92c3.4,23.86,8.18,64.46,12.76,105.45v0c3.63,32.31,11.9,65.46,14.52,90.2a.43.43,0,0,0,0,.05,171.49,171.49,0,0,0,3.43,18.6c.19.83.38,1.66.58,2.51,7.39,31.23,21.74,75.43,21.74,75.43l4.18-3.86,12.38-11.43a10,10,0,0,0,2.78-10.35c-6.86-22.15-30.19-100.53-34.47-155.64v0c2.1-19.37,7.46-45.35,6.65-49.09.06.13.1.27.15.41,2.46,6.83,5.18,14.26,7.92,21.49h0c7.37,19.42,14.9,37.42,18,38.56,7,2.57,132.39,39.57,133.3,34.41.09-.52.19-1.08.32-1.66s.24-1.18.37-1.81c1.55-7.07,4.36-17.21,6.32-24,.29-1,.57-2,.81-2.8.82-2.83,1.36-4.63,1.36-4.63l-106-34.8L759.35,845c-1.05-.83-14.71-8.18-23.75-12.48-9.41-4.49-21.32-10-31.88-14.89-5.05-2.34-9.8-4.52-13.82-6.36Z"/><path class="cls-38" d="M617.77,860l20.39,11.5-8.71,8.88,23.19,125.25c4.73-29.36,6.89-57.24,8.49-74.33,5.33-56.9-51.46-121.09-55-125-2.72,1-5.67,2.17-8.72,3.38Z"/><path class="cls-38" d="M689.26,811s7.62,24.88,16.5,87c3.4,23.86,8.18,64.46,12.77,105.45l4.74-117.3-9.71-10.52,8.63-10.79L703.72,817.6c-5.05-2.34-9.8-4.52-13.82-6.36Z"/><path class="cls-39" d="M605,806.72l17-10.45s.47,9.27,42.34,33.49l-11.89,33.49Z"/><path class="cls-39" d="M675.5,800.94s-.66,10-11.14,28.82L687.57,860,689.26,811Z"/><path class="cls-22" d="M664.3,829.76s-4.5,18-2.88,23c0,0,9.89,3.6,17-.9C678.42,851.88,673.38,839.29,664.3,829.76Z"/><path class="cls-40" d="M687.55,1089.2c2.51-12.69.12-50.72,0-52.34l-2.15.14c0,.39,2.48,39.36,0,51.78Z"/><path class="cls-41" d="M669.94,1083.35s20.29,2.42,27,4.1l-.88,22.75-26.57-2.84Z"/><path class="cls-22" d="M674.38,850.27S697,907.43,693.32,971.41c-3.83,66.34-10.11,90.4-10.11,90.4l-14,17.5-6.16-21.51s18.73-84.58,6.64-166.88c-2.19-14.91-5.44-43.17-5.44-43.17Z"/><path class="cls-20" d="M606.36,1120.23s4.86,9.71,9.71,11.33,11.94,9.51,11.94,9.51l-34.2,18s-9.1-17.8-9.51-29.14S606.36,1120.23,606.36,1120.23Z"/><path class="cls-33" d="M609.61,1121.14l2.26,4.55s-21.72,15.89-27.57,16.9l-2-6.07Z"/><path class="cls-36" d="M611.87,1121.34s-16.28,13.46-30,19.67l-61.45-107.76,39.22-21.44S610.79,1113.24,611.87,1121.34Z"/><path class="cls-32" d="M749.68,930.79c.75,15.36.64,29,.64,29h0c0,.08,0,.49.06,1.18,0-.27.06-.52.09-.77,2.46,6.83,5.18,14.26,7.92,21.49a228.86,228.86,0,0,0,.62-23.43c-1.1-43-14.64-65.61-14.64-65.61C747.48,900.15,749,916.25,749.68,930.79Z"/><path class="cls-20" d="M1283.66,788.89s-.64-7.91.29-11.6c1.61-6.38-.76-16.7,7.26-21.71s31.07,16,32.88,21.83-6.8,15.85-24.83,24.24S1283.66,788.89,1283.66,788.89Z"/><path class="cls-20" d="M1288.75,757.66A274.89,274.89,0,0,1,1306.81,734c9-10.5,21.67-22.27,24.34-20,4,3.39-7.43,11.86-15.66,22.87-7.57,10.13-4.36,9.41-4.36,9.41s-.93.16,9.5-9.27c11.22-10.14,23.69-20.56,25.91-18.77,2.76,2.22,2.91,2.73-.55,7.08,2.53-2.07,3.47-1.67,4.44-.69,5,5.08-9.07,22.55-14.68,29.49,4.34-5.3,8.1-8.72,9.19-3.62,1.24,5.83-19.86,29.63-26.59,38.89C1311,799.44,1288.75,757.66,1288.75,757.66Z"/><path class="cls-42" d="M1019.12,1598.68s21.93,13,31.86,17.79,48.53,6.2,52.34,9.82,2.42,15.16-4,16.34-53.3,5.42-68.95,1.76-44.92,2.5-51.41.3-2.3-37.15.21-45S1019.12,1598.68,1019.12,1598.68Z"/><path class="cls-43" d="M1020.94,1584.39l-1.82,14.29s-29.33,5.48-38.22,1l2.2-14.84Z"/><path class="cls-44" d="M1138.6,1096.33c-.31,9.89-2.12,31.36-4.22,53.9-.46,5-1,10.08-1.44,15.08-2.93,30.34-5.88,58.4-5.88,58.4-3.7,24.15-11.34,66.08-19.89,97.78h0c-2.46,9.15-5,17.45-7.54,24.22-2.47,6.59-5,11.74-7.37,14.82-18.17,23.22-59.84,229-59.84,229l-56.88-.44s12.51-139.37,25.08-174.69c14-39.46,38.4-92.63,32.35-130.68-3.79-23.88-8.67-99.89-8.67-99.89s-4.76-85.42,17.58-148C1047.45,1020.27,1138.6,1096.33,1138.6,1096.33Z"/><path class="cls-42" d="M1179,1604s21.78,13.23,31.65,18.17,48.45,6.79,52.22,10.46,2.23,15.18-4.18,16.28-53.36,4.78-69,.94-45,2-51.4-.32-1.86-37.17.74-45S1179,1604,1179,1604Z"/><path class="cls-43" d="M1181,1589.76l-2,14.26s-29.39,5.13-38.22.51l2.38-14.82Z"/><path class="cls-44" d="M1113,1385.66c-1.48-45.52-5.5-75.77-17.21-102.06-9.84-22.09-18.26-91.45-18.26-91.45s-26.66-81.27-21.26-147.48c1.36-16.54,104.4,25,104.4,25,2.26,9.64,9.15,40,11.59,62.49,14,128.56,8.73,212.32,8.73,212.32-8,28.39,12.17,251.75,12.17,251.75h-58s-15.21-79.46-16.8-128.88C1118.33,1467.38,1112.4,1393.53,1113,1385.66Z"/><path class="cls-45" d="M1111.68,796.62s27,44.3,34.92,69,1.54,96.6,2.93,111.05c4.33,44.82,10.64,94.16,10.64,94.16l-90.59,57.87a895.43,895.43,0,0,1-30.44-85.27c-14.18-47.29-15.32-89.87-15.19-118.32.42-89.24,48.65-139.63,48.65-139.63Z"/><path class="cls-20" d="M1145,677.79s18.58,19.88,13.33,25.11c-4.34,4.32,12.74,24.13,15.17,27.46s-7.58,8.85-9.23,11.83-.68,34.17-9.28,37.38-52-.19-65.8-8.6-36-57-34.44-80.32S1112.3,643.13,1145,677.79Z"/><path class="cls-20" d="M1127.4,772.83s-.31,2.65-.74,6.76c-.16,1.72-.37,3.68-.56,5.83-.1,1.27-.21,2.62-.34,4,0,.37-.08.74-.11,1.11-.05.64-.1,1.27-.15,1.93-.22,3-.43,6.1-.59,9.17-.39,7.92-.45,15.5.4,19.71,2.28,11.56-47.48-37.19-47.48-37.19a570,570,0,0,0,2.17-80.31C1077.94,661.34,1127.4,772.83,1127.4,772.83Z"/><path class="cls-46" d="M1148.78,682.16s8.79-20.73-18.31-35.12c-31.91-16.95-65.73,25.59-70.22,28.1s-24.88,25.45-4.92,55.88c25.18,38.4,23.86,37.11,23.86,37.11s2.52-28.32,2.36-33.79c-.31-10,25.9-11.17,25.9-11.17s-10.76-14.32,1.2-20.75S1134.6,680.75,1148.78,682.16Z"/><path class="cls-20" d="M1093.69,719.54c-1.91-2.68-8.91-14.51-17.91-4.12s15.14,29.82,17.13,29.63S1109.74,742.09,1093.69,719.54Z"/><path class="cls-47" d="M1165.11,1089.94s-4.51-21.19-5.38-24.36l-132.48,22,1.36,17.13S1124.06,1099,1165.11,1089.94Z"/><path class="cls-22" d="M1015.46,996.58s20.35,87.89-11.52,190.43c-3.89,12.52,88.23-2,88.23-2Z"/><path class="cls-22" d="M1132.48,1178.62s-65.43,14.36-83.81,7.87c0,0-26.74-97.28-36.07-196q-1.08-11.46-1.83-22.86v0c-5.21-80.33,15.24-161.82,61.83-182.09,1.31.89,66.92,58.74,65.68,111.69-.09,3.58-.14,7.18-.17,10.78,0,6.51,0,13,.15,19.55h0c.42,20.15,1.66,40.24,3.44,59.75.18,2,.38,4.07.58,6.08q.48,4.92,1,9.77.69,6.48,1.46,12.83C1155.34,1104.32,1132.48,1178.62,1132.48,1178.62Z"/><path class="cls-48" d="M1129.79,835.31a727.71,727.71,0,0,1,17,110.2c3.93,51.38,9.18,87.7,9.18,87.7l7.87,25.44,3.23-24.53s-2.89-66.3-6.73-93.27c-3.88-27.19-5.58-61.71-27.31-106.49Z"/><path class="cls-48" d="M1128.42,835.35a7.25,7.25,0,0,0,3.59,1.73c2.1.32,5.11-3-5.64-17.23Z"/><path class="cls-49" d="M1078.41,778.17s30.47,28.69,48.6,35l3.46,27.49L1072.6,785.5Z"/><path class="cls-22" d="M1098.86,889.26c-12-4.27-61.92-28.5-48.64-56.78s47.49-13.24,73.25-1.74c27,12,90.58,49,95.62,45.59s27-34.94,31-42,28-51.88,30.26-55.26,37.11,26,37.11,26-62.66,111.28-79.52,129S1098.86,889.26,1098.86,889.26Z"/><path class="cls-42" d="M1107.17,1321.49h0c-2.46,9.15-5,17.45-7.54,24.22h0l-19.84-118.35C1084.8,1238.58,1107.17,1321.49,1107.17,1321.49Z"/><path class="cls-50" d="M1138.26,927.52l-57.41-46.9c15.21,8.15,52.58,25.22,57.26,27.35C1138.07,914.48,1138.12,921,1138.26,927.52Z"/><path class="cls-28" d="M1126.66,779.59c-.16,1.72-.37,3.68-.56,5.83-.1,1.27-.21,2.62-.34,4-19-1.27-33.73-16.43-34.63-17.36C1098.87,778.21,1126.66,779.59,1126.66,779.59Z"/><g class="cls-51"><polygon class="cls-52" points="1872.21 343.47 1902.35 343.47 1893.13 324.33 1862.98 324.33 1872.21 343.47"/><polygon class="cls-53" points="1858.11 343.47 1865.29 343.47 1856.06 324.33 1848.88 324.33 1858.11 343.47"/><polygon class="cls-54" points="1753.97 320.68 1876.02 320.68 1871.97 311.11 1749.91 311.11 1753.97 320.68"/></g><rect class="cls-55" x="1049.58" width="51.72" height="15.59" rx="2.82"/><rect class="cls-56" x="1049.58" y="37.38" width="51.72" height="15.59" rx="2.82"/><rect class="cls-57" x="1049.58" y="74.75" width="51.72" height="15.59" rx="2.82"/><rect class="cls-58" x="1122.66" width="14.72" height="15.59" rx="2.82"/><rect class="cls-59" x="1122.66" y="37.38" width="14.72" height="15.59" rx="2.82"/><rect class="cls-60" x="1122.66" y="74.75" width="14.72" height="15.59" rx="2.82"/><polygon class="cls-61" points="902.28 899.46 956.39 899.46 939.83 865.11 885.72 865.11 902.28 899.46"/><polygon class="cls-62" points="876.97 899.46 889.86 899.46 873.3 865.11 860.4 865.11 876.97 899.46"/></g></g></svg>