<svg xmlns="http://www.w3.org/2000/svg" viewBox="0 0 99.61 135.55"><defs><style>.cls-1{fill:#373c44;}.cls-2{fill:#ce8282;}.cls-3{fill:#d19582;}.cls-4{fill:#e5b5a3;}.cls-5{fill:#bfd6d8;}.cls-6{fill:#a9b7b7;}.cls-7{fill:#fff;}</style></defs><g id="Layer_2" data-name="Layer 2"><g id="OBJECTS"><path class="cls-1" d="M21.37,38.16s-5-15.67,7.72-21.86S75.14,16,75.14,16,79,38,74.92,40.91,21.37,38.16,21.37,38.16Z"/><circle class="cls-2" cx="21.37" cy="45.08" r="7.82" transform="translate(-27.42 55.48) rotate(-76.67)"/><circle class="cls-2" cx="79.45" cy="45.08" r="7.82" transform="translate(-11.18 33.66) rotate(-22.39)"/><path class="cls-3" d="M60.51,73.47,59.19,56.1,45.62,58,43.4,83.36A24.52,24.52,0,0,0,60.51,73.47Z"/><path class="cls-1" d="M71.28,53.4c-.75,1.64-1.14,3.45-2,5a9.54,9.54,0,0,1-12.27,4,16.93,16.93,0,0,0-3.9-1.79,4.48,4.48,0,0,0-3.7,1C48.57,62.37,48,63.41,47,64a4.76,4.76,0,0,1-2.27.48,11.75,11.75,0,0,1-9.92-5.16c-2.14-3-3.48-6.53-6.08-9.18a22.36,22.36,0,0,0-4.87-3.53l.06.61c.91,8.21,4.84,15.35,12.28,19.32s17.65,5.4,25.6,2.13A23.77,23.77,0,0,0,75.18,55.48a34.51,34.51,0,0,0,1.93-7.37A9.74,9.74,0,0,0,71.28,53.4Z"/><path class="cls-4" d="M77.61,32.17c-1.39-27.76-24-27.35-24-27.35s-30.16-2.33-30,32.81a40.51,40.51,0,0,0,.33,8.94,22.36,22.36,0,0,1,4.87,3.53c3.72,3.79,5,9.77,9.53,12.62a12.23,12.23,0,0,0,6.12,1.71,4.75,4.75,0,0,0,3-.69A14.13,14.13,0,0,0,49,62a4.67,4.67,0,0,1,4.28-1.31A18.38,18.38,0,0,1,57,62.4a9.39,9.39,0,0,0,12.31-4c.87-1.58,1.26-3.39,2-5a9.74,9.74,0,0,1,5.83-5.29A80.77,80.77,0,0,0,77.61,32.17Z"/><path class="cls-5" d="M0,135.55S9.8,87.47,52,87.47s47.65,48.08,47.65,48.08Z"/><path class="cls-4" d="M43.4,83.36l-1,11.18s.48-.25,9.53.82,9.68-7,9.68-7L60.51,73.47A24.52,24.52,0,0,1,43.4,83.36Z"/><path class="cls-1" d="M39.57,43.22c0,1.53-.62,2.77-1.39,2.77s-1.39-1.24-1.39-2.77.62-2.78,1.39-2.78S39.57,41.68,39.57,43.22Z"/><ellipse class="cls-1" cx="63.88" cy="43.69" rx="1.39" ry="2.78"/><path class="cls-1" d="M53.49,45.08c-.56.34-1.1.68-1.62,1s-1,.79-1.06,1.12c0,.14.06.3.3.5a1.76,1.76,0,0,0,.67.42,2.26,2.26,0,0,0,1.71-.3,1.94,1.94,0,0,1-1.82.87,2.06,2.06,0,0,1-1-.45,1.29,1.29,0,0,1-.58-1.11,1.63,1.63,0,0,1,.63-1,4.6,4.6,0,0,1,.89-.54A6,6,0,0,1,53.49,45.08Z"/><path class="cls-1" d="M48.13,54.24a12.52,12.52,0,0,0,1.9,1,5.84,5.84,0,0,0,2,.47,3.91,3.91,0,0,0,2-.37,9.51,9.51,0,0,0,1.82-1.12,7,7,0,0,1-.66.91,4.5,4.5,0,0,1-.89.73,3.7,3.7,0,0,1-2.26.6A5.1,5.1,0,0,1,48.13,54.24Z"/><circle class="cls-2" cx="36.79" cy="50.93" r="2.92"/><circle class="cls-2" cx="64.9" cy="51.59" r="2.92"/><path class="cls-1" d="M59.76,38.16a5.23,5.23,0,0,1,1.8-2.38,5.74,5.74,0,0,1,2.89-1.16,5,5,0,0,1,3.1.63,5.32,5.32,0,0,1,1.22.93,5.81,5.81,0,0,1,.85,1.24,26.17,26.17,0,0,0-2.63-.7,7.39,7.39,0,0,0-2.33-.12A17.65,17.65,0,0,0,59.76,38.16Z"/><path class="cls-1" d="M42.67,37.42a7.31,7.31,0,0,0-5-1.7,16.38,16.38,0,0,0-2.67.36c-.46.13-.94.2-1.43.32a11.23,11.23,0,0,1-1.53.29,9.27,9.27,0,0,1,1.09-1.17,12.2,12.2,0,0,1,1.31-.91,7.23,7.23,0,0,1,3.17-.89,5.42,5.42,0,0,1,3.3,1A4.1,4.1,0,0,1,42.67,37.42Z"/><path class="cls-1" d="M59.65,51.05c-2.41.93-4.08-4.83-7-2.58,0,0-.11.09-.5,0v-.08l-.16,0-.16,0v.08c-.4.07-.5,0-.5,0-2.95-2.25-4.62,3.51-7,2.58,2.17,1.71,3.62,2.2,7.7.05C56,53.25,57.48,52.76,59.65,51.05Z"/><path class="cls-1" d="M76.75,36.86C73,35.85,70.13,16.33,63.88,16S37.25,35.46,26,26.48,17,6.24,19.12,5.38s3,4.62,3,4.62-.65-6,1.77-6.44,2.73,5.26,2.73,5.26-1.41-7,2.57-7.08S31,8.49,31,8.49,57.35-7.83,65.27,4.79C81.89,8.25,80.51,37.87,76.75,36.86Z"/><path class="cls-1" d="M64.9,5.71S65.92.16,67.29,0,66.1,5,66.1,5s2.34-3,3-2.14S66.09,6.47,64.9,5.71Z"/><path class="cls-6" d="M43.05,87.37l8.91,8-5,9.78s-8.61-6.81-8.19-15.93c4.84-8,4.61-5.34,4.61-5.34Z"/><path class="cls-6" d="M61.42,87.37l-9.46,8,5.57,9.78s8.61-6.81,8.19-15.93c-4.85-8-4.61-5.34-4.61-5.34Z"/><path class="cls-7" d="M53.08,105.14a1,1,0,0,1-2.08,0,1,1,0,1,1,2.08,0Z"/><path class="cls-7" d="M53.08,122.23a1,1,0,0,1-2.08,0,1,1,0,0,1,2.08,0Z"/></g></g></svg>