<svg xmlns="http://www.w3.org/2000/svg" viewBox="0 0 3823.51 1958.23"><defs><style>.cls-1{isolation:isolate;}.cls-2{fill:#caf0ff;}.cls-3{fill:#4188e4;}.cls-4{fill:#142666;}.cls-5{fill:#afdbfe;}.cls-6{fill:#fff;}.cls-7{fill:#70c0fd;}.cls-8{fill:#a2cff6;}.cls-9{fill:#b0c1ec;}.cls-10{fill:#ffc0bb;}.cls-11{fill:#f9537f;}.cls-12{fill:#3d3a55;}.cls-13{fill:#09083c;}.cls-14{fill:#e87b50;}.cls-14,.cls-33{opacity:0.3;}.cls-14,.cls-26,.cls-33{mix-blend-mode:multiply;}.cls-15{fill:#ff5b7e;}.cls-16,.cls-26{fill:#e03268;}.cls-17{fill:#2b1c35;}.cls-18{fill:#fc8d84;opacity:0.6;}.cls-19{fill:#fee4cb;}.cls-20,.cls-33{fill:#f99893;}.cls-21{fill:#333;}.cls-22{fill:#07085b;}.cls-23{fill:#feb546;}.cls-24{fill:#452b52;}.cls-25{fill:#daeef7;}.cls-26{opacity:0.5;}.cls-27{fill:#c1215b;}.cls-28{fill:#ff85a5;}.cls-29{fill:#3a2645;}.cls-30{fill:#f7aeaa;}.cls-31{fill:#ff6088;}.cls-32{fill:#030321;}.cls-34{fill:#02ccc0;}.cls-35{fill:#050849;}.cls-36{fill:#f4a640;}.cls-37{fill:#ed9935;}</style></defs><title>6607</title><g class="cls-1"><g id="Layer_1" data-name="Layer 1"><path class="cls-2" d="M3285.4,106.43c-437.25-201.27-691,128.42-1165.2,162.73S1560.12,72.37,1098,126.66C684.18,175.27,546.73,485.55,355.3,821.76s-219.87,222.4-306.88,554S331.76,2000,331.76,2000H3483.24c187.08-13.72,364.86-196.47,374.29-475.54,18.06-534.93-180.56-523.76-189.26-754.76s54.38-462-382.87-663.27Z" transform="translate(-35.17 -41.77)"/><rect class="cls-3" x="598.21" y="464.9" width="639.96" height="1336.78" rx="19" ry="19"/><rect class="cls-4" x="636.59" y="573.92" width="563.33" height="301.65"/><rect class="cls-4" x="636.59" y="903.05" width="563.33" height="301.65"/><rect class="cls-4" x="636.59" y="1232.18" width="563.33" height="301.65"/><rect class="cls-3" x="1357.51" y="464.9" width="1143.7" height="1336.78" rx="19" ry="19"/><rect class="cls-4" x="1426.11" y="573.92" width="1006.76" height="301.65"/><rect class="cls-4" x="1426.11" y="903.05" width="1006.76" height="301.65"/><rect class="cls-4" x="1426.11" y="1232.18" width="1006.76" height="301.65"/><rect class="cls-5" x="1985.42" y="1475.5" width="31" height="169.19" transform="translate(405.65 3519.25) rotate(-90)"/><rect class="cls-6" x="2001.59" y="1455.15" width="27.57" height="151.32" transform="translate(449.39 3504.42) rotate(-90)"/><rect class="cls-7" x="1978.26" y="1427.58" width="27.57" height="151.32" transform="translate(453.62 3453.52) rotate(-90)"/><rect class="cls-5" x="2164.61" y="1344.91" width="34.43" height="188.92"/><rect class="cls-7" x="2207.19" y="1376.9" width="27.18" height="156.93"/><rect class="cls-5" x="2085.02" y="1344.91" width="34.43" height="188.92"/><rect class="cls-7" x="2127.61" y="1376.9" width="27.18" height="156.93"/><rect class="cls-5" x="1522.48" y="1382.94" width="60.1" height="150.89"/><rect class="cls-6" x="1495.3" y="1397.72" width="16.91" height="136.1"/><rect class="cls-7" x="1462.99" y="1376" width="26.88" height="157.83"/><rect class="cls-7" x="1825.11" y="1376" width="26.88" height="157.83"/><rect class="cls-6" x="1631.51" y="1397.72" width="54.67" height="136.1"/><rect class="cls-5" x="1691.92" y="1344.91" width="34.43" height="188.92"/><rect class="cls-7" x="1734.5" y="1376.9" width="27.18" height="156.93"/><rect class="cls-7" x="1589.53" y="1365.73" width="31.71" height="168.09"/><rect class="cls-6" x="1767.13" y="1392.29" width="49.83" height="141.54"/><rect class="cls-6" x="699.49" y="1397.62" width="16.91" height="136.11"/><rect class="cls-8" x="667.17" y="1375.89" width="26.88" height="157.83"/><rect class="cls-5" x="1122.32" y="1382.83" width="60.1" height="150.89"/><rect class="cls-6" x="1095.13" y="1397.62" width="16.91" height="136.11"/><rect class="cls-7" x="1062.82" y="1375.89" width="26.88" height="157.83"/><rect class="cls-5" x="923.89" y="1344.8" width="34.43" height="188.92"/><rect class="cls-9" x="829.88" y="1475.39" width="31" height="169.19" transform="translate(-749.78 2363.6) rotate(-90)"/><rect class="cls-6" x="846.05" y="1455.04" width="27.57" height="151.32" transform="translate(-706.04 2348.77) rotate(-90)"/><rect class="cls-8" x="822.71" y="1427.47" width="27.57" height="151.32" transform="translate(-701.81 2297.87) rotate(-90)"/><rect class="cls-7" x="966.48" y="1376.79" width="27.18" height="156.93"/><rect class="cls-6" x="1004.83" y="1392.18" width="49.83" height="141.54"/><rect class="cls-6" x="1475.44" y="739.47" width="16.91" height="136.11"/><rect class="cls-7" x="1443.12" y="717.74" width="26.88" height="157.83"/><rect class="cls-5" x="1898.26" y="724.68" width="60.1" height="150.89"/><rect class="cls-6" x="1871.08" y="739.47" width="16.91" height="136.11"/><rect class="cls-7" x="1838.77" y="717.74" width="26.88" height="157.83"/><rect class="cls-5" x="1699.84" y="686.65" width="34.43" height="188.92"/><rect class="cls-5" x="1605.83" y="817.24" width="31" height="169.19" transform="translate(684.32 2481.4) rotate(-90)"/><rect class="cls-6" x="1622" y="796.89" width="27.57" height="151.32" transform="translate(728.06 2466.57) rotate(-90)"/><rect class="cls-7" x="1598.66" y="769.32" width="27.57" height="151.32" transform="translate(732.29 2415.67) rotate(-90)"/><rect class="cls-7" x="1742.43" y="718.64" width="27.18" height="156.93"/><rect class="cls-6" x="1780.78" y="734.03" width="49.83" height="141.54"/><rect class="cls-6" x="2695.37" y="722.35" width="16.91" height="136.1"/><rect class="cls-7" x="2663.05" y="700.63" width="26.88" height="157.83"/><rect class="cls-7" x="3058.7" y="700.63" width="26.88" height="157.83"/><rect class="cls-5" x="2919.78" y="669.54" width="34.43" height="188.92"/><rect class="cls-5" x="2825.77" y="800.13" width="31" height="169.19" transform="translate(1921.37 3684.22) rotate(-90)"/><rect class="cls-6" x="2841.93" y="779.78" width="27.57" height="151.32" transform="translate(1965.1 3669.39) rotate(-90)"/><rect class="cls-8" x="2818.6" y="752.21" width="27.57" height="151.32" transform="translate(1969.34 3618.49) rotate(-90)"/><rect class="cls-7" x="2962.36" y="701.53" width="27.18" height="156.93"/><rect class="cls-6" x="3000.72" y="716.92" width="49.83" height="141.54"/><rect class="cls-5" x="2282.19" y="686.65" width="34.43" height="188.92"/><rect class="cls-7" x="2324.77" y="718.64" width="27.18" height="156.93"/><rect class="cls-6" x="2363.13" y="734.03" width="49.83" height="141.54"/><rect class="cls-5" x="726.67" y="724.68" width="60.1" height="150.89"/><rect class="cls-6" x="699.49" y="739.47" width="16.91" height="136.11"/><rect class="cls-7" x="667.17" y="717.74" width="26.88" height="157.83"/><rect class="cls-5" x="1094.53" y="724.68" width="60.1" height="150.89"/><rect class="cls-6" x="1067.35" y="739.47" width="16.91" height="136.11"/><rect class="cls-7" x="1035.03" y="717.74" width="26.88" height="157.83"/><rect class="cls-6" x="835.7" y="739.47" width="54.67" height="136.11"/><rect class="cls-5" x="896.1" y="686.65" width="34.43" height="188.92"/><rect class="cls-7" x="938.69" y="718.64" width="27.18" height="156.93"/><rect class="cls-7" x="793.72" y="707.48" width="31.71" height="168.09"/><rect class="cls-5" x="2033.17" y="724.68" width="60.1" height="150.89"/><rect class="cls-6" x="2005.99" y="739.47" width="16.91" height="136.11"/><rect class="cls-7" x="1973.67" y="717.74" width="26.88" height="157.83"/><rect class="cls-6" x="2142.2" y="739.47" width="54.67" height="136.11"/><rect class="cls-5" x="2202.6" y="686.65" width="34.43" height="188.92"/><rect class="cls-7" x="2245.19" y="718.64" width="27.18" height="156.93"/><rect class="cls-7" x="2100.22" y="707.48" width="31.71" height="168.09"/><rect class="cls-5" x="2771.8" y="399.23" width="34.43" height="188.92"/><rect class="cls-7" x="2814.39" y="431.21" width="27.18" height="156.93"/><rect class="cls-6" x="2852.74" y="446.61" width="49.83" height="141.54"/><rect class="cls-6" x="2631.81" y="452.04" width="54.67" height="136.11"/><rect class="cls-5" x="2692.22" y="399.23" width="34.43" height="188.92"/><rect class="cls-7" x="2734.8" y="431.21" width="27.18" height="156.93"/><rect class="cls-7" x="2589.83" y="420.05" width="31.71" height="168.09"/><rect class="cls-5" x="2151.84" y="1053.81" width="60.1" height="150.89"/><rect class="cls-6" x="2124.66" y="1068.6" width="16.91" height="136.1"/><rect class="cls-7" x="2092.34" y="1046.87" width="26.88" height="157.83"/><rect class="cls-5" x="2286.74" y="1053.81" width="60.1" height="150.89"/><rect class="cls-6" x="2259.56" y="1068.6" width="16.91" height="136.1"/><rect class="cls-7" x="2227.24" y="1046.87" width="26.88" height="157.83"/><rect class="cls-7" x="2353.79" y="1036.61" width="31.71" height="168.09"/><rect class="cls-6" x="977.05" y="734.03" width="49.83" height="141.54"/><rect class="cls-5" x="1522.48" y="1053.81" width="60.1" height="150.89"/><rect class="cls-6" x="1495.3" y="1068.6" width="16.91" height="136.1"/><rect class="cls-7" x="1462.99" y="1046.87" width="26.88" height="157.83"/><rect class="cls-5" x="1890.34" y="1053.81" width="60.1" height="150.89"/><rect class="cls-6" x="1863.16" y="1068.6" width="16.91" height="136.1"/><rect class="cls-7" x="1830.84" y="1046.87" width="26.88" height="157.83"/><rect class="cls-6" x="1631.51" y="1068.6" width="54.67" height="136.1"/><rect class="cls-5" x="1691.92" y="1015.78" width="34.43" height="188.92"/><rect class="cls-7" x="1734.5" y="1047.77" width="27.18" height="156.93"/><rect class="cls-7" x="1589.53" y="1036.61" width="31.71" height="168.09"/><rect class="cls-6" x="1772.86" y="1063.16" width="49.83" height="141.54"/><rect class="cls-6" x="726.67" y="1040.01" width="60.1" height="164.69"/><rect class="cls-7" x="699.49" y="1068.6" width="16.91" height="136.1"/><rect class="cls-5" x="667.17" y="1046.87" width="26.88" height="157.83"/><rect class="cls-7" x="1067.35" y="1068.6" width="16.91" height="136.1"/><rect class="cls-6" x="1035.03" y="1029.83" width="26.88" height="174.87"/><rect class="cls-7" x="835.7" y="1029.83" width="54.67" height="174.87"/><rect class="cls-6" x="896.1" y="1053.81" width="34.43" height="150.89"/><rect class="cls-5" x="938.69" y="1006.08" width="27.18" height="198.62"/><rect class="cls-5" x="793.72" y="1057.82" width="31.71" height="146.88"/><rect class="cls-7" x="977.05" y="1036.61" width="49.83" height="168.09"/><rect class="cls-6" x="1138.61" y="1075.45" width="49.83" height="168.11" transform="translate(-357.21 416.77) rotate(-19.64)"/><rect class="cls-6" x="2010.13" y="1075.45" width="49.83" height="168.11" transform="translate(-306.5 709.69) rotate(-19.64)"/><rect class="cls-7" x="2063.55" y="1079.07" width="24.91" height="168.11" transform="translate(-305.32 723.59) rotate(-19.64)"/><rect class="cls-7" x="2959.04" y="461.81" width="24.91" height="168.11" transform="translate(-45.76 988.81) rotate(-19.64)"/><polygon class="cls-10" points="2763.5 1866.52 2757.2 1917.01 2723.32 1919.64 2723.85 1872.82 2763.5 1866.52"/><polygon class="cls-11" points="2166.26 1386.98 2494.14 1386.98 2458.32 1634.71 2187.72 1590.66 2166.26 1386.98"/><path class="cls-12" d="M2707,1998.36l92.56.63a3.55,3.55,0,0,0,3.63-3.55l0-2.66a3.69,3.69,0,0,0-3.69-3.6l-92.56-.62a3.55,3.55,0,0,0-3.63,3.55l0,2.66A3.69,3.69,0,0,0,2707,1998.36Z" transform="translate(-35.17 -41.77)"/><path class="cls-13" d="M2798.32,1959.33l3.55,27.33c.44,3.37-1.46,6.41-4,6.4l-88-.59a6.54,6.54,0,0,1-5.78-4.05c-1.26-2.7-1.54-6.74,2.36-12.16,7.78-10.83,33.65-13.3,46.24-22.51l41,.28C2795.95,1954,2797.92,1956.29,2798.32,1959.33Z" transform="translate(-35.17 -41.77)"/><path class="cls-6" d="M2759,1969.64h0a1.8,1.8,0,0,0,.48-2.22c-1.76-3.75-7.24-12.9-18.22-11.1a1.51,1.51,0,0,0-.94,1.78v0c.11.82.69,1.37,1.3,1.27,9.84-1.57,14.5,6.48,15.93,9.63A1,1,0,0,0,2759,1969.64Z" transform="translate(-35.17 -41.77)"/><path class="cls-6" d="M2749.91,1973.1h0a1.8,1.8,0,0,0,.48-2.22c-1.76-3.75-7.24-12.9-18.22-11.1a1.51,1.51,0,0,0-.94,1.78v0c.11.82.69,1.37,1.3,1.27,9.84-1.58,14.5,6.48,15.93,9.63A1,1,0,0,0,2749.91,1973.1Z" transform="translate(-35.17 -41.77)"/><path class="cls-6" d="M2741.44,1976.32h0a1.8,1.8,0,0,0,.48-2.22c-1.76-3.75-7.24-12.9-18.22-11.1-.63.1-1.06.92-.94,1.78v0c.11.82.69,1.37,1.3,1.27,9.84-1.58,14.5,6.48,15.93,9.63A1,1,0,0,0,2741.44,1976.32Z" transform="translate(-35.17 -41.77)"/><path class="cls-14" d="M2774.38,1992.9c6.74-22,18.67-24.37,25.21-23.81l2.28,17.57c.44,3.37-1.46,6.41-4,6.4Z" transform="translate(-35.17 -41.77)"/><polygon class="cls-10" points="2914.39 1863.38 2917.26 1916.32 2882.78 1916.56 2879.49 1867.6 2914.39 1863.38"/><path class="cls-12" d="M2868.42,1999.26l92.56.62a3.56,3.56,0,0,0,3.63-3.55l0-2.66a3.69,3.69,0,0,0-3.7-3.6l-92.56-.62a3.56,3.56,0,0,0-3.63,3.55l0,2.66A3.69,3.69,0,0,0,2868.42,1999.26Z" transform="translate(-35.17 -41.77)"/><path class="cls-13" d="M2959.73,1960.24l3.55,27.33c.44,3.37-1.46,6.41-4,6.4l-88-.59a6.54,6.54,0,0,1-5.78-4.05c-1.25-2.7-1.54-6.74,2.36-12.16,7.78-10.83,33.65-13.31,46.24-22.51l41,.28C2957.36,1954.94,2959.33,1957.19,2959.73,1960.24Z" transform="translate(-35.17 -41.77)"/><path class="cls-6" d="M2920.43,1970.55h0a1.8,1.8,0,0,0,.48-2.22c-1.76-3.75-7.24-12.9-18.22-11.1a1.51,1.51,0,0,0-.94,1.78v0c.11.82.69,1.37,1.3,1.27,9.84-1.57,14.5,6.48,15.92,9.63A1,1,0,0,0,2920.43,1970.55Z" transform="translate(-35.17 -41.77)"/><path class="cls-6" d="M2911.32,1974h0a1.8,1.8,0,0,0,.48-2.22c-1.76-3.75-7.24-12.9-18.22-11.1a1.51,1.51,0,0,0-.94,1.77v0c.11.82.69,1.37,1.3,1.27,9.84-1.57,14.5,6.48,15.92,9.63A1,1,0,0,0,2911.32,1974Z" transform="translate(-35.17 -41.77)"/><path class="cls-6" d="M2902.85,1977.22h0a1.8,1.8,0,0,0,.48-2.22c-1.76-3.75-7.24-12.9-18.22-11.1a1.51,1.51,0,0,0-.94,1.78v0c.11.82.69,1.37,1.3,1.27,9.84-1.57,14.5,6.48,15.92,9.63A1,1,0,0,0,2902.85,1977.22Z" transform="translate(-35.17 -41.77)"/><path class="cls-14" d="M2935.79,1993.8c6.74-22,18.67-24.37,25.21-23.81l2.28,17.58c.44,3.37-1.46,6.41-4,6.4Z" transform="translate(-35.17 -41.77)"/><path class="cls-12" d="M2228,1768H3349.53a3.78,3.78,0,0,1,3.78,3.78v11.52a3.79,3.79,0,0,1-3.79,3.79H2228a3.78,3.78,0,0,1-3.78-3.78v-11.52A3.78,3.78,0,0,1,2228,1768Z"/><path class="cls-15" d="M3456.6,1262.37c-4.22.3-730.25.1-968.76,0a74.9,74.9,0,0,0-75,74.89V1643h897.54l139.22-139.11Z" transform="translate(-35.17 -41.77)"/><rect class="cls-16" x="3419.86" y="1262.37" width="73.48" height="287.28" rx="14.56" ry="14.56" transform="translate(6878.03 2770.24) rotate(180)"/><rect class="cls-16" x="2222.89" y="1597.29" width="922.21" height="183.38" transform="translate(5332.83 3336.19) rotate(180)"/><path class="cls-17" d="M2940.91,1528.49s-170.06.61-196.3,34.7-46.19,264.33,0,365c0,0,59.83,2.1,73.48-6.29,0,0-4.2-169.92-2.1-215s33.59-51.4,37.79-55.59S2940.91,1528.49,2940.91,1528.49Z" transform="translate(-35.17 -41.77)"/><polygon class="cls-10" points="3166.24 1133.71 3172.69 1186.02 3120.8 1184.24 3122.29 1124.39 3166.24 1133.71"/><path class="cls-18" d="M3156.78,1193.71l.69-27.56,44.59,14.28,1.25,10.33C3193.41,1194.46,3174.61,1199,3156.78,1193.71Z" transform="translate(-35.17 -41.77)"/><polygon class="cls-19" points="3059.72 1050.88 3066.44 1086.56 3072.93 1088.49 3071.3 1043.22 3059.72 1050.88"/><path class="cls-20" d="M3111,1121.83c3.72,7.47,1.87,15.94-4.12,18.91s-13.86-.67-17.58-8.14-1.87-15.94,4.12-18.91S3107.31,1114.36,3111,1121.83Z" transform="translate(-35.17 -41.77)"/><path class="cls-10" d="M3116.57,1166.74a62.61,62.61,0,0,1-5.63-10.18,119.13,119.13,0,0,1-8.64-29.13c-.34-2-.79-3.88-1.27-5.81A64.67,64.67,0,1,1,3228.24,1101c3.87-2.54,8.36-3.39,12.48-1.91,7.91,2.84,11.42,13.14,7.86,23s-12.87,15.56-20.78,12.71a12.32,12.32,0,0,1-3-1.61c-.89,31.75-25,58-56,59.79a58.05,58.05,0,0,1-40.47-13.39,28.24,28.24,0,0,1-2.33-1.88A55.82,55.82,0,0,1,3116.57,1166.74Z" transform="translate(-35.17 -41.77)"/><ellipse class="cls-21" cx="3176.37" cy="1110.54" rx="5.65" ry="5.63" transform="translate(-94.03 143.62) rotate(-3.31)"/><ellipse class="cls-21" cx="3128.15" cy="1116.5" rx="5.65" ry="5.63" transform="translate(-94.29 140.28) rotate(-3.3)"/><path class="cls-22" d="M3163.29,1100.1a52.94,52.94,0,0,1,7.89-3.13,27.91,27.91,0,0,1,7.81-1.21,25.84,25.84,0,0,1,7.79,1.08l1,.25c.33.09.64.24,1,.35l2,.7c1.33.49,2.59,1.16,4.05,1.63a24.82,24.82,0,0,0-3-3.34,20.48,20.48,0,0,0-3.78-2.56,18.4,18.4,0,0,0-9-2.18,19.26,19.26,0,0,0-9,2.34A17.81,17.81,0,0,0,3163.29,1100.1Z" transform="translate(-35.17 -41.77)"/><path class="cls-22" d="M3140.68,1102.57a17.77,17.77,0,0,0-7.79-4.5,19.24,19.24,0,0,0-9.29-.35,18.39,18.39,0,0,0-8.37,4.08,20.55,20.55,0,0,0-3.14,3.31,25,25,0,0,0-2.22,3.91c1.33-.77,2.42-1.7,3.61-2.46l1.78-1.11c.3-.17.57-.39.87-.55l.92-.45a25.86,25.86,0,0,1,7.37-2.73,27.9,27.9,0,0,1,7.89-.5A53,53,0,0,1,3140.68,1102.57Z" transform="translate(-35.17 -41.77)"/><path class="cls-22" d="M3085.88,1050.23s-19.33,1.58.19-15.76,73.12-39.18,109-22.49c0,0,6.27-15.18,16.54-12.13s-5.9,14.07-5.9,14.07,12.88-1.05,17.13,5.07c3.14,4.53-4.75,5.12-9.08,5.12,7.41.88,32.08,13.86,20.71,71.23-5.08-.85-45.65-34.11-45.65-34.11s-53.06,35.39-46.84,16.55c0,0-63.3,36-55.38.64C3086.6,1078.42,3060.46,1081.63,3085.88,1050.23Z" transform="translate(-35.17 -41.77)"/><path class="cls-20" d="M3149.4,1101.08a43.29,43.29,0,0,1,2.62,11.87,33.41,33.41,0,0,1,0,6.23,15.76,15.76,0,0,1-2,6.42l-.57.78-.51.66a6.13,6.13,0,0,0-.68.91,4.57,4.57,0,0,0-.72,2,5.45,5.45,0,0,0,1.48,4.14c2.23,2.61,6,4,10,4.66-3.9.89-8.57.54-12.14-2.52a8.28,8.28,0,0,1-3-6.51,6.47,6.47,0,0,1,.33-1.91,7.44,7.44,0,0,1,.75-1.75,9.61,9.61,0,0,1,1.07-1.5,5.86,5.86,0,0,0,.38-.53l.31-.43a15,15,0,0,0,1.62-4.88,50.7,50.7,0,0,0,.65-5.68C3149.23,1109.09,3149.27,1105.13,3149.4,1101.08Z" transform="translate(-35.17 -41.77)"/><path class="cls-22" d="M3188.82,1061.23s22.43,35.41,22.93,56.36c0,0,9.48-18.76,25.09-19.24,0,0,5.08-35.27-4.46-57.31l-35.28,7.55Z" transform="translate(-35.17 -41.77)"/><path class="cls-23" d="M3143.51,1206s15.75,24.65,68.23,0c0,0,95-26.22,102.35,86.54l3.67,104.89s-49.08.17-74.27,1.1l-.78,22L3099.42,1537s-85-7.34-102.35-15.73c0,0,30.44-60.31,35.17-73.95s8.13-145.28,13.12-158.91S3065,1207.91,3143.51,1206Z" transform="translate(-35.17 -41.77)"/><path class="cls-24" d="M3073,1285a60.35,60.35,0,0,0-4.75,9.86c-.72,1.68-1.27,3.42-1.92,5.12l-1.64,5.21a159.86,159.86,0,0,0-4.68,21.34c-1.3,7.18-1.88,14.46-2.51,21.74-.26,3.64-.4,7.3-.61,10.95s-.17,7.32-.34,11c-.23-3.66-.35-7.32-.53-11,0-3.67,0-7.34.12-11a196.16,196.16,0,0,1,2.12-21.95,141.43,141.43,0,0,1,5.13-21.46C3065.74,1297.82,3068.57,1290.9,3073,1285Z" transform="translate(-35.17 -41.77)"/><path class="cls-25" d="M2991.74,1363.07c-1.29,0-53.25-31.42-53.25-31.42l-9.71,2.06,3.45,2.54-5.81-1.46-9.45,1.46s31.23,36.83,31.75,37.88,14.17,6.29,15.22,6.82S2991.74,1363.07,2991.74,1363.07Z" transform="translate(-35.17 -41.77)"/><path class="cls-25" d="M3074.89,1337.95l-4.72-3-2.16,1.48v-2.76l-3-2.06-75.58,29.89s24.21,15.34,25,14.75,43.89-8.46,44.68-9.64S3074.89,1337.95,3074.89,1337.95Z" transform="translate(-35.17 -41.77)"/><path class="cls-16" d="M3073.7,1336.55,2988,1364.27,2919,1334.22a5.94,5.94,0,0,0-8.28,6.11L2923.83,1458a5.94,5.94,0,0,0,3.14,4.6l66.33,34.94,60.08-22.22,1.55-2.27,7.79-1.18,25.19-9.32a5.33,5.33,0,0,0,3.46-5.46l-9.91-115.37A6,6,0,0,0,3073.7,1336.55Z" transform="translate(-35.17 -41.77)"/><path class="cls-26" d="M3073.7,1336.55a6,6,0,0,1,7.76,5.14l9.89,115.22a5.53,5.53,0,0,1-3.59,5.66l-25,9.27-7.79,1.18-1.55,2.27-54.78,19.62L2988,1364.27Z" transform="translate(-35.17 -41.77)"/><polygon class="cls-27" points="2940.07 1336.57 2886.65 1313.22 2888.36 1337.48 2940.71 1361.73 2940.07 1336.57"/><path class="cls-10" d="M3102.31,1454.85c.23-.78.7-1.89-.36-2.69l-.87-.58a25.46,25.46,0,0,1-9.28-10.87,19.14,19.14,0,0,0-1.6-3.35c-.41-.49-.52.2-.52.2l.94,11-12.77,4.65s-22.37,3.52-33.39-1.33c0,0-5.77-4.06-3.94,3.28a4.33,4.33,0,0,0,1.16,1.95c-.81.5-1.69,1.79-.11,6.74a4.11,4.11,0,0,0,.23.57c-.39,2.94-.09,6.63,3.16,8.61a9.11,9.11,0,0,0,6.65,6.23c5.7,1.64,18.75,3.46,27,4.51,7.23,1.11,12.45,1.61,15.33,1l3,.49c0-.8,7.84-12,8.67-16.81S3100.95,1459.52,3102.31,1454.85Z" transform="translate(-35.17 -41.77)"/><path class="cls-10" d="M3102,1452.16s77.51-3.95,99.16-11.42,41.6-20.19,41.6-20.19v-22l73.54-1.1s9.26,67.31-11.61,75.17-164.25,20.45-210.7,12.19Z" transform="translate(-35.17 -41.77)"/><path class="cls-20" d="M3041.69,1464a17.21,17.21,0,0,0,4.83,3.71,26.39,26.39,0,0,0,5.7,2.25,30.54,30.54,0,0,0,6,.92c1,.07,2,0,3.05,0s2-.16,3-.29c-2-.1-4-.17-6-.42a45.53,45.53,0,0,1-5.88-1.09,36.57,36.57,0,0,1-5.62-2A24.44,24.44,0,0,1,3041.69,1464Z" transform="translate(-35.17 -41.77)"/><path class="cls-20" d="M3045,1473a17.17,17.17,0,0,0,5.1,3.32,26.23,26.23,0,0,0,5.86,1.79,30.33,30.33,0,0,0,6.1.44c1,0,2-.14,3-.21s2-.32,3-.53c-2,.06-4,.15-6,.06a45.52,45.52,0,0,1-6-.63,36.35,36.35,0,0,1-5.76-1.55A24.37,24.37,0,0,1,3045,1473Z" transform="translate(-35.17 -41.77)"/><path class="cls-20" d="M3041.69,1457.11a17.18,17.18,0,0,0,4.83,3.71,26.19,26.19,0,0,0,5.7,2.25,30.4,30.4,0,0,0,6,.92c1,.07,2,0,3.05,0s2-.17,3-.29c-2-.1-4-.17-6-.42a45.22,45.22,0,0,1-5.88-1.1,36.16,36.16,0,0,1-5.62-2A24.43,24.43,0,0,1,3041.69,1457.11Z" transform="translate(-35.17 -41.77)"/><path class="cls-24" d="M3298,1397.54c-6.6,0-13.21,0-19.81-.11l-19.81-.28q-9.43-.18-18.86-.49c.65-6.45,1.16-12.92,1.47-19.39.3-6.79.59-13.58.56-20.38s-.08-13.59-.28-20.37-.57-13.57-1.14-20.34c.16,6.79.29,13.57.27,20.35s0,13.56-.21,20.34-.41,13.55-.81,20.31-1,13.51-1.7,20.24l-.1,1,.95,0q9.92.26,19.83.36c6.61.06,13.22.12,19.83,0,13.22-.12,26.44-.48,39.63-1.31C3311.16,1397.5,3304.56,1397.59,3298,1397.54Z" transform="translate(-35.17 -41.77)"/><path class="cls-10" d="M2934.31,1394.67c-.89-1.85-16.48.84-16.65-.28s15.36-8.88,15-10.73c-.45-2.06-16.86,3.48-18,2.72s13.52-12.8,10.76-14.33c-2.09-1.16-12,5.67-16.68,9a4.77,4.77,0,0,0-1.9,4.75l6.32,37.46a6.53,6.53,0,0,0,6.83,5.43l.56,0-.89-20.3c4.71-.16,13.49-.7,12.74-2.43s-8.27-2.8-13-3.39l0-.37C2919.45,1401.47,2935.11,1396.34,2934.31,1394.67Z" transform="translate(-35.17 -41.77)"/><path class="cls-28" d="M2717.41,1722.1H2311.1a66.59,66.59,0,0,1-66.62-66.57V1471.75a43,43,0,0,0-43-43h0a43,43,0,0,0-43,43v188.52c0,82.54,67,149.45,149.57,149.45h411.19A814.46,814.46,0,0,1,2717.41,1722.1Z" transform="translate(-35.17 -41.77)"/><path class="cls-28" d="M2815.57,1722.1c-.35,21.91-.1,54.8.36,87.62h206.86V1722.1Z" transform="translate(-35.17 -41.77)"/><path class="cls-11" d="M3151.2,1429.28l306,2.2a53.51,53.51,0,0,1,53.54,53.49v188.6a136.21,136.21,0,0,1-136.26,136.16H3057.27s63-109.73,63-112.88S3151.2,1429.28,3151.2,1429.28Z" transform="translate(-35.17 -41.77)"/><path class="cls-28" d="M3155.06,1428.75h0a43,43,0,0,0-43,43v183.78c0,1.27,0,2.52-.11,3.77v0h0a66.59,66.59,0,0,1-66.51,62.77h-90.95c2.7,26.16,6.08,57.36,9.42,87.62h84.66c82.6,0,149.57-66.91,149.57-149.45V1471.75A43,43,0,0,0,3155.06,1428.75Z" transform="translate(-35.17 -41.77)"/><path class="cls-29" d="M2960.13,1775.54c-1.53-14.18-3.52-32.59-5.68-53.43h0c-3.85-40.93-7.85-67.84-3.56-65,14.77-5.35,106.35-.86,161,2.2h0c.34-9.05,0-148.63.11-155.91-359,29.88-279.92,91.35-246.25,303.57h0l.57,2.72h0c14.61,70.18,28.39,127.94,28.39,127.94s52.49,2.1,82.93-5.24C2977.69,1932.74,2968.19,1849.85,2960.13,1775.54Z" transform="translate(-35.17 -41.77)"/><path class="cls-30" d="M2355,1981.29l43.24-26.66,37.35,22.54-13,9.28-45.29,6.38s-17.68-2.26-18.46-2.79S2355,1981.29,2355,1981.29Z" transform="translate(-35.17 -41.77)"/><path class="cls-31" d="M2355,1981.29l-11,7a6,6,0,0,0,3.18,11.07l83,.39a5.3,5.3,0,0,0,5.32-5.27l.08-17.35C2380.24,1994.5,2361.18,1989.06,2355,1981.29Z" transform="translate(-35.17 -41.77)"/><path class="cls-10" d="M2402.17,1981.29l43.24-26.66,37.35,22.54-13,9.28-45.29,6.38s-17.68-2.26-18.46-2.79S2402.17,1981.29,2402.17,1981.29Z" transform="translate(-35.17 -41.77)"/><path class="cls-31" d="M2402.17,1981.29l-11,7a6,6,0,0,0,3.17,11.07l83,.39a5.3,5.3,0,0,0,5.32-5.27l.08-17.35C2427.42,1994.5,2408.36,1989.06,2402.17,1981.29Z" transform="translate(-35.17 -41.77)"/><path class="cls-22" d="M2634,1219.61c22.3-15.62,10.46-21.88,23.56-35.46,10.2-10.58,13.38-18.49,13.18-26.23.26-7.74-2.86-15.67-13-26.33-13-13.68-1.11-19.86-23.29-35.64s-45.75,22.49-45.75,22.49l-24.32,30.05,4.54,15.57-9.52,30.36S2611.75,1235.22,2634,1219.61Z" transform="translate(-35.17 -41.77)"/><path class="cls-32" d="M2425.66,1517s-92.38,34.62-97.62,61.89,32.54,373.41,48.81,390.2c0,0,33.67,9.44,60.13-5.24s13.87-129,13.87-132.16,29.65-171,29.52-177.27,48.14-81.81,59.7-92.3,30.19-61.62,30.19-61.62Z" transform="translate(-35.17 -41.77)"/><path class="cls-13" d="M2697.8,1491.11s7.19,90.53-18.11,122.78-168.48,33-168.48,33l-28.45,330.33s-38-2.35-62.46-7.07c0,0-20.1-364.17,5.88-388.56s144.08-81,144.08-81Z" transform="translate(-35.17 -41.77)"/><path class="cls-22" d="M2548.75,1058s-38.46-14.67-61.18,17.66c-17.4,24.76-13.77,58.63,7.41,80.25l8.57,8.75s35-37.63,35.38-39.45S2548.75,1058,2548.75,1058Z" transform="translate(-35.17 -41.77)"/><path class="cls-10" d="M2522.68,1243.79s54.15-10,79-9.11-15.09,65.54-15.09,65.54l-40.67.9s-24.93-27.82-23.29-31.06-.08-24.46-.08-24.46Z" transform="translate(-35.17 -41.77)"/><path class="cls-10" d="M2583.63,1189.73l9.71,44.56s-15,24.26-51.76,9.3c0,0,5.25-8.47,1.37-27.45C2539,1196.75,2583.63,1189.73,2583.63,1189.73Z" transform="translate(-35.17 -41.77)"/><path class="cls-18" d="M2583.63,1189.73l4.57,20.82c-5.5,14.3-19.44,23-44.07,23.55a58.71,58.71,0,0,0-1.17-18C2539,1196.75,2583.63,1189.73,2583.63,1189.73Z" transform="translate(-35.17 -41.77)"/><path class="cls-20" d="M2500.27,1149.17c2.34,7.32-.5,14.77-6.36,16.64s-12.51-2.54-14.85-9.86.5-14.77,6.36-16.64S2497.93,1141.85,2500.27,1149.17Z" transform="translate(-35.17 -41.77)"/><path class="cls-10" d="M2499.09,1190.82a57.91,57.91,0,0,1-3.71-10,109.9,109.9,0,0,1-3.83-27.72c0-1.83-.18-3.65-.35-5.46a59.47,59.47,0,1,1,118.5-1.14,12.86,12.86,0,0,1,11.61,0c6.79,3.69,8.56,13.55,4,22s-13.85,12.38-20.65,8.69a11.4,11.4,0,0,1-2.53-1.88c-5.2,28.78-30.72,49.33-59.22,46.66a53.37,53.37,0,0,1-34.93-17.81,25.91,25.91,0,0,1-1.86-2A51.4,51.4,0,0,1,2499.09,1190.82Z" transform="translate(-35.17 -41.77)"/><path class="cls-20" d="M2537.16,1140.25a36.38,36.38,0,0,1,.86,10.16,28.11,28.11,0,0,1-.72,5.18,13.21,13.21,0,0,1-2.34,5.12l-.56.58-.5.5a5.24,5.24,0,0,0-.66.68,3.87,3.87,0,0,0-.81,1.55,4.58,4.58,0,0,0,.77,3.61c1.56,2.42,4.58,4,7.79,5a11.53,11.53,0,0,1-9.8-3.45,7,7,0,0,1-1.77-5.75,5.45,5.45,0,0,1,.49-1.55,6.24,6.24,0,0,1,.82-1.37,8.11,8.11,0,0,1,1.06-1.13,4.86,4.86,0,0,0,.38-.4l.31-.33a12.59,12.59,0,0,0,1.89-3.88,42.64,42.64,0,0,0,1.17-4.65C2536.14,1146.89,2536.61,1143.61,2537.16,1140.25Z" transform="translate(-35.17 -41.77)"/><ellipse class="cls-21" cx="2561.23" cy="1147.95" rx="5.19" ry="5.19" transform="translate(1143.2 3548.61) rotate(-84.62)"/><circle class="cls-21" cx="2516.57" cy="1146.69" r="5.19" transform="translate(1104.44 3503.27) rotate(-84.64)"/><path class="cls-33" d="M2552.88,1186.79a17.47,17.47,0,0,0-14.53.41s-7-5.48-13.41-1.61c0,0,1.58,11.46,14,12S2552.88,1186.79,2552.88,1186.79Z" transform="translate(-35.17 -41.77)"/><path class="cls-20" d="M2559.76,1183.46a42.92,42.92,0,0,1-9.66,4.63,32.2,32.2,0,0,1-10.41,1.65,27.39,27.39,0,0,1-10.25-2.23,38.59,38.59,0,0,1-9-5.73,32.8,32.8,0,0,0,3.95,3.73,30,30,0,0,0,4.62,2.95,25.62,25.62,0,0,0,5.18,1.92,27.23,27.23,0,0,0,5.49.72,28.43,28.43,0,0,0,10.79-2A31,31,0,0,0,2559.76,1183.46Z" transform="translate(-35.17 -41.77)"/><path class="cls-22" d="M2551.25,1135a53.26,53.26,0,0,1,7.77-.74,26.31,26.31,0,0,1,7.16.85,24.34,24.34,0,0,1,6.61,2.79c1.13.54,2.07,1.38,3.2,2.05s2,1.62,3.26,2.37a21.63,21.63,0,0,0-1.8-3.75,17.66,17.66,0,0,0-2.71-3.24,16.74,16.74,0,0,0-7.53-4.19,17.52,17.52,0,0,0-8.61-.07A16,16,0,0,0,2551.25,1135Z" transform="translate(-35.17 -41.77)"/><path class="cls-22" d="M2528.25,1134.3a16,16,0,0,0-7-4.53,17.55,17.55,0,0,0-8.58-.66,16.78,16.78,0,0,0-7.86,3.53,17.77,17.77,0,0,0-3,3,21.79,21.79,0,0,0-2.11,3.58c1.27-.64,2.32-1.44,3.45-2.09s2.19-1.34,3.36-1.77a24.42,24.42,0,0,1,6.82-2.21,26.29,26.29,0,0,1,7.21-.24A53.47,53.47,0,0,1,2528.25,1134.3Z" transform="translate(-35.17 -41.77)"/><path class="cls-10" d="M2461.14,1349.2s-4.93,122.69-18.74,141.91l75.94-17.25V1340.33Z" transform="translate(-35.17 -41.77)"/><path class="cls-34" d="M2493.5,1366s10.57,30.88,12.49,47.28c4.77,40.73-.41,69.47-8.85,92.65-11.84,32.52,84.81,20.7,86.79,19.71s84.82-33,84.82-33l15.78-45.82V1366l-4.44-37Z" transform="translate(-35.17 -41.77)"/><path class="cls-10" d="M2725,1329l-60.82,20.69s10.52,97.23,7.23,111c-2.81,11.79-46.92,35.24-74.87,48.37a28.38,28.38,0,0,1-14.41,2.61c-15.92-1.31-44.14-3.77-48.57-4.07-7-.48-26.09,0-26.7,2.45-.57,2.26,14.94-.23,25,1.85,1.42.29.66,2.18.33,2.19-5.34.2-19.08.79-23.6,2.29-5.54,1.84,14.06.38,24.65,2.33.74.14,1.34,2.24.8,2.77-1.26,1.25-5.87,2.33-18.52,3.62-21.1,2.16-.46,4.77-.46,4.77s1.9-.54,20-3c.67-.09,1.41,1.79.41,2.67a31.22,31.22,0,0,1-11.26,6.17c-6.79,2-1.85,3.77-1.85,3.77s12.86-3.83,20.07-4.37c5.4-.4,30.84,1.67,41.27,2.26l.8-1.79c14.14-.41,127-3.34,137.83-73.22C2733.5,1390.42,2725,1329,2725,1329Z" transform="translate(-35.17 -41.77)"/><path class="cls-22" d="M2282.89,1398.63H2476.7l55,134H2625a4.73,4.73,0,0,1,4.73,4.72h0a4.72,4.72,0,0,1-4.73,4.72H2347.3Z" transform="translate(-35.17 -41.77)"/><ellipse class="cls-25" cx="2388.05" cy="1473.3" rx="9.24" ry="10.55" transform="translate(-277.74 455.17) rotate(-11.31)"/><path class="cls-34" d="M2522.68,1243.79s36.81,42.93,79-9.11c0,0,46.15-3.76,80.17,20.39s54.4,78.37,54.4,78.37-61.64,31-76.93,32.52H2488.26s-26.13-2-51.28-14.78C2437,1351.17,2441.32,1265,2522.68,1243.79Z" transform="translate(-35.17 -41.77)"/><path class="cls-6" d="M2632,1301.11c1.76,5.27,3.32,10.6,4.9,15.92s3,10.69,4.44,16.06,2.72,10.78,3.9,16.21,2.32,10.89,3.19,16.41l-1.3-1.31a32.83,32.83,0,0,0,5.65,0c1.94-.13,3.89-.41,5.83-.69,3.88-.69,7.76-1.43,11.58-2.5l2.87-.76,2.85-.87c1.89-.6,3.8-1.14,5.68-1.82l5.64-1.95,5.58-2.15c3.73-1.4,7.37-3,11.07-4.55l10.91-5,10.81-5.23c3.56-1.84,7.12-3.67,10.73-5.45-3.39,2.14-6.82,4.23-10.25,6.32s-7,4-10.48,6-7.13,3.71-10.73,5.51l-5.48,2.54c-1.82.85-3.65,1.71-5.53,2.45a173.82,173.82,0,0,1-22.85,8l-2.94.79-3,.67c-2,.49-4,.8-6,1.15s-4,.56-6.11.68a34.3,34.3,0,0,1-6.36,0l-1.12-.12-.18-1.18c-1.66-10.89-3.88-21.75-6.19-32.58l-3.52-16.25Z" transform="translate(-35.17 -41.77)"/><path class="cls-6" d="M2501.88,1288.64q-3.62,9.46-6.56,19a166.56,166.56,0,0,0-4.76,19.36,92.83,92.83,0,0,0-1.31,9.82,71.65,71.65,0,0,0-.25,9.87c.24,6.58,10,37.55,12.88,43.68-4.05-5.44-14.68-36.67-15.4-43.48a70.9,70.9,0,0,1,.89-20.46c.64-3.35,1.39-6.68,2.32-10s2-6.5,3.24-9.66A103.74,103.74,0,0,1,2501.88,1288.64Z" transform="translate(-35.17 -41.77)"/><path class="cls-22" d="M2609.7,1146.44s-61.3-21.7-86.89-67.52c0,0,1.7-40.21,58-23.69C2619.89,1066.68,2633.52,1119.51,2609.7,1146.44Z" transform="translate(-35.17 -41.77)"/><path class="cls-20" d="M3182,1149.27c-4.59.75-9.13,1.24-13.65,1.88a130.3,130.3,0,0,0-13.5,2.44c4-2.42,8.68-3.53,13.25-4.19A52.45,52.45,0,0,1,3182,1149.27Z" transform="translate(-35.17 -41.77)"/><polygon class="cls-12" points="2245.68 1958.23 2227.39 1958.23 2272.99 1779.23 2290.15 1783.6 2245.68 1958.23"/><polygon class="cls-12" points="3327.83 1958.12 3346.11 1958.12 3300.52 1779.12 3283.35 1783.48 3327.83 1958.12"/><polygon class="cls-12" points="3133.74 1958.12 3115.46 1958.12 3161.05 1779.12 3178.22 1783.48 3133.74 1958.12"/><path class="cls-27" d="M2991.93,1362.08l6.66,132.83a3.25,3.25,0,0,1-3.53,3.4l-6.2-.54a3.25,3.25,0,0,1-3-3.14L2982,1361.09A10.25,10.25,0,0,1,2991.93,1362.08Z" transform="translate(-35.17 -41.77)"/><rect class="cls-16" x="603.21" y="1546.39" width="388.04" height="159.61"/><path class="cls-15" d="M340.28,1251.74c4.84.34,388.78,0,388.78,0V1616H480.18L346.94,1482.88Z" transform="translate(-35.17 -41.77)"/><path class="cls-11" d="M1018.64,1456.4s-266.28,15.9-266.28,0v69.26S882.59,1549,897.25,1549s82.88,36.14,91.93,39.15,28.47-77.67,29.47-78.36S1018.64,1456.4,1018.64,1456.4Z" transform="translate(-35.17 -41.77)"/><path class="cls-16" d="M284.81,1210H325.4a14.87,14.87,0,0,1,14.87,14.87V1470a14.87,14.87,0,0,1-14.87,14.87H284.81A14.86,14.86,0,0,1,269.95,1470v-245.2A14.87,14.87,0,0,1,284.81,1210Z"/><path class="cls-11" d="M628.86,1456.4H314.42a51.22,51.22,0,0,0-51.23,51.2v180.49a130.35,130.35,0,0,0,130.41,130.3l323.76,2s-22.47-6-26.17-12.45c-15.24-26.64-54.28-95.14-54.28-97.56C636.89,1707.36,628.86,1456.4,628.86,1456.4Z" transform="translate(-35.17 -41.77)"/><path class="cls-28" d="M977.46,1497.56v175.88a63.73,63.73,0,0,1-63.76,63.7H733.8a63.73,63.73,0,0,1-63.76-63.7V1497.56a41.17,41.17,0,0,0-41.19-41.16h0a41.17,41.17,0,0,0-41.19,41.16V1678a143.08,143.08,0,0,0,143.14,143H916.7a143.08,143.08,0,0,0,143.14-143V1497.56a41.17,41.17,0,0,0-41.19-41.16h0A41.17,41.17,0,0,0,977.46,1497.56Z" transform="translate(-35.17 -41.77)"/><polygon class="cls-10" points="947.42 1862.9 953.97 1915.45 989.23 1918.18 988.69 1869.45 947.42 1862.9"/><path class="cls-12" d="M1078,1998.41l-96.33.65a3.7,3.7,0,0,1-3.78-3.7l0-2.77a3.84,3.84,0,0,1,3.85-3.75l96.33-.65a3.7,3.7,0,0,1,3.78,3.7l0,2.77A3.84,3.84,0,0,1,1078,1998.41Z" transform="translate(-35.17 -41.77)"/><path class="cls-16" d="M983,1957.79l-3.69,28.44c-.46,3.51,1.52,6.68,4.16,6.66l91.61-.62a6.8,6.8,0,0,0,6-4.22c1.31-2.8,1.6-7-2.45-12.65-8.1-11.27-35-13.85-48.12-23.43l-42.67.29C985.43,1952.28,983.38,1954.62,983,1957.79Z" transform="translate(-35.17 -41.77)"/><path class="cls-6" d="M1023.86,1968.52h0a1.87,1.87,0,0,1-.5-2.31c1.83-3.91,7.54-13.42,19-11.55a1.57,1.57,0,0,1,1,1.85v0c-.12.86-.72,1.42-1.36,1.32-10.24-1.64-15.09,6.75-16.57,10A1.06,1.06,0,0,1,1023.86,1968.52Z" transform="translate(-35.17 -41.77)"/><path class="cls-6" d="M1033.34,1972.12h0a1.87,1.87,0,0,1-.5-2.31c1.83-3.91,7.54-13.42,19-11.55a1.57,1.57,0,0,1,1,1.85v0c-.12.86-.72,1.42-1.36,1.32-10.24-1.64-15.09,6.75-16.57,10A1.06,1.06,0,0,1,1033.34,1972.12Z" transform="translate(-35.17 -41.77)"/><path class="cls-6" d="M1042.16,1975.47h0a1.87,1.87,0,0,1-.5-2.31c1.83-3.91,7.54-13.42,19-11.55a1.57,1.57,0,0,1,1,1.85v0c-.12.86-.72,1.42-1.36,1.32-10.24-1.64-15.09,6.75-16.57,10A1.06,1.06,0,0,1,1042.16,1975.47Z" transform="translate(-35.17 -41.77)"/><path class="cls-14" d="M1007.88,1992.73c-7-22.91-19.43-25.36-26.23-24.79l-2.38,18.29c-.46,3.51,1.52,6.68,4.16,6.66Z" transform="translate(-35.17 -41.77)"/><polygon class="cls-10" points="880.26 1864.02 895.85 1914.73 931.74 1914.97 925.49 1877.96 880.26 1864.02"/><path class="cls-22" d="M597.48,1136.74s-10.72-54,20.61-73.06,63.6-15.65,85.17-2.85,33.13,55.19,22.31,78.81l-72.27-25.43Z" transform="translate(-35.17 -41.77)"/><path class="cls-12" d="M1018.46,1999.35l-96.33.65a3.7,3.7,0,0,1-3.78-3.7l0-2.77a3.84,3.84,0,0,1,3.85-3.75l96.33-.65a3.7,3.7,0,0,1,3.78,3.7l0,2.77A3.84,3.84,0,0,1,1018.46,1999.35Z" transform="translate(-35.17 -41.77)"/><path class="cls-11" d="M923.44,1958.73l-3.69,28.44c-.46,3.51,1.52,6.68,4.16,6.66l91.61-.62a6.8,6.8,0,0,0,6-4.22c1.31-2.8,1.6-7-2.45-12.65-8.1-11.27-35-13.85-48.12-23.43l-42.67.29C925.9,1953.22,923.85,1955.56,923.44,1958.73Z" transform="translate(-35.17 -41.77)"/><path class="cls-6" d="M964.33,1969.46h0a1.87,1.87,0,0,1-.5-2.31c1.83-3.91,7.54-13.42,19-11.55a1.57,1.57,0,0,1,1,1.85v0c-.12.86-.72,1.42-1.36,1.32-10.24-1.64-15.09,6.75-16.57,10A1.06,1.06,0,0,1,964.33,1969.46Z" transform="translate(-35.17 -41.77)"/><path class="cls-6" d="M973.81,1973.06h0a1.87,1.87,0,0,1-.5-2.31c1.83-3.9,7.54-13.42,19-11.55.66.11,1.1,1,1,1.85v0c-.12.86-.72,1.42-1.36,1.32-10.24-1.64-15.09,6.75-16.57,10A1.06,1.06,0,0,1,973.81,1973.06Z" transform="translate(-35.17 -41.77)"/><path class="cls-6" d="M982.63,1976.41h0a1.87,1.87,0,0,1-.5-2.31c1.83-3.91,7.54-13.42,19-11.55a1.57,1.57,0,0,1,1,1.85v0c-.12.86-.72,1.42-1.36,1.32-10.24-1.64-15.09,6.75-16.57,10A1.06,1.06,0,0,1,982.63,1976.41Z" transform="translate(-35.17 -41.77)"/><path class="cls-14" d="M948.35,1993.67c-7-22.91-19.43-25.36-26.23-24.79l-2.38,18.29c-.46,3.51,1.52,6.68,4.16,6.66Z" transform="translate(-35.17 -41.77)"/><polygon class="cls-10" points="595.42 1144.16 590.18 1204.51 644.97 1201.97 638.66 1148.52 595.42 1144.16"/><path class="cls-20" d="M676.84,1215.7l-3-25.42-43.24-4.36-1.81,20.9C637.38,1215.15,652.84,1223.78,676.84,1215.7Z" transform="translate(-35.17 -41.77)"/><path class="cls-20" d="M710.43,1145.26c-3.29,6.62-1.55,14.07,3.9,16.63s12.54-.73,15.83-7.35,1.55-14.07-3.9-16.63S713.73,1138.63,710.43,1145.26Z" transform="translate(-35.17 -41.77)"/><path class="cls-10" d="M705.83,1184.91a54.84,54.84,0,0,0,5-9,103.06,103.06,0,0,0,7.55-25.77c.29-1.73.68-3.43,1.1-5.13a55.38,55.38,0,0,0,1-21.91c-3.81-24.7-24.25-44.38-49.7-47.8-34.28-4.61-64.48,20.07-66.62,52.74a13,13,0,0,0-11.32-1.56c-7.13,2.58-10.22,11.7-6.9,20.37s11.79,13.59,18.92,11a11.3,11.3,0,0,0,2.72-1.45c1.1,28,23.14,50.89,51.28,52.17a53.48,53.48,0,0,0,36.51-12.2,26.46,26.46,0,0,0,2.09-1.68A49.72,49.72,0,0,0,705.83,1184.91Z" transform="translate(-35.17 -41.77)"/><path class="cls-21" d="M656.28,1136.17a5.11,5.11,0,1,1-4.87-5.19A5.06,5.06,0,0,1,656.28,1136.17Z" transform="translate(-35.17 -41.77)"/><path class="cls-21" d="M700,1141a5.11,5.11,0,1,1-4.87-5.2A5.06,5.06,0,0,1,700,1141Z" transform="translate(-35.17 -41.77)"/><path class="cls-22" d="M662.7,1125a53.62,53.62,0,0,0-7.47-1.74,26.69,26.69,0,0,0-7.1-.15,24.6,24.6,0,0,0-6.83,1.76c-1.18.36-2.21,1-3.4,1.52s-2.22,1.27-3.5,1.81a21,21,0,0,1,2.27-3.31,17.31,17.31,0,0,1,3.09-2.7,16.79,16.79,0,0,1,7.92-3,17.69,17.69,0,0,1,8.4,1.08A15.71,15.71,0,0,1,662.7,1125Z" transform="translate(-35.17 -41.77)"/><path class="cls-12" d="M340.37,1775.37H942.9a3.86,3.86,0,0,1,3.86,3.86v10.54a3.87,3.87,0,0,1-3.87,3.87H340.37a3.87,3.87,0,0,1-3.87-3.87v-10.54A3.87,3.87,0,0,1,340.37,1775.37Z"/><path class="cls-22" d="M685.21,1127.42a15.92,15.92,0,0,1,7.44-3.36,17.7,17.7,0,0,1,8.45.52,16.56,16.56,0,0,1,7.18,4.4,17,17,0,0,1,2.49,3.24,20.55,20.55,0,0,1,1.56,3.68c-1.15-.78-2.06-1.68-3.07-2.44s-1.95-1.56-3-2.13a24.28,24.28,0,0,0-6.35-3,26.57,26.57,0,0,0-7-1.19A54,54,0,0,0,685.21,1127.42Z" transform="translate(-35.17 -41.77)"/><path class="cls-22" d="M605,1128.81c-3.25-3-5.83-2.84-5.83-2.84l2.22-17.27,6-10.23s22.83-27.26,23.62-27.93,17.71-9.12,18.75-9.55,24.1,3.85,24.1,3.85,41.12-6.55,33.4,13.92S669.23,1109,667.74,1108c5-4.46,6.05-17.65,6.05-17.65C651.8,1111.79,611.27,1126.59,605,1128.81Z" transform="translate(-35.17 -41.77)"/><path class="cls-20" d="M674.35,1135.76a60.93,60.93,0,0,1,3.92,7.3,57.1,57.1,0,0,1,3,7.76A21.3,21.3,0,0,1,682,1155a7.69,7.69,0,0,1,0,1.15c0,.2-.08.42-.12.62a2.74,2.74,0,0,1-.31.67c-.08.11-.17.22-.26.33l-.22.19c-.15.12-.29.25-.44.36-.31.21-.61.43-.93.6a20.54,20.54,0,0,1-3.93,1.74,28.1,28.1,0,0,1-4.12,1.05,46.8,46.8,0,0,0,7.29-3.88c.28-.19.52-.4.77-.61l.35-.32.17-.16a.28.28,0,0,1,0-.09,3.07,3.07,0,0,0,.12-1.55,21.69,21.69,0,0,0-.83-3.84c-.73-2.59-1.65-5.15-2.54-7.73S675.19,1138.39,674.35,1135.76Z" transform="translate(-35.17 -41.77)"/><path class="cls-35" d="M685.91,1231.4s42.9,1.81,65.33,29.1,86,295,86,295l-71.54-7.64s-93-127.18-93-130.46S685.91,1231.4,685.91,1231.4Z" transform="translate(-35.17 -41.77)"/><path class="cls-10" d="M601.59,1231.83s82.13-.16,83.39-.08,7.57-.59,9.89,1.84,6.32,15.8-5.1,22.35,12.86,6.82-18.13,12.28-21.7,12.83-45.19,3.28-26.52-5.46-27.32-13.92S601.59,1231.83,601.59,1231.83Z" transform="translate(-35.17 -41.77)"/><path class="cls-22" d="M764.82,1353.37c-4.76-43-16.29-71.78-29.21-91.09a69.88,69.88,0,0,0-40.73-28.7c-.07.28-4.16,15.55-25.27,18-21.3,2.46-67.2-19.79-68-19.74h0c-23.71,1.47-44.21,5.93-54.89,18.38-21.3,24.84-91.77,198.27-90.13,222.77s20.49,24.5,20.49,24.5l193,.09v44.39l140,9.56C806.14,1548.93,778.31,1475.09,764.82,1353.37Z" transform="translate(-35.17 -41.77)"/><path class="cls-25" d="M780.32,1336.51c1.23,0,51-30.07,51-30.07l9.29,2-3.3,2.43,5.56-1.39,9,1.39s-29.89,35.25-30.39,36.25-13.56,6-14.57,6.52S780.32,1336.51,780.32,1336.51Z" transform="translate(-35.17 -41.77)"/><path class="cls-25" d="M700.75,1312.46l4.52-2.82,2.07,1.41v-2.64l2.83-2L782.5,1335s-23.17,14.68-23.92,14.12-42-8.09-42.76-9.22S700.75,1312.46,700.75,1312.46Z" transform="translate(-35.17 -41.77)"/><path class="cls-23" d="M701.89,1311.13l82,26.53L850,1308.89a5.69,5.69,0,0,1,7.93,5.84l-12.59,112.6a5.68,5.68,0,0,1-3,4.4l-63.48,33.44-57.5-21.27-1.48-2.17-7.45-1.13-24.11-8.92a5.1,5.1,0,0,1-3.31-5.22L694.47,1316A5.69,5.69,0,0,1,701.89,1311.13Z" transform="translate(-35.17 -41.77)"/><path class="cls-36" d="M701.89,1311.12a5.69,5.69,0,0,0-7.42,4.92L685,1426.31a5.29,5.29,0,0,0,3.44,5.42l24,8.87,7.45,1.13,1.48,2.17L760,1458.21c8.9-1.71,17.72-3.37,17.72-3.37l6.13-117.18Z" transform="translate(-35.17 -41.77)"/><polygon class="cls-36" points="760.93 1309.35 812.06 1287.01 810.42 1310.22 760.32 1333.43 760.93 1309.35"/><path class="cls-17" d="M823.72,1542.23s173.1-5.46,212.43,31.66,1.09,311.21-5.46,336.82c0,0-24,22.34-52.44,13.61s-17.48-131-17.48-131,3.28-116.81-1.09-133.19-64.46-28.38-64.46-28.38-92.87-64.41-87.4-64.41S823.72,1542.23,823.72,1542.23Z" transform="translate(-35.17 -41.77)"/><path class="cls-29" d="M670,1537s231.72-27.5,263.41,77.3,55.72,312.22,55.72,312.22-30.59,18.56-72.11,0c0,0-58.72-222.7-80.71-244.54S670,1673.44,670,1673.44Z" transform="translate(-35.17 -41.77)"/><path class="cls-6" d="M729.61,1470.35a139.73,139.73,0,0,0-3.55-14.79c-1.44-4.86-3-9.66-4.95-14.39l-.21-.53-.58,0-154.62-7.74a68.4,68.4,0,0,1,3.57-13.8c1.64-4.68,3.52-9.28,5.48-13.85,3.95-9.12,8.28-18.07,12.75-27,9-17.74,18.56-35.2,28.52-52.42l-.16-.09c-10.08,17.16-19.77,34.55-28.89,52.24-4.54,8.86-8.94,17.79-13,26.91-2,4.56-3.91,9.17-5.6,13.86a67,67,0,0,0-3.77,14.53l-.06.51.52,0,154.52,8.57c1.78,4.46,3.32,9.05,4.68,13.67a138.15,138.15,0,0,1,3.5,14.6,89.75,89.75,0,0,1,1.58,14.87,50.66,50.66,0,0,1-1.57,14.08L682,1498.29l-23.22-.65-23.23-.39v.22l23.21.92,23.21,1,46.42,1.93.64,0,.19-.61a50.83,50.83,0,0,0,2-15.21A91.46,91.46,0,0,0,729.61,1470.35Z" transform="translate(-35.17 -41.77)"/><path class="cls-37" d="M778.54,1336.05l-5.93,123.47,9-1.31L788,1336.05S783.25,1332.73,778.54,1336.05Z" transform="translate(-35.17 -41.77)"/><path class="cls-10" d="M785.14,1452.85c-11.47,5-34.75,1.38-34.75,1.38l-17.62-6.13c-2.46,1.68-5,3.38-7.45,5,.25.8.5,1.61.74,2.42a139.73,139.73,0,0,1,3.55,14.79,91.46,91.46,0,0,1,1.61,15.17c0,.84,0,1.67-.05,2.51l2.48-.92c3,.61,8.43.09,16-1.07,8.59-1.1,22.17-3,28.1-4.7a9.48,9.48,0,0,0,6.92-6.49c3.38-2.06,3.7-5.9,3.29-9a4.37,4.37,0,0,0,.24-.59c1.65-5.15.73-6.49-.11-7a4.51,4.51,0,0,0,1.21-2C791.15,1448.62,785.14,1452.85,785.14,1452.85Z" transform="translate(-35.17 -41.77)"/><path class="cls-20" d="M788,1465.48a17.9,17.9,0,0,1-5,3.86,27.38,27.38,0,0,1-5.93,2.34,31.72,31.72,0,0,1-6.3,1c-1.06.08-2.12,0-3.18,0s-2.11-.17-3.15-.3c2.11-.1,4.2-.17,6.27-.43a47.85,47.85,0,0,0,6.12-1.14,38.16,38.16,0,0,0,5.85-2.08A25.46,25.46,0,0,0,788,1465.48Z" transform="translate(-35.17 -41.77)"/><path class="cls-20" d="M784.64,1474.87a17.89,17.89,0,0,1-5.31,3.45,27.47,27.47,0,0,1-6.1,1.87,31.66,31.66,0,0,1-6.35.46c-1.06,0-2.12-.15-3.17-.22s-2.09-.34-3.12-.55c2.11.06,4.2.16,6.28.06a47.51,47.51,0,0,0,6.19-.65,37.76,37.76,0,0,0,6-1.61A25.37,25.37,0,0,0,784.64,1474.87Z" transform="translate(-35.17 -41.77)"/><path class="cls-20" d="M788,1458.29a17.87,17.87,0,0,1-5,3.86,27.38,27.38,0,0,1-5.93,2.34,31.72,31.72,0,0,1-6.3,1c-1.06.08-2.12,0-3.18,0s-2.11-.17-3.15-.3c2.11-.1,4.2-.17,6.27-.43a47.85,47.85,0,0,0,6.12-1.14,38,38,0,0,0,5.85-2.08A25.46,25.46,0,0,0,788,1458.29Z" transform="translate(-35.17 -41.77)"/><path class="cls-20" d="M653.63,1171.81c4.81.56,9.49,1.38,14.2,2a135.37,135.37,0,0,0,14.2,1.44c-4.71,1.27-9.7,1-14.46.38A54.66,54.66,0,0,1,653.63,1171.81Z" transform="translate(-35.17 -41.77)"/><polygon class="cls-12" points="348.86 1957.88 331.37 1957.88 375 1786.58 391.43 1790.76 348.86 1957.88"/><polygon class="cls-12" points="669.64 1957.88 652.14 1957.88 695.77 1786.58 712.2 1790.76 669.64 1957.88"/><polygon class="cls-12" points="561.96 1957.88 579.45 1957.88 535.82 1786.58 519.39 1790.76 561.96 1957.88"/><rect class="cls-3" x="2563.02" y="588.14" width="537.55" height="30.75"/><rect class="cls-3" x="2642.08" y="850.04" width="537.55" height="30.75"/><rect class="cls-13" x="1214.13" y="567.82" width="15.24" height="1244.24"/><rect class="cls-13" x="1377.38" y="567.82" width="15.24" height="1244.24"/><rect class="cls-13" x="1221.74" y="586.76" width="163.25" height="12.88"/><rect class="cls-13" x="1221.74" y="670.27" width="163.25" height="12.88"/><rect class="cls-13" x="1221.74" y="753.77" width="163.25" height="12.88"/><rect class="cls-13" x="1221.74" y="837.28" width="163.25" height="12.88"/><rect class="cls-13" x="1221.74" y="920.79" width="163.25" height="12.88"/><rect class="cls-13" x="1221.74" y="1004.3" width="163.25" height="12.88"/><rect class="cls-13" x="1221.74" y="1087.81" width="163.25" height="12.88"/><rect class="cls-13" x="1221.74" y="1171.32" width="163.25" height="12.88"/><rect class="cls-13" x="1221.74" y="1254.83" width="163.25" height="12.88"/><rect class="cls-13" x="1221.74" y="1338.34" width="163.25" height="12.88"/><rect class="cls-13" x="1221.74" y="1421.84" width="163.25" height="12.88"/><rect class="cls-13" x="1221.74" y="1505.35" width="163.25" height="12.88"/><rect class="cls-13" x="1221.74" y="1588.86" width="163.25" height="12.88"/><ellipse class="cls-3" cx="3283.35" cy="408.94" rx="147.57" ry="147.46"/><path class="cls-6" d="M3448.26,442.57a130,130,0,1,1-137.87-121.5A129.92,129.92,0,0,1,3448.26,442.57Z" transform="translate(-35.17 -41.77)"/><rect class="cls-9" x="3211.07" y="428.18" width="3.36" height="43.76" transform="translate(2727.52 3621.04) rotate(-90)"/><rect class="cls-9" x="3422.89" y="428.18" width="3.36" height="43.76" transform="translate(2939.34 3832.86) rotate(-90)"/><rect class="cls-9" x="3281.49" y="282.28" width="3.36" height="43.72"/><rect class="cls-9" x="3281.49" y="493.09" width="3.36" height="43.72"/><circle class="cls-9" cx="3283.35" cy="408.94" r="3.62"/><path class="cls-9" d="M3318.53,452.33a1.61,1.61,0,0,1-1.14-.47l-65.09-65a1.62,1.62,0,0,1,2.29-2.29l65.09,65a1.62,1.62,0,0,1-1.14,2.76Z" transform="translate(-35.17 -41.77)"/><path class="cls-9" d="M3339.45,516.43a1.18,1.18,0,0,1-.59-.68l-21-63.5a1.18,1.18,0,0,1,2.24-.74l21,63.5a1.18,1.18,0,0,1-1.65,1.42Z" transform="translate(-35.17 -41.77)"/></g></g></svg>