<svg xmlns="http://www.w3.org/2000/svg" xmlns:xlink="http://www.w3.org/1999/xlink" viewBox="0 0 146.16 106.97"><defs><style>.cls-1{fill:#fca89e;}.cls-2{fill:none;}.cls-3{fill:#da3f3a;}.cls-4{fill:#0a5dc1;}.cls-5{fill:#a2ccda;}.cls-6{fill:#b7dfea;}.cls-7{fill:#ff645f;}.cls-8{fill:#fff;}.cls-9{fill:#f7958d;}.cls-10{fill:#0e97cd;}.cls-11{fill:#2a2873;}.cls-12{clip-path:url(#clip-path);}.cls-13{clip-path:url(#clip-path-2);}.cls-14{fill:#4396ca;}.cls-15{fill:#2eb3db;}.cls-16{fill:#4a4a99;}.cls-17{clip-path:url(#clip-path-3);}.cls-18{fill:#fc6262;}.cls-19{fill:#823024;}.cls-20{clip-path:url(#clip-path-4);}.cls-21{fill:#ff8860;}.cls-22{clip-path:url(#clip-path-5);}.cls-23{clip-path:url(#clip-path-6);}.cls-24{clip-path:url(#clip-path-7);}</style><clipPath id="clip-path"><path class="cls-1" d="M127.56,50.49c.64,2.19,2.47,1.85,4.66,1.21a4.13,4.13,0,0,0-2.34-7.92C127.69,44.43,126.91,48.31,127.56,50.49Z"/></clipPath><clipPath id="clip-path-2"><path class="cls-2" d="M137.41,73H124.73l-1.58-16.83c-.14-1.38,1.18-2.56,2.87-2.56h10.1c1.68,0,3,1.18,2.87,2.56Z"/></clipPath><clipPath id="clip-path-3"><path class="cls-1" d="M47.94,53c-.61,2.05-2.32,1.73-4.37,1.13a3.87,3.87,0,0,1,2.19-7.42C47.81,47.33,48.54,51,47.94,53Z"/></clipPath><clipPath id="clip-path-4"><path class="cls-3" d="M106.59,69.25H96.36l-.68-12.46a1.93,1.93,0,0,1,2.13-1.89h8A1.93,1.93,0,0,1,108,56.79Z"/></clipPath><clipPath id="clip-path-5"><path class="cls-1" d="M97.6,50.55c-.29,2,1.29,2.38,3.27,2.67a3.62,3.62,0,0,0,1-7.17C99.93,45.76,97.88,48.57,97.6,50.55Z"/></clipPath><clipPath id="clip-path-6"><path class="cls-1" d="M19.18,48.74C18.52,51,16.66,50.62,14.43,50a4.21,4.21,0,1,1,2.38-8.07C19,42.55,19.84,46.51,19.18,48.74Z"/></clipPath><clipPath id="clip-path-7"><path class="cls-2" d="M9.13,71.69H22.06l1.62-17.17c.14-1.41-1.21-2.61-2.93-2.61H10.45c-1.72,0-3.08,1.2-2.93,2.61Z"/></clipPath></defs><g id="Layer_2" data-name="Layer 2"><g id="Layer_1-2" data-name="Layer 1"><rect class="cls-4" x="15.89" y="4.35" width="110.2" height="68.34"/><polygon class="cls-5" points="122.08 69.24 19.91 69.24 19.91 0 63.7 0 69.1 3.24 74.98 0 122.08 0 122.08 69.24"/><polygon class="cls-6" points="68.59 2.94 63.7 0 19.91 0 19.91 69.24 68.59 69.24 68.59 2.94"/><rect class="cls-5" x="26.48" y="11.36" width="34.33" height="0.66"/><rect class="cls-5" x="26.48" y="15.21" width="34.33" height="0.66"/><rect class="cls-5" x="26.48" y="23.85" width="34.33" height="0.66"/><rect class="cls-6" x="78.23" y="24.21" width="34.33" height="0.66"/><rect class="cls-6" x="78.23" y="11.36" width="34.33" height="0.66"/><rect class="cls-6" x="78.23" y="37.06" width="34.33" height="0.66"/><path class="cls-7" d="M78.71,26.58A9.61,9.61,0,1,1,69.1,17,9.61,9.61,0,0,1,78.71,26.58Z"/><polygon class="cls-8" points="66.76 22.7 73.61 26.66 66.76 30.61 66.76 22.7"/><path class="cls-9" d="M142.36,75.61h-1.92a.69.69,0,0,1-.69-.69v-1l2.56-.15Z"/><path class="cls-9" d="M116.76,77.84l-1.56.72c-.38,0-1-2.94-1-3.33v-1l2.56-.15Z"/><path class="cls-10" d="M137.41,73H124.73l.34,27.08h2.42s1.83-13.62,2.52-21.15h1.68l.51,21.15h2.42s2.85-21.23,2.78-25.33A17.23,17.23,0,0,0,137.41,73Z"/><path class="cls-11" d="M137.41,73H124.73l-1.58-16.83c-.14-1.38,1.18-2.56,2.87-2.56h10.1c1.68,0,3,1.18,2.87,2.56Z"/><path class="cls-9" d="M130.47,56.71a.53.53,0,0,0,1,0c.56-1.16,1.8-2.89,1.8-3.26V51c0-.56-.84-.52-1.34-.52h-1.61c-.5,0-1.34.46-1.34,1v2C129,53.86,130,55.55,130.47,56.71Z"/><path class="cls-1" d="M127.56,50.49c.64,2.19,2.47,1.85,4.66,1.21a4.13,4.13,0,0,0-2.34-7.92C127.69,44.43,126.91,48.31,127.56,50.49Z"/><g class="cls-12"><path class="cls-11" d="M132.1,45.82s0,1.46.2,1.46a1.42,1.42,0,0,1,1.51.4c.55.7-.05,1.41-.7,1.56s-.2,1.86,1.35,1.56,2.11-4,1.31-5.38-3.37-3-4.27-2.86-6.87,3.31-6.87,3.31Z"/></g><path class="cls-11" d="M123.23,55.4l-3.82,10.29-5.71,8.55,3,.66a50,50,0,0,0,5.65-5.64,20.67,20.67,0,0,0,2.79-4.86c.45-.75.65-8.74.65-8.74Z"/><path class="cls-11" d="M137.94,54.16l7.44,6.39A2.23,2.23,0,0,1,146,63l-3.73,10.77-2.56.15,2-10.25s-5.26-3.64-5.42-3.92c-.45-.75-.08-4.07-.08-4.07Z"/><path class="cls-11" d="M125,100h2.46v1.89h-5c-.32,0-.44-.74-.15-.9Z"/><path class="cls-11" d="M132.27,100h2.46v1.89h-5c-.33,0-.44-.74-.16-.9Z"/><g class="cls-13"><rect class="cls-10" x="123.97" y="58.45" width="0.22" height="9.19"/></g><path class="cls-5" d="M65.08,77.24h13l-.34,27.83H75.27s-1.88-14-2.59-21.74H71L69.2,93.5,62,101.27l-1.9-1.67,5.48-8.41s-.5-10.36-.46-12.16A15.39,15.39,0,0,1,65.08,77.24Z"/><path class="cls-7" d="M65.08,77.24h13l1.63-17.31c.15-1.41-1.22-2.62-3-2.62H66.4c-1.73,0-3.09,1.21-3,2.62Z"/><path class="cls-9" d="M71.65,59.14c-2.3,0-2.29-1.57-2.29-1.94V54.64c0-.57.86-.53,1.37-.53h1.66c.51,0,1.37.47,1.37,1v2A2,2,0,0,1,71.65,59.14Z"/><path class="cls-1" d="M75.2,54.11c-.67,2.25-2.54,1.9-4.79,1.24a4.24,4.24,0,0,1,2.4-8.13C75.06,47.88,75.86,51.87,75.2,54.11Z"/><path class="cls-7" d="M64.52,57.88s-6,6.42-8.14,8.45c-1.18,1.11,0,2,.67,2.79,1.85,2.32,7.87,6.47,7.87,6.47l-.34-3.51L61,67.83s5.11-3.94,5.28-4.22c.46-.78.08-4.18.08-4.18Z"/><path class="cls-7" d="M78.7,57.88s6,6.42,8.15,8.45c1.17,1.11,0,2-.67,2.79-1.86,2.32-8.81,6.62-8.81,6.62L77.49,72l4.78-4.19s-5.1-3.94-5.27-4.22c-.47-.78-.08-4.18-.08-4.18Z"/><path class="cls-11" d="M77.79,105H75.26V107h5.13c.34,0,.46-.76.16-.93Z"/><path class="cls-11" d="M62,101.27l-1.9-1.67-1.28,1.45,3.85,3.39c.25.23.84-.27.73-.59Z"/><path class="cls-14" d="M73.84,45.85c-1-.81-2,.51-3.07.9s-3-.65-4.1.47.22,3.13.28,3.91-.51,2.61.17,3.68a2.94,2.94,0,0,0,3.85.73c1.11-.53-.28-2.29-.5-3.24s-.06-2.12,1.28-1.14c.61.44,1.68.94,1.59-.56C73.23,48.7,76.05,47.64,73.84,45.85Z"/><path class="cls-15" d="M49.23,57.75c-.85.47-1.49,2.64-2,6.88s-.4,5-.16,5.44,4.23,6.12,4.23,6.12l2.18-.25-2.75-8.11S52.94,62.55,52,57.69C51.87,57,49.23,57.75,49.23,57.75Z"/><path class="cls-16" d="M44.69,46.64a5,5,0,0,0-5.31,3,9.08,9.08,0,0,0-.6,4c0,.59-.7,6.29-.1,6.29l4.17-4.07Z"/><path class="cls-11" d="M38.71,74.1H50.58l-.31,25.37H48s-1.72-15.35-2.37-22.41H44.06l-.47,22.41H41.32s-2.68-19.9-2.6-23.74A12.76,12.76,0,0,1,38.71,74.1Z"/><path class="cls-10" d="M38.71,74.1H50.58L49,68l3.12-9.71a2.44,2.44,0,0,0-2.7-2.39H39.92a2.44,2.44,0,0,0-2.7,2.39L40.59,68Z"/><path class="cls-9" d="M44.7,57.6c-2.1,0-2.09-1.43-2.09-1.78V53.5c0-.53.79-.49,1.26-.49h1.5c.47,0,1.26.43,1.26,1v1.85A1.8,1.8,0,0,1,44.7,57.6Z"/><path class="cls-1" d="M47.94,53c-.61,2.05-2.32,1.73-4.37,1.13a3.87,3.87,0,0,1,2.19-7.42C47.81,47.33,48.54,51,47.94,53Z"/><g class="cls-17"><path class="cls-16" d="M43.68,48.63s0,1.37-.19,1.37a1.32,1.32,0,0,0-1.41.38c-.52.66-.37,1.35.24,1.5s.21,5.63-1.25,5.35-1.58-7.65-.83-9,3.16-2.78,4-2.68,6.44,3.1,6.44,3.1Z"/></g><path class="cls-18" d="M50.3,99.44H48v1.77h4.68c.31,0,.42-.7.14-.85Z"/><path class="cls-18" d="M43.52,99.44H41.21v1.77h4.68c.31,0,.42-.7.15-.85Z"/><path class="cls-9" d="M40.16,76.18l2.11-.88s.63,1.84-.41,2.49C40.55,78.6,40.16,76.18,40.16,76.18Z"/><path class="cls-15" d="M37.8,56.76c-.85.47-1.49,2.91-2,7.15s-.4,5-.15,5.45,4.51,6.82,4.51,6.82l2.11-.88L38.5,68.05s1.09-5.77.92-7.7A6,6,0,0,0,37.8,56.76Z"/><path class="cls-9" d="M53.48,75.94l-2.18.23s.13,2,1.35,2.14C54.16,78.56,53.48,75.94,53.48,75.94Z"/><path class="cls-16" d="M44.1,47.23c-.65,0-1.88-1.93-.75-3a1.74,1.74,0,0,1,2.84,1C46.29,47.12,45.49,47.23,44.1,47.23Z"/><path class="cls-9" d="M106.92,76.75H96l.29,23.4h2.09s1.58-11.77,2.18-18.28H102l.44,18.28h2.09s2.47-18.35,2.4-21.89A12.83,12.83,0,0,0,106.92,76.75Z"/><path class="cls-7" d="M95.93,100.11H98.3v1.82H93.5c-.32,0-.43-.71-.15-.87Z"/><path class="cls-7" d="M102.2,100.11h2.36v1.82h-4.8c-.31,0-.42-.71-.15-.87Z"/><path class="cls-19" d="M96.36,69.11h10.23s2.25,1.06,2.52,4.5c.49,6.26-3.43,17.27-3.43,17.27H96s-3.2-13.14-2.49-17.27A6.24,6.24,0,0,1,96.36,69.11Z"/><path class="cls-3" d="M106.59,69.25H96.36l-.68-12.46a1.93,1.93,0,0,1,2.13-1.89h8A1.93,1.93,0,0,1,108,56.79Z"/><g class="cls-20"><path class="cls-9" d="M105.4,54.55a3.74,3.74,0,1,1-3.73-3.74A3.74,3.74,0,0,1,105.4,54.55Z"/></g><path class="cls-9" d="M88.15,53.84l.83-.58a.69.69,0,0,1,1,.16l1.3,1.84-1.93,1.42L87.94,55.1A.9.9,0,0,1,88.15,53.84Z"/><path class="cls-3" d="M97,55.08A4.2,4.2,0,0,0,94.9,58,35,35,0,0,1,93,62.2l-1.75-6.94-1.93,1.42s.89,7.32,2,9.83C92,68,95,67.19,97.31,62,98.16,60.08,97,55.08,97,55.08Z"/><path class="cls-3" d="M107.17,55.3a12.28,12.28,0,0,1,2.69,3.2c1.18,2,3.8,8.1,4.08,8.66s1.3,8.1,1.3,8.1l-2.13.44-3-8.77L106,60.4Z"/><path class="cls-9" d="M115.24,75.26l-2.13.44a11.06,11.06,0,0,0-.06,2.19,5.56,5.56,0,0,0,1.24,1,4,4,0,0,0,1.88-.67C116.39,78,115.32,75.28,115.24,75.26Z"/><path class="cls-19" d="M103.84,47.55a17.41,17.41,0,0,1,2.69-3.66,14.24,14.24,0,0,1,2.17,3.81c-.07.37-4.78.75-4.78.75Z"/><path class="cls-9" d="M100.93,55.75h1.41a.85.85,0,0,0,.8-.89V53.12a.85.85,0,0,0-.8-.9h-1.41a.85.85,0,0,0-.79.9v1.74A.84.84,0,0,0,100.93,55.75Z"/><path class="cls-21" d="M97.6,50.55c-.29,2,1.29,2.38,3.27,2.67a3.62,3.62,0,0,0,1-7.17C99.93,45.76,97.88,48.57,97.6,50.55Z"/><path class="cls-1" d="M97.6,50.55c-.29,2,1.29,2.38,3.27,2.67a3.62,3.62,0,0,0,1-7.17C99.93,45.76,97.88,48.57,97.6,50.55Z"/><g class="cls-22"><path class="cls-19" d="M98.1,47.75l4.83,2.63s.92-1,1.32,0-1,1.38-1.08,1.64c-.42,2.16,1.27,3.41,2.49,1s.78-6.56.46-6.7-3.35-2-3.59-2.14-3.22,2.12-3.54,2S98.1,47.75,98.1,47.75Z"/></g><path class="cls-9" d="M34.56,54.83c.35-.53.51-2,.07-2.23s-1.61-1.05-2-.11l-.5,1.91,2,1.11Z"/><path class="cls-7" d="M9.13,71.69H22.06l-.34,27.63H19.25s-1.87-13.9-2.57-21.58H15l-.51,21.58H12S9.06,77.65,9.14,73.47C9.08,73.16,9.13,71.69,9.13,71.69Z"/><path class="cls-5" d="M9.13,71.69H22.06l1.62-17.17c.14-1.41-1.21-2.61-2.93-2.61H10.45c-1.72,0-3.08,1.2-2.93,2.61Z"/><path class="cls-9" d="M15.66,53.73c-2.29,0-2.28-1.56-2.28-1.93V49.26c0-.57.86-.52,1.37-.52h1.64c.51,0,1.36.46,1.36,1v2A2,2,0,0,1,15.66,53.73Z"/><path class="cls-1" d="M19.18,48.74C18.52,51,16.66,50.62,14.43,50a4.21,4.21,0,1,1,2.38-8.07C19,42.55,19.84,46.51,19.18,48.74Z"/><g class="cls-23"><path class="cls-7" d="M14.54,44s0,1.49-.2,1.49a1.44,1.44,0,0,0-1.54.41c-.56.72,0,1.43.72,1.59s.2,1.89-1.38,1.59S10,45,10.8,43.56s3.44-3,4.36-2.92,7,3.38,7,3.38Z"/></g><path class="cls-5" d="M23.74,54,27,60.31l5.1-5.91c0-.23,2.36.66,2.07,1.18-.48.84-3.77,7.53-6.36,10.27-1.44,1.52-5.68-4-5.91-4.43-.37-.62-.87-4.42-.94-6.54a.94.94,0,0,1,.84-1l.77-1.37C23,52.51,23.59,53.56,23.74,54Z"/><path class="cls-5" d="M8.58,52.48S2.6,58.85.5,60.86c-1.17,1.11,0,1.94.66,2.77C3,65.94,9,70.06,9,70.06l-.33-3.49L5,62.36s5.07-3.92,5.23-4.2c.47-.77.08-4.15.08-4.15Z"/><path class="cls-11" d="M21.75,99.28H19.24v1.93h5.09c.34,0,.46-.76.16-.92Z"/><path class="cls-11" d="M14.37,99.28H11.86v1.93H17c.33,0,.45-.76.15-.92Z"/><g class="cls-24"><rect class="cls-10" x="22.62" y="56.86" width="0.22" height="9.38"/></g><path class="cls-9" d="M10,69.89a1.14,1.14,0,0,0,1-1.32l-.21-2c0-.39-.64-.27-1-.25l-1,.28L9,70.06S9.72,69.91,10,69.89Z"/></g></g></svg>