<svg xmlns="http://www.w3.org/2000/svg" viewBox="0 0 2966.98 1619.91"><defs><style>.cls-1{fill:#95a6db;}.cls-2{fill:#494c7f;}.cls-3{fill:#fff;}.cls-4{fill:#e3eaff;}.cls-5{fill:#c2d1ff;}.cls-6{fill:#cfdbff;}.cls-7{fill:#4361bf;}.cls-8{fill:#748ddb;}.cls-9{fill:#5a79db;}.cls-10{fill:#0e6a41;}.cls-11{fill:#201d40;}.cls-12{fill:#3f964f;}.cls-13{fill:#f37a50;}.cls-14{fill:#e62552;}.cls-15{fill:#2c2858;}.cls-16{fill:#de623c;}.cls-17{fill:#8a284c;}.cls-18{fill:#f5a3b7;}.cls-19{fill:#f57191;}.cls-20{fill:#c4204a;}.cls-21{fill:#37326e;}.cls-22{fill:#f3dad1;}.cls-23{fill:#e9edf2;}</style></defs><g id="Layer_2" data-name="Layer 2"><g id="Слой_1" data-name="Слой 1"><path class="cls-1" d="M45.3,1315.2c25.59-1.1,52.93,19.61,52.93,19.61S73,1362.43,47.38,1363.53.59,1354.7,0,1341.35,19.72,1316.3,45.3,1315.2Z"/><path class="cls-1" d="M100.61,1361.88c14.4-21.18,47.33-30.76,47.33-30.76s7.08,36.76-7.32,57.94-35,32.27-46.06,24.77S86.22,1383.06,100.61,1361.88Z"/><path class="cls-1" d="M222.12,1313.28c4.1-1.73,7-2.7,7.77-2.94a.62.62,0,0,1,.19-.06h0v0l0,.12c.08.4.31,1.59.59,3.4,1.52,9.7,4.51,37.1-6.84,54.53-14,21.44-34.41,32.92-45.59,25.62s-8.92-30.6,5.07-52c6.26-9.6,16.28-17,25.45-22.14A124,124,0,0,1,222.12,1313.28Z"/><path class="cls-1" d="M129.26,1277.86c17.17,19,18.68,53.26,18.68,53.26s-37.39-1.83-54.57-20.83-23.05-41.66-13.14-50.62S112.09,1258.86,129.26,1277.86Z"/><path class="cls-1" d="M206.3,1262.26c19.06,17.11,24.12,51,24.12,51s-37.38,2.08-56.43-15-27.28-39-18.36-49S187.24,1245.16,206.3,1262.26Z"/><path class="cls-1" d="M87.17,1332.74c.38,0,36.54,2.09,122.29-20.54q9.42-2.49,19.65-5.38l.12.41.86,3h0v0l0,.12c.08.4.31,1.59.59,3.4q-11.47,3.24-21.91,6C123.55,1342.11,88.25,1340,86.67,1339.9Z"/><path class="cls-1" d="M133.78,961.48c7,25.48-7.56,57.74-7.56,57.74s-33.59-19.07-40.57-44.55-1.86-49.09,11.43-52.73S126.8,936,133.78,961.48Z"/><path class="cls-1" d="M102.73,1039.37c24,4.21,45.22,29.07,45.22,29.07S118.8,1089,94.77,1084.76,53,1067,55.24,1054.43,78.7,1035.16,102.73,1039.37Z"/><path class="cls-1" d="M188.87,1134.43c3.36,3.13,5.51,5.46,6.06,6.06a1,1,0,0,1,.13.15h0l-.1.08c-.35.25-1.37,1-2.95,2-8.48,5.54-33,20-54.19,16.66-26.1-4.07-45.55-18.41-43.42-32s25-21.36,51.1-17.29c11.69,1.82,22.85,8.14,31.61,14.57A125.52,125.52,0,0,1,188.87,1134.43Z"/><path class="cls-1" d="M231.88,1167.77c4.53.71,7.62,1.43,8.41,1.62l.2,0h0v0l0,.12c-.15.4-.59,1.57-1.32,3.31-3.91,9.34-16.12,35-35.52,44.18-23.9,11.27-48,10.3-53.91-2.16s8.73-31.71,32.62-43c10.69-5,23.48-6.08,34.33-5.67A127.55,127.55,0,0,1,231.88,1167.77Z"/><path class="cls-1" d="M183.86,1040.44c-10.77,18.76-37.89,28.93-37.89,28.93s-8.31-30.5,2.46-49.26,27.42-29.42,37.21-23.8S194.62,1021.68,183.86,1040.44Z"/><path class="cls-1" d="M229.86,1094.88c-8,25.17-37.78,44.31-37.78,44.31s-17.79-34.28-9.77-59.45,25.16-42.2,38.29-38S237.88,1069.7,229.86,1094.88Z"/><path class="cls-1" d="M288.63,1124.22c-8,25.17-37.78,44.31-37.78,44.31s-17.79-34.28-9.77-59.46,25.16-42.19,38.29-38S296.64,1099,288.63,1124.22Z"/><path class="cls-1" d="M127.44,1012.45c1.17,2.88,2.07,5.62,3,8.39l2.81,8.22c1.9,5.46,3.87,10.86,6,16.21a275.85,275.85,0,0,0,14.45,31.27c10.84,20.21,24.49,39,41,54.75a186.65,186.65,0,0,0,57,37.29,217.52,217.52,0,0,0,32.42,11.09,154.87,154.87,0,0,0,16.67,3.4q4.19.6,8.36.94c1.39.08,2.78.21,4.15.22.68,0,1.37,0,2,0h1c.31,0,.68,0,.87,0a4.86,4.86,0,1,1,1,9.68,4.19,4.19,0,0,1-.5,0h-.18c-.53,0-.89,0-1.31-.05s-.79,0-1.18-.07c-.79,0-1.55-.13-2.31-.21-1.53-.15-3-.35-4.52-.55-3-.43-5.94-.94-8.86-1.55s-5.81-1.29-8.69-2l-4.3-1.15c-1.43-.37-2.85-.78-4.26-1.22a276.57,276.57,0,0,1-33-12.44,207.43,207.43,0,0,1-31-16.87,196.21,196.21,0,0,1-27.5-22.17,218.35,218.35,0,0,1-23.16-26.59c-3.54-4.69-6.79-9.59-10-14.52s-6.12-10-8.87-15.2c-1.43-2.56-2.72-5.19-4.08-7.79s-2.6-5.25-3.8-7.92q-3.74-8-7-16.11c-2.19-5.42-4.25-10.9-6.22-16.38l-2.92-8.21c-1-2.7-1.94-5.47-3-7.94l0,0a3.24,3.24,0,0,1,6-2.56Z"/><path class="cls-1" d="M2474.49,805a79.35,79.35,0,0,0-14.57,1.49l7.55,718.13s287.26,7,325.62,6.6c64.57-.68,116.28-62.86,115.48-138.88s-53.8-137.08-118.37-136.4a100.06,100.06,0,0,0-25.63,3.6c.48-5.47.71-11,.65-16.65-.66-63.07-35.75-116.28-83.95-135.13a61.65,61.65,0,0,0,6.43-28.36c-.32-30.1-21.31-54.28-46.87-54a39.81,39.81,0,0,0-11.37,1.79,137.42,137.42,0,0,0,.9-17.21c-.58-54.75-33.46-100.25-77.05-111.6A79.22,79.22,0,0,0,2474.49,805Z"/><path class="cls-2" d="M2941.29,1575.16H89.9a25.69,25.69,0,0,1-25.69-25.69h0a25.69,25.69,0,0,1,25.69-25.69H2941.29a25.69,25.69,0,0,1,25.69,25.69h0A25.69,25.69,0,0,1,2941.29,1575.16Z"/><path class="cls-3" d="M987.85,0h474.62a74.25,74.25,0,0,1,74.25,74.25V1337.71a0,0,0,0,1,0,0H913.6a0,0,0,0,1,0,0V74.25A74.25,74.25,0,0,1,987.85,0Z"/><path class="cls-4" d="M1005.51,66.3h436.94a34.18,34.18,0,0,1,34.18,34.18V231.37a0,0,0,0,1,0,0H971.32a0,0,0,0,1,0,0V100.48A34.18,34.18,0,0,1,1005.51,66.3Z"/><rect class="cls-4" x="971.32" y="314.3" width="505.3" height="165.07"/><rect class="cls-4" x="971.32" y="562.3" width="505.3" height="165.07"/><rect class="cls-4" x="971.32" y="810.31" width="505.3" height="165.07"/><rect class="cls-5" x="981.33" y="90.82" width="36.53" height="140.56"/><rect class="cls-5" x="1017.25" y="102.04" width="26.43" height="129.34"/><rect class="cls-5" x="1180.58" y="90.82" width="36.53" height="140.56" transform="translate(2397.69 322.19) rotate(180)"/><rect class="cls-5" x="1349.19" y="90.82" width="36.53" height="140.56" transform="translate(2734.9 322.19) rotate(180)"/><rect class="cls-5" x="1428.84" y="90.9" width="24.01" height="140.56" transform="translate(2742.24 800.25) rotate(-160.23)"/><rect class="cls-5" x="1285.82" y="123.34" width="26.83" height="108.04" transform="translate(2598.47 354.71) rotate(180)"/><rect class="cls-6" x="1269.05" y="96.9" width="16.92" height="134.47" transform="translate(2555.01 328.28) rotate(180)"/><rect class="cls-6" x="1154.76" y="102.04" width="26.43" height="129.34" transform="translate(2335.95 333.42) rotate(180)"/><rect class="cls-6" x="1217.07" y="116.5" width="26.43" height="114.88" transform="translate(2460.56 347.88) rotate(180)"/><rect class="cls-6" x="1242.81" y="106.66" width="26.43" height="124.72" transform="translate(2512.04 338.03) rotate(180)"/><rect class="cls-6" x="1312.61" y="75.86" width="36.74" height="155.52" transform="translate(2661.96 307.24) rotate(180)"/><rect class="cls-5" x="1060.49" y="101.63" width="21.37" height="129.34" transform="translate(-3.79 306.03) rotate(-16.23)"/><rect class="cls-6" x="992.55" y="326.53" width="43.18" height="152.1"/><rect class="cls-5" x="1035.46" y="342.38" width="33.14" height="136.25"/><rect class="cls-5" x="1067.94" y="333.1" width="33.14" height="145.53"/><rect class="cls-6" x="1100.8" y="369.83" width="33.14" height="108.81"/><rect class="cls-5" x="1134.04" y="344.31" width="33.14" height="134.32"/><rect class="cls-5" x="1199.76" y="323.05" width="33.14" height="155.58"/><rect class="cls-5" x="1233.01" y="331.56" width="33.14" height="147.08"/><rect class="cls-5" x="1285.66" y="331.14" width="24.79" height="147.08" transform="translate(-60.98 363.09) rotate(-15.56)"/><rect class="cls-6" x="1166.9" y="359" width="33.14" height="119.63"/><rect class="cls-6" x="1375.66" y="359" width="33.14" height="119.63"/><rect class="cls-6" x="1408.52" y="336.2" width="28.5" height="142.44"/><rect class="cls-5" x="1436.35" y="325.37" width="28.5" height="153.26"/><rect class="cls-5" x="998.19" y="599.26" width="27.87" height="127.71"/><rect class="cls-5" x="1064.41" y="574.32" width="27.86" height="152.66"/><rect class="cls-5" x="1091.28" y="584.87" width="20.8" height="142.1"/><rect class="cls-5" x="1111.91" y="605.99" width="20.8" height="120.99"/><rect class="cls-5" x="1131.58" y="593.99" width="20.8" height="132.98"/><rect class="cls-6" x="1025.54" y="587.75" width="19.84" height="139.22"/><rect class="cls-5" x="971.68" y="847.06" width="27.86" height="127.71"/><rect class="cls-6" x="999.03" y="835.55" width="19.84" height="139.22"/><rect class="cls-6" x="1044.74" y="609.34" width="19.84" height="117.63"/><rect class="cls-6" x="1152.21" y="609.34" width="19.84" height="117.63"/><rect class="cls-5" x="1312.58" y="578.85" width="20.8" height="148.13"/><rect class="cls-5" x="1358.42" y="570.62" width="35.82" height="156.35"/><rect class="cls-6" x="1333.21" y="595.95" width="25.76" height="131.02"/><rect class="cls-6" x="1189.89" y="610.1" width="14.01" height="117.63" transform="translate(-149.12 407.68) rotate(-18.22)"/><rect class="cls-5" x="1284.78" y="635.9" width="14.01" height="91.18" transform="translate(2305.79 1732.63) rotate(-161.78)"/><rect class="cls-5" x="1239.62" y="833.81" width="36.53" height="140.56" transform="translate(2515.77 1808.18) rotate(180)"/><rect class="cls-6" x="1213.8" y="845.04" width="26.43" height="129.34" transform="translate(2454.03 1819.41) rotate(180)"/><rect class="cls-6" x="1276.1" y="859.49" width="26.43" height="114.88" transform="translate(2578.63 1833.87) rotate(180)"/><rect class="cls-6" x="1301.85" y="849.65" width="26.43" height="124.72" transform="translate(2630.12 1824.02) rotate(180)"/><path class="cls-3" d="M1711.55,125.74h686.69a86.56,86.56,0,0,1,86.56,86.56v1231a0,0,0,0,1,0,0H1625a0,0,0,0,1,0,0V212.3a86.56,86.56,0,0,1,86.56-86.56Z"/><path class="cls-4" d="M1744.49,191H2362a39.85,39.85,0,0,1,39.85,39.85V353.61a0,0,0,0,1,0,0H1704.64a0,0,0,0,1,0,0V230.88A39.85,39.85,0,0,1,1744.49,191Z"/><rect class="cls-4" x="1704.64" y="435.29" width="697.24" height="162.58"/><rect class="cls-4" x="1704.64" y="679.55" width="697.24" height="162.58"/><rect class="cls-4" x="1704.64" y="924.84" width="688.37" height="160.51"/><rect class="cls-5" x="2148.33" y="706.17" width="35.29" height="135.81" transform="translate(4331.95 1548.16) rotate(180)"/><rect class="cls-5" x="2123.38" y="717.02" width="25.53" height="124.96" transform="translate(4272.29 1559) rotate(180)"/><rect class="cls-5" x="1955.81" y="706.17" width="35.29" height="135.81"/><rect class="cls-5" x="1792.91" y="706.17" width="35.29" height="135.81"/><rect class="cls-5" x="1728.04" y="706.25" width="23.2" height="135.81" transform="translate(-159.32 634.1) rotate(-19.77)"/><rect class="cls-5" x="1863.5" y="737.6" width="25.93" height="104.39"/><rect class="cls-6" x="1889.28" y="712.06" width="16.34" height="129.93"/><rect class="cls-6" x="1990.52" y="717.02" width="25.53" height="124.96"/><rect class="cls-6" x="1930.32" y="730.99" width="25.53" height="110.99"/><rect class="cls-6" x="1905.45" y="721.48" width="25.53" height="120.5"/><rect class="cls-6" x="1828.04" y="691.73" width="35.5" height="150.26"/><rect class="cls-5" x="2086.48" y="716.63" width="20.65" height="124.96" transform="matrix(-0.96, -0.28, 0.28, -0.96, 3892.3, 2113.2)"/><rect class="cls-6" x="2122.01" y="218.93" width="40.78" height="134.61" transform="translate(4284.79 572.47) rotate(180)"/><rect class="cls-6" x="2245.78" y="203.03" width="28.27" height="150.51" transform="translate(4519.83 556.56) rotate(180)"/><rect class="cls-6" x="2273.36" y="225.47" width="20.57" height="128.07" transform="translate(4567.29 579.01) rotate(180)"/><rect class="cls-5" x="2293.24" y="218.67" width="20.58" height="134.87" transform="translate(4607.05 572.21) rotate(180)"/><rect class="cls-5" x="2349.33" y="226.37" width="25.59" height="127.17" transform="translate(4724.26 579.91) rotate(180)"/><rect class="cls-6" x="2333.93" y="237.03" width="15.97" height="116.51" transform="translate(4683.82 590.57) rotate(180)"/><rect class="cls-6" x="2313.09" y="212.39" width="20.57" height="141.15" transform="translate(4646.75 565.93) rotate(180)"/><rect class="cls-5" x="2090.97" y="232.96" width="31.29" height="120.58" transform="translate(4213.24 586.5) rotate(180)"/><rect class="cls-5" x="2060.31" y="224.75" width="31.29" height="128.79" transform="translate(4151.92 578.29) rotate(180)"/><rect class="cls-6" x="2029.29" y="257.25" width="31.29" height="96.29" transform="translate(4089.86 610.79) rotate(180)"/><rect class="cls-5" x="1997.89" y="234.67" width="31.29" height="118.87" transform="translate(4027.08 588.21) rotate(180)"/><rect class="cls-5" x="1935.84" y="215.85" width="31.29" height="137.69" transform="translate(3902.97 569.39) rotate(180)"/><rect class="cls-5" x="1904.45" y="223.38" width="31.29" height="130.16" transform="translate(3840.19 576.92) rotate(180)"/><polygon class="cls-5" points="1844.41 347.84 1866.96 353.73 1904.22 228.34 1881.67 222.45 1844.41 347.84"/><polygon class="cls-5" points="2211.58 350.83 2198.82 353.99 2162.5 228.34 2175.27 225.18 2211.58 350.83"/><rect class="cls-6" x="1954.42" y="461.62" width="40.78" height="134.61" transform="translate(3949.62 1057.85) rotate(180)"/><rect class="cls-6" x="2083.76" y="447.45" width="30.39" height="148.78" transform="translate(4197.92 1043.68) rotate(180)"/><rect class="cls-5" x="2113.66" y="457.88" width="26.91" height="138.35" transform="translate(4254.24 1054.11) rotate(180)"/><rect class="cls-5" x="2217.28" y="457.88" width="26.92" height="138.35" transform="translate(4461.47 1054.11) rotate(180)"/><rect class="cls-5" x="2244.4" y="476.65" width="19.26" height="119.58" transform="translate(4508.06 1072.88) rotate(180)"/><rect class="cls-5" x="2318.8" y="466.92" width="17.18" height="129.31" transform="translate(4654.79 1063.15) rotate(180)"/><rect class="cls-6" x="2263.87" y="444.67" width="14.4" height="151.56" transform="translate(4542.14 1040.9) rotate(180)"/><rect class="cls-6" x="2277.78" y="454.4" width="19.96" height="141.83" transform="translate(4575.51 1050.63) rotate(180)"/><rect class="cls-6" x="2297.25" y="497.51" width="22.05" height="98.72" transform="translate(4616.54 1093.75) rotate(180)"/><rect class="cls-6" x="2140.09" y="441.19" width="19.96" height="155.04" transform="translate(4300.14 1037.42) rotate(180)"/><rect class="cls-6" x="2194.82" y="467.61" width="22.95" height="128.62" transform="translate(4412.59 1063.84) rotate(180)"/><rect class="cls-5" x="1923.38" y="475.65" width="31.29" height="120.58" transform="translate(3878.06 1071.88) rotate(180)"/><rect class="cls-5" x="1892.72" y="467.44" width="31.29" height="128.79" transform="translate(3816.74 1063.67) rotate(180)"/><polygon class="cls-5" points="2043.99 593.52 2031.22 596.68 1994.91 471.03 2007.68 467.87 2043.99 593.52"/><polygon class="cls-6" points="1892.65 591.71 1873.94 596.52 1837.06 471.03 1855.76 466.21 1892.65 591.71"/><rect class="cls-6" x="1966.87" y="247.67" width="31.29" height="105.87" transform="translate(3965.03 601.21) rotate(180)"/><rect class="cls-5" x="2194.82" y="964.59" width="31.29" height="120.58" transform="translate(4420.93 2049.77) rotate(180)"/><rect class="cls-5" x="2164.16" y="956.38" width="31.29" height="128.79" transform="translate(4359.61 2041.56) rotate(180)"/><rect class="cls-6" x="2133.13" y="988.88" width="31.29" height="96.29" transform="translate(4297.56 2074.06) rotate(180)"/><rect class="cls-5" x="2101.74" y="966.3" width="31.29" height="118.87" transform="translate(4234.77 2051.48) rotate(180)"/><rect class="cls-5" x="2039.69" y="947.49" width="31.29" height="137.69" transform="translate(4110.66 2032.66) rotate(180)"/><rect class="cls-6" x="2070.71" y="979.3" width="31.29" height="105.87" transform="translate(4172.72 2064.48) rotate(180)"/><rect class="cls-6" x="1769.76" y="247.67" width="31.29" height="105.87" transform="translate(3570.8 601.21) rotate(180)"/><rect class="cls-6" x="1743.11" y="227.48" width="26.91" height="126.06" transform="translate(3513.13 581.02) rotate(180)"/><rect class="cls-5" x="1716.83" y="217.9" width="26.91" height="135.63" transform="translate(3460.57 571.44) rotate(180)"/><rect class="cls-6" x="1705.26" y="481.52" width="20.17" height="114.74"/><rect class="cls-5" x="1724.73" y="461.35" width="22.25" height="134.91"/><rect class="cls-5" x="1745.6" y="469" width="26.42" height="127.26"/><rect class="cls-5" x="1794.97" y="442.58" width="26.43" height="153.68"/><rect class="cls-5" x="1820.7" y="455.79" width="18.78" height="140.47"/><rect class="cls-6" x="1772.02" y="485" width="22.95" height="111.26"/><polygon class="cls-7" points="175.57 1524.15 1136.06 1524.15 655.82 540.39 175.57 1524.15"/><path class="cls-8" d="M2336.64,1524.15H1100.77L642.65,445.53H1830.26A72.94,72.94,0,0,1,1897.39,490Z"/><path class="cls-9" d="M1039.49,1507,639.89,578.18,201.3,1507.84a28.44,28.44,0,0,1-25.73,16.31H152.13a17.38,17.38,0,0,1-15.81-24.6l471.28-1032A37.67,37.67,0,0,1,676.75,469l429.87,1031.1a17.38,17.38,0,0,1-16,24.07h-25A28.43,28.43,0,0,1,1039.49,1507Z"/><path class="cls-4" d="M639.89,578.19s-27.59,402.89-132.3,693.93c-53.49,148.67-115.66,252-115.66,252s-24.52,1.91-32.7,1.58c-17-.68-19.51-6.75-25.44-3.79-5.71,2.86-25.62,1.51-25.62,1.51s7.29-7.37,14.17-29.25c-12,21.38-23.16,30-34.6,30a156.49,156.49,0,0,1-22.68-2.21c-2-.49-11.95.63-18.66,1.47l-13.43-.28c-4.38-1-9.14-2.75-9.14-5.77-2.66,2-9.78,3.92-16.67,5.24l-31.59,1.55Z"/><path class="cls-4" d="M1052.28,1524.15c-25.13,0-51.57-5.63-51.57-5.63s-8.94,3.28-23.73,4.65-18.58-1.72-24.42-9.28c-1,5.16-8.6,10.26-20.29,8.94s-25.46-2.75-37.16.34-28.54-4.12-31.56-12.39c-4.06,8-10.92,11.13-20.43,13.37h-7.51a14.12,14.12,0,0,1-13.05-8.71c-11.3-27.21-47.08-116.35-85.1-241.23-90.08-295.89-97.57-699.67-97.57-699.67Z"/><path class="cls-9" d="M1323.81,1354.89H1168.63L850.57,578.82a10.27,10.27,0,0,1,9.5-14.16H989a16.37,16.37,0,0,1,15.15,10.17Z"/><path class="cls-1" d="M414.73,1291.66s131.84-285.09,180-504.82C555,1006.57,488.84,1160.48,414.73,1291.66Z"/><path class="cls-1" d="M512.88,905.56s-53,154.48-105.15,247.17C442.1,1109.48,497.14,979.74,512.88,905.56Z"/><path class="cls-1" d="M827.76,1154.63s65.33,204.12,130.58,303.83C912.28,1425.75,835.37,1263.52,827.76,1154.63Z"/><path class="cls-1" d="M240.05,1486.73S302,1382.5,343.69,1306.24C326.42,1379.69,257.33,1475.73,240.05,1486.73Z"/><polygon class="cls-10" points="675.2 1146.13 726.65 1198.7 670.02 1173.24 675.2 1146.13"/><path class="cls-11" d="M606.82,1395.14c21-3.4,54.46,5.83,73.17-4.24,36.37,18.36,82.26,43.16,82.26,43.16-22.73,24.52-95.11,66.63-95.11,66.63-38.39-18.17-76.38-37.47-118.51-42.88a214.84,214.84,0,0,1,21.86-60.34A188.89,188.89,0,0,0,606.82,1395.14Z"/><path class="cls-12" d="M633.81,1119.87c18.34,8.92,25.12,14.31,41.39,26.26-1.89,29.81,3.42,66-5.38,94.56-14.39,46.6-3.43,117.14,25.23,156.6-22,68.55-128.21,65.29-174.49,57.78-23.1-50.5-22.61-112.58-40-202.68l6.05-114.76c26.82-18.72,68-24.43,68-24.43S611.14,1108.85,633.81,1119.87Z"/><path class="cls-13" d="M797,1465.59a681,681,0,0,1-111.29,70.88c-16.73-13.69-18.64-18.47-23.12-39.61,28.94-26.11,58.69-49,88.62-74C769,1438.58,797,1465.59,797,1465.59Z"/><path class="cls-13" d="M807.33,1534.92c-3.63,15.71-8.2,30.73-13,46.13-36.45-5.13-73.3-13.59-107.4-27.44,2.6-22.16,4.6-44.37,7.2-66.53A314.88,314.88,0,0,0,807.33,1534.92Z"/><path class="cls-11" d="M534.92,1402.48l161.13,91.77-20.33,45.18c-21.74,10.93-96.25,21.56-132.48.89C501.54,1516.53,506.78,1414.33,534.92,1402.48Z"/><path class="cls-3" d="M612,1577.31l-28.12-54.89s17,.27,26.55,18.86C616.79,1553.78,615.55,1569.33,612,1577.31Z"/><path class="cls-14" d="M662.72,1519.51c4.53,8.8,1.62,24.81.31,25.6-5.33,3.24-15.11,10.74-19.33,13.75-3.71,2.65-24.37,21.69-24.37,21.69l-10.78,2.08-19.27-35.36-5.39-29s13.6-1.16,22-3.33c11.32-2.93,23.6-9.17,34.75-13.11C642.41,1501.17,656.59,1507.61,662.72,1519.51Z"/><path class="cls-3" d="M602.48,1545.11c7.21,14.07,9.27,37.35,16.85,35.44,0,0-7.11,14.39-20.89,14.88-5.9-5.1-14.92-19.07-23.35-33.39s-13.36-33.12-13.36-33.12,13.52-10,22.16-10.69C582.34,1521.22,596.42,1533.3,602.48,1545.11Z"/><path class="cls-15" d="M534.92,1402.49c34.11-21.59,93.47,53.27,228.89,113.39-8.9,16.54-18.26,41-26.1,58.89,0,0-114.64-22.67-181.09-69.5-37.67,7.11-42.35-20-42.61-21.81C509.64,1448.14,519.66,1412.15,534.92,1402.49Z"/><path class="cls-15" d="M860.77,1436c-18.52,25-121.69,74.79-121.69,74.79l-37.25-54.29c17.1-12.81,105.5-80.6,134-80.59C852.08,1379.6,884.8,1403.51,860.77,1436Z"/><path class="cls-3" d="M856.74,1543l-20.88,64.75s-13.07-13.49-6-35.42C834.62,1557.57,847.71,1546.41,856.74,1543Z"/><path class="cls-14" d="M772.06,1548.48c3.33-10.39,18.08-20.61,19.73-20.21,6.68,1.63,20.16,3.41,25.8,4.36,5,.83,35.93,2.08,35.93,2.08l10,6.8L851,1584.11,832.55,1611s-11.51-9.71-19.78-14.58c-11.12-6.55-25.57-11.26-37.34-16.89C773.6,1578.62,767.56,1562.54,772.06,1548.48Z"/><path class="cls-3" d="M839,1575.5c5.35-16.6,21.91-36.37,14.51-40.79,0,0,16.76-5.68,27.89,4.7.63,8.57-3.24,26.51-7.83,44.26s-15.41,36.24-15.41,36.24-18.34-2.75-25.62-8.94C836.08,1609.84,834.53,1589.44,839,1575.5Z"/><path class="cls-3" d="M578.68,1025.56a32.25,32.25,0,0,1,9,1.62,1.53,1.53,0,0,1,1,1.92,1.51,1.51,0,0,1-1.44,1,1.34,1.34,0,0,1-.48-.08,29.22,29.22,0,0,0-8.13-1.47,1.52,1.52,0,1,1,.11-3Z"/><path id="v-2" class="cls-13" d="M583,1063.62h0l25.22.09,5.71,59.55a32.52,32.52,0,0,1-29.44,15.55,42.56,42.56,0,0,1-31.38-15.37l1.35-62.5Z"/><path class="cls-13" d="M545.26,1024.56c-1.85,41.73,23.22,76.73,56,78.18s60.84-31.2,62.69-72.92-23.22-76.73-56-78.18S547.11,982.83,545.26,1024.56Z"/><path d="M646.63,1036a5.7,5.7,0,1,0,4.57-6.64A5.69,5.69,0,0,0,646.63,1036Z"/><path d="M600.51,1034.23a6.17,6.17,0,1,0,5-7.2A6.18,6.18,0,0,0,600.51,1034.23Z"/><path class="cls-16" d="M635,1040.67c4.52,8.73,10.28,19.38,10.28,19.38s-3.74,8.52-15.3,7.71c5-1.63,10.15-4.53,8.68-11.21S635,1040.67,635,1040.67Z"/><path class="cls-11" d="M591.79,1026.21a2.87,2.87,0,0,1-1.08-4.34c2.63-3.39,9.7-8.88,17.63-5.34a2.85,2.85,0,0,1-2.33,5.2c-5.87-2.62-10.75,3.56-10.79,3.62A2.85,2.85,0,0,1,591.79,1026.21Z"/><path class="cls-11" d="M646.16,1022.5a2.38,2.38,0,0,1-.39-4.1,11.66,11.66,0,0,1,8.81-1.75c3.18.79,5.77,3.12,7.72,6.93a2.37,2.37,0,0,1-4.23,2.16c-1.29-2.54-2.85-4-4.63-4.48a6.8,6.8,0,0,0-4.93,1A2.37,2.37,0,0,1,646.16,1022.5Z"/><path class="cls-11" d="M537.89,989.44c3.45-39.46,41.43-45.85,41.43-45.85s-7.49-4.24-3.46-15.63a31.67,31.67,0,0,0,18.35,7.82c45.18,3.52,71.83,15.8,64.32,32.42-2.68,5.91,25.53,13.69,5.39,52.5-.55-3.1-1.08-23.47-9-29s-5.33,9.56-24.55,3.85c-19.4-5.75-30.81-16.26-46.62-11-12.79,5-40,55.08-37.68,57.47C538.78,1034.55,536.38,1006.78,537.89,989.44Z"/><path class="cls-11" d="M660.29,1052.13s-7.73,21.47-13.62,26.53c.65-9.72-10-3.93-16.67-5.94-16.06-4.85-41.12-22.28-54.12-.77-21.18-2.52-24.91-48.67-24.91-48.67-21.11,43.82-.06,76.6,50.2,89.3C637.13,1121.67,660.35,1086.85,660.29,1052.13Z"/><path class="cls-16" d="M609.11,1080.14a42.93,42.93,0,0,1-7.69-7.9,1.9,1.9,0,1,1,3-2.31c5.44,7.08,11.38,11.08,17.65,11.9a19.8,19.8,0,0,0,13.52-3.38,1.9,1.9,0,0,1,2.34,3,23.39,23.39,0,0,1-16.28,4.15A25.58,25.58,0,0,1,609.11,1080.14Z"/><path class="cls-13" d="M559.81,1019.5c5.82,7.92,5.29,18.19-1.19,23s-16.44,2.21-22.26-5.7-5.28-18.19,1.19-23S554,1011.59,559.81,1019.5Z"/><path class="cls-16" d="M553.15,1039.57a2,2,0,0,1-.79-.16,2.09,2.09,0,0,1-1.14-2.73c1.82-4.4,2-7.76.46-10-2.47-3.66-8.76-3.65-8.83-3.66a2.09,2.09,0,0,1-.05-4.18c.35,0,8.59,0,12.33,5.48,2.36,3.49,2.35,8.18,0,14A2.09,2.09,0,0,1,553.15,1039.57Z"/><g id="c"><g id="c-2" data-name="c"><g id="c-3" data-name="c"><path id="c-4" data-name="c" class="cls-14" d="M736.54,1328.73a5,5,0,0,0,.92.18h1a4.79,4.79,0,0,0,4.08-3.34l47.24-152.33a4.18,4.18,0,0,0,.19-.92c0-.2,0-.4,0-.6s0-.24,0-.36,0-.21-.06-.32a4.79,4.79,0,0,0-3.29-3.8,4.5,4.5,0,0,0-.9-.19,4.35,4.35,0,0,0-1,0H665.78l-47.66,161.86h118.5Z"/><path id="c-5" data-name="c" class="cls-17" d="M666.86,1167.24a4.79,4.79,0,0,0-6,3.16l-47,151.94-.11.36a4.79,4.79,0,0,0,3.14,6h0a4.79,4.79,0,0,0,6-3.15L670,1173.24A4.78,4.78,0,0,0,666.86,1167.24Z"/></g><path class="cls-17" d="M758.12,1183.11c-1.57,4.89.47,9.91,4.54,11.22s8.65-1.6,10.22-6.49-.46-9.91-4.54-11.21S759.69,1178.22,758.12,1183.11Z"/><path class="cls-17" d="M743.05,1183.87c-1.06,3.32.32,6.72,3.08,7.61s5.88-1.08,6.94-4.4-.31-6.72-3.08-7.61S744.12,1180.55,743.05,1183.87Z"/></g><path id="c-6" data-name="c" class="cls-13" d="M756.72,1263.88a4.83,4.83,0,0,1,1.42-.62L758,1263c-3-4.47-2.76-9.8.44-11.93a5.25,5.25,0,0,1,1.71-.71c-.84-3.31-.09-6.46,2.2-8a5.45,5.45,0,0,1,3.07-.85c-1-3.25-.22-6.66,2.34-8.35,3.2-2.12,7.85-.76,10.37,3s2,8.62-1.22,10.74a6,6,0,0,1-2.65,1c2.13,4.15,1.7,8.7-1.2,10.62a5,5,0,0,1-1.71.71c.84,3.31.09,6.46-2.2,8a5.41,5.41,0,0,1-2.83.86c1.06,2.84.39,5.9-1.87,7.39-2.7,1.79-6.62.63-8.76-2.59S754,1265.67,756.72,1263.88Z"/><path class="cls-13" d="M610.5,1254.25l10.84-6.28s3-15.38,20.41-15.75L636.89,1248s8.57,6.65,28.89-4.74c19.87-4.46,11.38,10,18,11.06,9.71,1.54-7.09,20.63-26.92,23.55-25.67,3.79-28.72-1.47-28.72-1.47l-14.52,5.08Z"/><path id="c-7" data-name="c" class="cls-10" d="M499.62,1272.14c36.24-2.54,108.61-21.89,108.61-21.89,9.89,15.17,7.15,35.33,7.15,35.33-56.27,49.33-141,65.28-166.95,53.41-23.73-10.84-21.37-168.28,38.2-201.36Z"/></g><path class="cls-12" d="M2247.67,1335.93H1147.92c-15.84,0-28.69,11.07-28.69,24.72v150.18c0,13.65,12.85,24.72,28.69,24.72H2247.67Z"/><path class="cls-10" d="M2278.74,1374.85v121.3a8.24,8.24,0,0,0,8.39,8h320.55c9,0,16.33,7,16.33,15.63h0c0,8.63-7.31,15.63-16.33,15.63H2252.85a17.57,17.57,0,0,1-17.57-17.57V1353.12a17.57,17.57,0,0,1,17.57-17.57h354.83c9,0,16.33,7,16.33,15.63v.08c0,8.64-7.31,15.63-16.33,15.63H2287.05A8.16,8.16,0,0,0,2278.74,1374.85Z"/><path class="cls-3" d="M2287.44,1366.87h305.43a0,0,0,0,1,0,0v137.32a0,0,0,0,1,0,0H2287.44a15.9,15.9,0,0,1-15.9-15.9V1382.77A15.9,15.9,0,0,1,2287.44,1366.87Z"/><path class="cls-10" d="M1432.56,1335.94s-37.21,85.77-.62,199.61c-16.68,0-48.43-.11-48.43-.11s-39.53-88,0-199.5Z"/><path class="cls-10" d="M2059.21,1335.94s-37.21,85.77-.62,199.61c-16.68,0-48.43-.11-48.43-.11s-39.53-88,0-199.5Z"/><rect class="cls-4" x="2300.08" y="1390.33" width="237.48" height="12.35"/><rect class="cls-4" x="2430.89" y="1421.45" width="148.33" height="12.35"/><rect class="cls-4" x="2283.88" y="1480.53" width="191.8" height="12.35"/><rect class="cls-4" x="2326.35" y="1452.29" width="89.92" height="12.35"/><path class="cls-18" d="M1713.52,963.61h929.95A27.38,27.38,0,0,1,2670.86,991V1131.1a27.38,27.38,0,0,1-27.39,27.38H1713.52Z"/><path class="cls-19" d="M1683.19,1001.6V1120a8.05,8.05,0,0,1-8.2,7.84H1362.05c-8.8,0-15.94,6.83-15.94,15.26h0c0,8.42,7.14,15.26,15.94,15.26h346.42a17.15,17.15,0,0,0,17.15-17.15V980.39a17.15,17.15,0,0,0-17.15-17.15H1362.05c-8.8,0-15.94,6.83-15.94,15.26v.08c0,8.42,7.14,15.25,15.94,15.25h313A8,8,0,0,1,1683.19,1001.6Z"/><path class="cls-3" d="M1392.17,993.81h303.41a0,0,0,0,1,0,0v134.06a0,0,0,0,1,0,0H1392.17a15.65,15.65,0,0,1-15.65-15.65V1009.47A15.65,15.65,0,0,1,1392.17,993.81Z" transform="translate(3072.1 2121.68) rotate(180)"/><path class="cls-19" d="M1937.05,963.61s37.21,83.74.62,194.87c16.68,0,48.43-.1,48.43-.1s39.53-85.88,0-194.77Z"/><path class="cls-19" d="M1854.48,963.61s37.21,83.74.62,194.87c16.68,0,48.43-.1,48.43-.1s39.53-85.88,0-194.77Z"/><rect class="cls-4" x="1495.77" y="1013.04" width="167.41" height="12.32"/><rect class="cls-4" x="1461.86" y="1097.17" width="167.41" height="12.32"/><rect class="cls-4" x="1522.15" y="1071.59" width="167.41" height="12.32"/><path class="cls-20" d="M970.65,1334.59l867,4.43.94-183.43-867-4.43a25.75,25.75,0,0,0-25.88,25.62L945,1308.7A25.77,25.77,0,0,0,970.65,1334.59Z"/><path class="cls-3" d="M1822.56,1306.24l681.91-.69-.25-113.82-673.72-6.27c-3.34,0-14,9.45-14.06,12h0l.31,103.77c0,2.51,2.47,5,5.81,5Z"/><path class="cls-14" d="M2521,1340.78c10,.89,18.39-5.76,20.11-15.8.89-10-5.75-18.44-15.75-20.16l-4.18,0-676.06.72a204.55,204.55,0,0,1-22.53-1c-2.46-7.55-4.09-15.92-3.21-24.29l-.51-63.6c0-7.53.07-15.07,1.78-22.59a63.94,63.94,0,0,1,25-2.38l676.07-.73c10,.89,18.39-5.76,20.11-15.8.89-10-5.75-18.44-15.76-20.16l-4.17,0-727-.37a20.32,20.32,0,0,0-20.13,20l.09,144.78a20.35,20.35,0,0,0,19.93,20.19Z"/><rect class="cls-14" x="1030.59" y="1201.79" width="639.28" height="89.87"/><rect class="cls-4" x="1857.86" y="1260.14" width="365.1" height="11.1"/><rect class="cls-4" x="1921.1" y="1228.76" width="365.1" height="11.1"/><rect class="cls-4" x="1874.15" y="1205.38" width="156.72" height="11.1"/><rect class="cls-4" x="2103.65" y="1280.56" width="365.1" height="11.1"/><polygon class="cls-20" points="2010.59 1421.79 1944.4 1391.1 1884.55 1421.79 1884.55 1259.93 2010.59 1259.93 2010.59 1421.79"/><path d="M2314.68,603.21c9.31-32.1,6-62.91-16.91-83.08-23.2-20.46-59.3-12.87-59.3-12.87h0s-25.84-15.86-57.07,6.67-17.28,51.13-32,69.28c-8.68,10.75-40.4,6.62-40.66,47.57-.08,11.81,11.92,22.31,23.29,25.51,20,5.62,40.5,1.79,47.05,11.36,21.59,31.54,83.52,34.91,96.92,13.08,4.15-6.76,55.08,18.83,60.26-32.16C2338.94,622.73,2306.37,631.89,2314.68,603.21Z"/><path class="cls-15" d="M2305.3,798.55c-7.82-23.81-38.43-105.73-62.88-113.1-29.46-8.88-28.11,18.58-24.6,34.62s45.81,97.83,45.81,97.83Z"/><path class="cls-13" d="M2461.38,1083.05l17,23.82s15.21,19.39,33.35,10.29,10.1-38.24,10.1-38.24L2501,1051.49Z"/><path class="cls-15" d="M2521.16,1075.77a136.43,136.43,0,0,0,38.21-7c11.13-3.8,40.23-14.83,46.76,5.08,1,3,.52,7.13-4.94,13.46-8.06,9.35-20.38,19.63-49.25,28.58-34.64,10.73-37.43,16.86-50.66,20.13-13.72,3.39-18.26-15.74-23.56-31.28h0c2.42,3.28,9.63,11.36,35.39,6.65C2520.81,1110,2498.85,1085.86,2521.16,1075.77Z"/><path class="cls-13" d="M2334.06,1165.7v16.16s1.1,24.63,21.15,27.77,30.46-25.23,30.46-25.23l-.74-25.46Z"/><path class="cls-13" d="M2233.66,638.09s-3.58,32.77-4.72,44.86l-44.13,1.3c13.48-20.87,7.4-80.37,7.4-80.37Z"/><path class="cls-13" d="M2188.8,588.83c-7.44,38.7,11.16,74.81,41.55,80.65s61.06-20.78,68.5-59.48-11.16-74.8-41.55-80.64S2196.24,550.14,2188.8,588.83Z"/><path d="M2281.85,613.36a5.38,5.38,0,1,0,5.18-5.58A5.38,5.38,0,0,0,2281.85,613.36Z"/><path d="M2239,605.43a5.82,5.82,0,1,0,5.61-6A5.82,5.82,0,0,0,2239,605.43Z"/><path d="M2235.16,598.37a2,2,0,0,0,1.25-.49c5.26-4.53,13-2.4,13-2.38a2,2,0,0,0,1.13-3.89c-.4-.11-9.86-2.79-16.81,3.21a2,2,0,0,0-.21,2.85A2,2,0,0,0,2235.16,598.37Z"/><path d="M2295.76,611.09a2.09,2.09,0,0,0,.65-.13,2,2,0,0,0,1.17-2.62,14.23,14.23,0,0,0-11.44-9,2,2,0,0,0-.38,4,10.12,10.12,0,0,1,8,6.39A2,2,0,0,0,2295.76,611.09Z"/><path class="cls-16" d="M2273.87,622.59c1.44,4,2.51,7.91,4.34,10.69a2.13,2.13,0,0,1-.53,2.88c-3.74,2.74-11.17,3-15.59,2.92a.57.57,0,0,1-.16-1.11c5.24-1.59,8-3.29,9.23-4.31a2.57,2.57,0,0,0,.94-2.1c-.08-1.87-.21-5.66-.09-8.69A1,1,0,0,1,2273.87,622.59Z"/><path class="cls-13" d="M2201.89,595c4.32,8.2,2.38,17.71-4.33,21.24s-15.65-.25-20-8.45-2.37-17.71,4.34-21.24S2197.57,586.83,2201.89,595Z"/><path class="cls-16" d="M2190.1,611a2,2,0,0,0,.9-.25c4.09-2.25,6.06-6,5.27-9.94a9.77,9.77,0,0,0-8.23-7.75,2,2,0,1,0-.43,4,5.78,5.78,0,0,1,4.69,4.52c.44,2.21-.71,4.2-3.25,5.59a2,2,0,0,0-.8,2.75A2,2,0,0,0,2190.1,611Z"/><path class="cls-16" d="M2243.81,654.1c-13.34-6-15.16-16.85-15.25-17.42A2.24,2.24,0,0,1,2233,636c.1.61,2.64,14.38,24.31,17.14a2.24,2.24,0,0,1-.57,4.44A44.9,44.9,0,0,1,2243.81,654.1Z"/><path d="M2189.52,585.44c34.71,10.43,95.59-2.19,107.09-17.6,3-23.42-26.07-49-49.43-48.11S2187.36,553.3,2189.52,585.44Z"/><path class="cls-12" d="M2199.46,951.71l182.27-7.79s9-45.49,2.22-63.53-174.23-14.32-174.23-14.32Z"/><path class="cls-10" d="M2145.85,834.9c-4.94,11.41-24.19,45.38-22.33,72.92,1.92,28.43,22,53.17,55.91,52.63,0,0,64-36.36,50.13-110.85C2229.56,849.6,2196.07,836.52,2145.85,834.9Z"/><path class="cls-10" d="M2174.38,966.94l160.55,15.15s55.08-23.24,54.76-43-162.08-73.75-162.08-73.75C2132.73,837.69,2101.1,955.45,2174.38,966.94Z"/><path class="cls-10" d="M2389.69,939.11l-3.22,226.47s-40.08,16.89-54.12.13c-6.63-76.87-38.19-145-3-191.82C2376.59,911.14,2389.69,939.11,2389.69,939.11Z"/><path class="cls-12" d="M2383.57,879.86l133.6,183.48s-29.81,39.86-50.64,35.19c-35.92-45.45-108.62-98.76-109.08-156C2356.83,866,2383.57,879.86,2383.57,879.86Z"/><path class="cls-21" d="M2190.55,668.85l41.45,8c14.91,27.92,29,54.85,29,71.66.05,22.12-30.31,113.75-30.31,113.75-39.94,5.27-72.48.21-97.14-15.79,19.26-54.48-13.63-121.74,22-158.5C2164.53,678.84,2178.78,674.77,2190.55,668.85Z"/><path class="cls-15" d="M2386.92,1181.42a136.59,136.59,0,0,0,35.13,16.57c11.26,3.38,41.35,11.33,35.08,31.33-.93,3-3.72,6.1-11.84,8.07-12,2.92-28,4.12-56.69-5.39-34.42-11.42-40.26-8.06-52.93-13.09-13.12-5.22-5.69-23.42-1-39.15h0c.06,4.08,1.22,14.84,24.92,26C2366.71,1209.08,2362.91,1176.65,2386.92,1181.42Z"/><path class="cls-15" d="M2139,706.66c-18.78,31.84-47,133.47-41.94,145.84l46.18-8.35s43.25-97.06,50.82-116.29C2207.25,694.6,2169.55,654.6,2139,706.66Z"/><polygon class="cls-17" points="2440.58 813.34 2458.13 763.03 2365.67 792.65 2425.57 816.63 2440.58 813.34"/><polygon class="cls-22" points="2437.97 808.68 2453.93 764.31 2449.83 760.31 2368.85 787 2437.97 808.68"/><path class="cls-3" d="M2439.13,810.69c-2.63-5.8-13.42-14.69-29-15.33s-67.1-18.22-70.34-20.8c-5.49,3.55-105.34,67.31-105.34,67.31l2.79,7.25Z"/><polygon class="cls-17" points="2231.87 849.79 2233.58 854.13 2326.28 875.82 2440.58 813.34 2438.87 809 2344.46 782.96 2231.87 849.79"/><polygon class="cls-14" points="2233.58 854.13 2328 880.17 2440.58 813.34 2346.17 787.31 2233.58 854.13"/><path class="cls-16" d="M2393.55,764.62c-8.36,2.24-23,14-27.25,19.7l5.72,1.81,6.95-2.64c7.61-.36,12.14,5.51,27.26,1.55,7.57-2,12.22-2.33,12.38-3.31s-.4-6.86-9.48-4.59c-6.2,1.55-9.5,2.54-6.82-1.31l25.52-8.35C2424.54,761.53,2405.4,761.44,2393.55,764.62Z"/><path class="cls-13" d="M2282.37,839.8c-6.81,1.22-26.89,3.13-41.42,6.58l4.94-20.13c10.81.13,21.53-19.38,42.77-23.45,7.24-1.39,10.52-2.64,11.2-1.73s3.23,7.19-7.21,9.7c-13.1,3.15-3,12.74,22.74-.52,6.46-3.32,19.54-1.51,15.52,4C2326.48,820.24,2313.38,834.25,2282.37,839.8Z"/><path class="cls-15" d="M2110.19,806.68c-11.55,4.89-15.74,42.61-12.23,45.23,69.42,26.48,151.54-6.07,151.54-6.07l-1.11-21.12S2178.13,820.65,2110.19,806.68Z"/><g id="c-8" data-name="c"><path class="cls-20" d="M1338.76,809.47c50.43-13.08-21.67,114.13-21.67,114.13s-3,74.13-24,69.5c0,0-39,15.32-36.37-25.22C1259.14,931.24,1290.09,822.1,1338.76,809.47Z"/><path class="cls-20" d="M1482.31,811.1l1.09,87s7.56,87.06,26.1,97.88c13,7.61,48,10.21,45.35-30.33C1552.44,929,1540.43,824.28,1482.31,811.1Z"/><rect class="cls-13" x="1382.32" y="798.54" width="47.52" height="30.65" transform="translate(2812.15 1627.72) rotate(180)"/><path class="cls-13" d="M1151.31,1382.27l-12.4,37.64-35.28-27.5c1.28-1.08-2.66-26.13-2.37-40.46l46.54-1.63C1150.1,1365,1151.31,1382.27,1151.31,1382.27Z"/><path class="cls-11" d="M1092.54,1422.91s-12.17-17.62-26.1-17.84c0,0-26,3.28-34.44,14.89-2.64,3.65-1,10.94.43,15.58.91,2.89,3.62,5.92,11.51,7.82,11.65,2.81,27.18,4,55-5.32,33.4-11.13,39.07-7.87,51.36-12.78,12.73-5.08,7.46-20.71,2.85-36C1153.17,1389.29,1145,1408.9,1092.54,1422.91Z"/><path class="cls-15" d="M1100.25,1382.72a132.54,132.54,0,0,1-34.07,16.13c-10.93,3.31-40.12,11.06-34,30.46.91,2.9,3.62,5.92,11.51,7.83,11.65,2.81,27.18,3.95,55-5.32,33.39-11.14,39.06-7.88,51.35-12.78,12.74-5.08,5.5-22.74.89-38h0c-.06,4-1.17,14.4-24.16,25.26C1119.91,1409.55,1123.55,1378.06,1100.25,1382.72Z"/><path class="cls-2" d="M1106.29,1406.18a2.68,2.68,0,0,1-2.56-1.86c-3.06-9.49-13.08-9.49-13.5-9.49a2.69,2.69,0,0,1-.1-5.38c5-.1,15.28,2.55,18.72,13.22a2.69,2.69,0,0,1-1.74,3.38A2.6,2.6,0,0,1,1106.29,1406.18Z"/><path class="cls-2" d="M1094.17,1412a2.69,2.69,0,0,1-2.56-1.87c-3.06-9.48-13.08-9.49-13.5-9.49a2.69,2.69,0,1,1-.09-5.37c5-.11,15.27,2.54,18.71,13.21a2.7,2.7,0,0,1-1.74,3.39A2.92,2.92,0,0,1,1094.17,1412Z"/><path class="cls-11" d="M1295.39,1056.54c-69.27,19.29-171.26,74.84-180.18,86.13-18.43,23.3-10.14,88.15-17,232.84L1155,1374c12.83-111.49,39.74-154.81,39.44-196.8,0,0,54.36-1.2,132.8-40,38.66-19.12,78.77-41,63.45-76.08C1378.49,1033.15,1361.44,1038.14,1295.39,1056.54Z"/><path class="cls-13" d="M1274.64,1406.85l-33.37,18.93-16.11-26.62c1.26-1.11,4.43-27.55,4.52-41.88l44.66,3.54C1273,1375.38,1278,1392.61,1274.64,1406.85Z"/><path class="cls-15" d="M1369.36,1058.85c-80.88,10.84-139.8,91.29-146.25,104.15-13.11,26.16,6.38,79-1.59,211l59.72-3.92c9.1-68.46,23.82-122,23.09-172.11,0,0,42.44-31.18,127.55-51.47,46.56-11.09,60.48-18.51,69-49.11,2.9-10.42,1.68-36.62-3.05-41.93C1476.94,1032,1424.79,1051.42,1369.36,1058.85Z"/><path class="cls-11" d="M1226.64,1437.6s-15.63-14.65-29.28-11.92c0,0-24.75,8.7-30.52,21.83-1.81,4.12,1.3,10.91,3.71,15.13,1.5,2.64,4.79,5,12.9,5.22,12,.28,27.41-1.88,52.66-16.83,30.29-17.93,36.52-16,47.49-23.34,11.38-7.66,2.92-21.82-4.81-35.76C1278.79,1391.93,1274.94,1412.83,1226.64,1437.6Z"/><path class="cls-15" d="M1225.68,1396.69a132.65,132.65,0,0,1-29.9,23c-10,5.54-36.87,19.29-26.8,37,1.5,2.63,4.79,5,12.9,5.21,12,.28,27.41-1.87,52.65-16.83,30.29-17.93,36.53-15.94,47.5-23.34,11.37-7.65.57-23.38-7.16-37.32h0c.78,3.88,1.9,14.32-18.28,29.8C1250.57,1418.75,1247.47,1387.21,1225.68,1396.69Z"/><path class="cls-2" d="M1241.84,1418.27a2.7,2.7,0,0,1-2.8-1.49c-4.37-9-14.29-7.53-14.71-7.47a2.69,2.69,0,0,1-.85-5.31c4.9-.81,15.47.35,20.39,10.42a2.69,2.69,0,0,1-1.23,3.6A2.65,2.65,0,0,1,1241.84,1418.27Z"/><path class="cls-2" d="M1230.68,1425.77a2.7,2.7,0,0,1-2.81-1.48c-4.37-9-14.29-7.53-14.71-7.47a2.69,2.69,0,0,1-.85-5.31c4.91-.81,15.48.35,20.4,10.42a2.7,2.7,0,0,1-1.24,3.6A2.87,2.87,0,0,1,1230.68,1425.77Z"/><g id="v"><path id="h-5" class="cls-14" d="M1482.31,811.1s-31.55-7.22-47.74-4.75c-29.79,25.07-56.84,0-56.84,0-18.16-.61-39,3.12-39,3.12,0,49.81-32.78,250-32.78,250s23.33,28.2,100.08,28.2c46.54-.3,98.53-13.52,98.53-13.52S1482.31,860.78,1482.31,811.1Z"/></g><path class="cls-15" d="M1447.3,786.57c25.79,3.06,39.28-29.88,39.28-29.88,15.8-2.61,13.13-18.35,13.13-18.35,7.5-2.3,17.48-10.34,14.27-24.65-2.73-12.11-14.6-11.54-16.13-25.72-1.23-11.38,6.94-39.28-29.39-41.43,0,0-.9-21.15-22.72-26.21-26.75-6.19-33.36,9.89-45.09,12.78-13.09,3.22-41.26-8.82-44.93,21.5,0,0-18.69.44-27.29,14-8,12.68-3.3,28.88,2.08,34.84,0,0-15,5.11-18.43,19.31-2.31,9.53,1.4,21.84,10.89,27.81a27.57,27.57,0,0,0,11.77,4.15c6.12,1,6.51,17.39,11.9,20.56a123.58,123.58,0,0,0,27.64,11.51Z"/><path class="cls-13" d="M1348.15,723.59c-3,44.48,21.44,82.33,54.53,84.54s62.32-32,65.3-76.53-23.49-73.22-56.58-75.43S1351.12,679.11,1348.15,723.59Z"/><path d="M1429.25,751.62a6.38,6.38,0,1,0-5.94-6.79A6.38,6.38,0,0,0,1429.25,751.62Z"/><path d="M1381.94,750.23a6.38,6.38,0,1,0-5.94-6.79A6.38,6.38,0,0,0,1381.94,750.23Z"/><path class="cls-16" d="M1399.54,750.7c-6.66,7.7-8.6,10.67-11.24,13.34,3.85,6.66,15.94,7.54,18.94,6-8.75-2-11.09-7-11.09-7Z"/><path class="cls-13" d="M1457.29,738.91c-6.19,9.23-5.65,20.42,1.18,25s17.39.82,23.57-8.41,5.65-20.42-1.18-25S1463.47,729.69,1457.29,738.91Z"/><path class="cls-16" d="M1463.38,756.4a1.83,1.83,0,0,0,.8-.11,2,2,0,0,0,1.27-2.59c-1.23-3.55-1.07-6.32.45-8.25,2.36-3,7.49-3.61,11.16-3.24a2,2,0,1,0,.41-4.06c-4.93-.5-11.4.49-14.77,4.76-1.69,2.13-3.24,6-1.11,12.12A2,2,0,0,0,1463.38,756.4Z"/><path class="cls-15" d="M1489,699.92l-70.8-59.36L1338,679.47l8.67,57.44c2.54-26.41,18.58-17.56,27.1-25.13s12.58-19.84,32.33-8.63c0,0,16.42-10.83,24.42,5.05,6.19,12.28,15,10.12,23.66,10.93,10.24,1,7.6,10.88,13.88,10.68Z"/><path class="cls-15" d="M1373,734.4a2.79,2.79,0,0,0,1.85-.7c5.43-4.75,13.32-1.56,13.4-1.53a2.81,2.81,0,0,0,2.18-5.17c-.45-.19-11.17-4.62-19.28,2.48a2.81,2.81,0,0,0,1.85,4.92Z"/><path class="cls-15" d="M1441.52,737.84a2.81,2.81,0,0,0,2.09-4.68c-8.12-9.14-19.62-4.36-20.11-4.15a2.8,2.8,0,0,0,2.2,5.16c.37-.15,8.31-3.35,13.72,2.72A2.77,2.77,0,0,0,1441.52,737.84Z"/><path class="cls-16" d="M1401.44,787.63c10.11,0,18.36-5.6,18.48-5.69a2.34,2.34,0,1,0-2.66-3.84c-.69.47-16.48,11.08-29.5-.41a2.34,2.34,0,0,0-3.1,3.51A24.73,24.73,0,0,0,1401.44,787.63Z"/><path class="cls-16" d="M1469.68,973.41c-16.54-12.51-37.83-31.41-43.81-40.23,0,0,19.14-18.07,24.4-17.54,18.16,15.78,119,35.76,83.67,80C1523.87,1008.21,1493.86,991.71,1469.68,973.41Z"/><path class="cls-16" d="M1325.91,962.9c5.79-18.16,2.47-30.56,8.45-39.39,0,0-16.67-22.36-19.27-17.17-9.92,20.12-81.14,64.09-49,90.36C1278.57,1006.91,1316.63,991.77,1325.91,962.9Z"/><path class="cls-3" d="M1438.38,855.75l-9-2.13c-33.09,10.53-73.58,3-84.87,27.14v14.29Z"/><polygon class="cls-12" points="1444.5 962.11 1364.6 987.04 1354.01 883.49 1441.23 853.62 1444.5 962.11"/><path class="cls-23" d="M1262.43,855.75l9-2.13c33.09,10.53,61.75,3,73,27.14v14.29Z"/><polygon class="cls-12" points="1279.9 962.11 1345.57 987.04 1334.98 883.49 1259.58 853.62 1279.9 962.11"/><path class="cls-10" d="M1344.91,988.21q9.77,5.94,20.43,0l-10.6-106.51a24.33,24.33,0,0,1-20.42,0Z"/><path class="cls-13" d="M1431.34,940.5c-2.64-2.27-7.81-10.23.35-9.85-10.6-2.92-13.16-11.35.19-12.29-9.64-.8-15-11.32,1.18-13.16-9.16-1.32-12.75-10.23-3.68-11.93,9.61-1.79,24-5.07,29.43,0,4.31,4,1.68,8.82-2.63,11.11,8.46,3.39,7.48,14.11-3,15.47a8.4,8.4,0,0,1,3.38,11.29,9.23,9.23,0,0,1-12.21,4.15c3.29,2.54,4.53,7.7,1,9.41C1440.8,946.88,1434.06,943.08,1431.34,940.5Z"/><path class="cls-13" d="M1281.44,923c2.64-2.27,7.81-10.22-.35-9.84,10.6-2.93,13.16-11.36-.2-12.3,9.65-.8,15-11.32-1.18-13.16,9.16-1.31,12.75-10.23,3.69-11.92-9.61-1.8-24-5.08-29.44,0-4.3,4-1.67,8.82,2.63,11.11-8.45,3.4-7.47,14.11,3,15.47a8.4,8.4,0,0,0-3.38,11.29,9.23,9.23,0,0,0,12.21,4.16c-3.29,2.53-4.53,7.69-1,9.41C1272,929.34,1278.72,925.54,1281.44,923Z"/></g><path class="cls-4" d="M1681.6,944h-17.83a5.15,5.15,0,0,1,0-10.29h12.68V900.19h-12.68a5.15,5.15,0,0,1,0-10.3h17.83a5.16,5.16,0,0,1,5.15,5.15v43.78A5.15,5.15,0,0,1,1681.6,944Z"/><rect class="cls-4" x="1596.85" y="869.62" width="66.92" height="94.61" rx="5.03"/><path class="cls-3" d="M1623.78,860.61s-21.63-8.77-14.94-24.65,31-13.79,17.19-36.79c16.69,9.2,19.2,29.69,6.23,34.71S1618.64,851.61,1623.78,860.61Z"/><path class="cls-3" d="M1644.1,860.61s-15.38-6.23-10.62-17.53,22.06-9.8,12.22-26.16c11.87,6.54,13.65,21.12,4.43,24.69S1640.44,854.21,1644.1,860.61Z"/><path class="cls-1" d="M2924.59,1097.8c-17.42,18.77-51.42,23.27-51.42,23.27s-1.45-37.41,16-56.18,39.48-26.62,49.27-17.53S2942,1079,2924.59,1097.8Z"/><path class="cls-1" d="M2852.44,1103.49c4.66,25.18-12,55.14-12,55.14s-30.87-21.16-35.53-46.34,2.21-47.57,15.34-50S2847.78,1078.3,2852.44,1103.49Z"/><path class="cls-1" d="M2800.2,1223.48c-1.7,4.11-3.09,6.85-3.46,7.55a.76.76,0,0,1-.09.17v0l0,0-.11-.06c-.34-.24-1.34-.92-2.81-2-7.9-5.83-29.29-23.22-33.47-43.58-5.12-25.09,1.33-47.61,14.41-50.28s27.85,15.49,33,40.57c2.29,11.23.33,23.51-2.54,33.64A124.06,124.06,0,0,1,2800.2,1223.48Z"/><path class="cls-1" d="M2891.14,1183.38c-25.57-1.44-50.73-24.75-50.73-24.75s27.88-25,53.45-23.54,45.69,13.42,44.94,26.75S2916.71,1184.82,2891.14,1183.38Z"/><path class="cls-1" d="M2847.32,1248.63c-25.58,1.23-53-19.32-53-19.32s25.12-27.76,50.7-29,46.84,8.58,47.48,21.92S2872.9,1247.4,2847.32,1248.63Z"/><path class="cls-1" d="M2882.49,1114.76c-.29.24-27.45,24.2-72.53,100.58q-5,8.4-10.19,17.64l-.37-.21-2.75-1.55v0h0l-.11-.06c-.34-.24-1.34-.92-2.81-2q5.88-10.37,11.39-19.65c44.93-75.81,71.51-99.13,72.71-100.16Z"/><path class="cls-1" d="M254.1,713.52c7.1,24.6-6.58,56.05-6.58,56.05s-32.8-18-39.9-42.65-2.44-47.56,10.39-51.26S247,688.91,254.1,713.52Z"/><path class="cls-1" d="M225.5,779.67c22.14,8.31,37.9,35.77,37.9,35.77s-31.45,14.35-53.59,6-36.57-24.41-32.24-36S203.36,771.36,225.5,779.67Z"/><path class="cls-1" d="M297.63,884.9c2.65,3.58,4.28,6.19,4.69,6.86a.68.68,0,0,1,.1.17h0l-.1.06c-.38.17-1.48.67-3.17,1.37-9.07,3.77-35,13.12-54.6,6.2-24.14-8.55-40.11-25.69-35.65-38.27s27.64-15.88,51.77-7.34c10.81,3.82,20.32,11.83,27.51,19.52A122.74,122.74,0,0,1,297.63,884.9Z"/><path class="cls-1" d="M318.58,939c4.09,2.86,6.76,5,7.44,5.61a.58.58,0,0,1,.16.15h0l0,0-.09.1c-.34.32-1.33,1.24-2.87,2.59-8.3,7.24-32.51,26.46-55.82,26.1-28.71-.45-51.8-13-51.56-27.93s23.7-26.75,52.4-26.3c12.85.2,25.82,5.31,36.21,10.91A135.63,135.63,0,0,1,318.58,939Z"/><path class="cls-1" d="M341.16,997.66c4.51,2,7.51,3.67,8.28,4.1l.19.11h0l0,0-.07.12c-.27.37-1.07,1.46-2.32,3.06-6.75,8.59-26.8,31.78-49.59,35.74-28.07,4.85-52.88-3.08-55.41-17.71s18.16-30.45,46.22-35.31c12.56-2.17,26.14.42,37.31,4A135.16,135.16,0,0,1,341.16,997.66Z"/><path class="cls-1" d="M310.18,786.31c-14.42,21.17-47.37,30.7-47.37,30.7s-7-36.77,7.39-57.93,35.06-32.23,46.1-24.71S324.6,765.15,310.18,786.31Z"/><path class="cls-1" d="M343.48,857.5c-12.13,22.56-43.9,35.47-43.9,35.47s-10.83-35.83,1.31-58.39,31.5-35.7,43.27-29.37S355.62,835,343.48,857.5Z"/><path class="cls-1" d="M376,924.21c-17.92,18.3-52,21.88-52,21.88s-.45-37.43,17.47-55.73,40.19-25.55,49.73-16.2S393.91,905.92,376,924.21Z"/><path class="cls-1" d="M246.92,758.33c.06.38,6.58,36,48.77,114,3.1,5.72,63.62,128.14,67.1,134.31l-7.11,16.4c-3.9-6.93-64.11-143.22-67.52-149.56-41.78-77.59-48.05-112.39-48.32-114Z"/></g></g></svg>