<svg xmlns="http://www.w3.org/2000/svg" xmlns:xlink="http://www.w3.org/1999/xlink" viewBox="0 0 135.01 95.91"><defs><style>.cls-1{fill:#fff;}.cls-2{fill:#fca89e;}.cls-3{fill:none;}.cls-4{fill:#b7dfea;}.cls-5{fill:#fbb;}.cls-6{fill:#2b79e6;}.cls-7{fill:#0a5dc1;}.cls-8{clip-path:url(#clip-path);}.cls-9{fill:#b3e3ef;}.cls-10{fill:#823024;}.cls-11{clip-path:url(#clip-path-2);}.cls-12{fill:#da3f3a;}.cls-13{clip-path:url(#clip-path-3);}.cls-14{fill:#fc6262;}.cls-15{fill:#2a2873;}.cls-16{fill:#ff645f;}.cls-17{fill:#f7958d;}.cls-18{clip-path:url(#clip-path-4);}.cls-19{fill:#ff9283;}.cls-20{clip-path:url(#clip-path-5);}</style><clipPath id="clip-path"><path class="cls-1" d="M126.47,48.48H79.78V61.11h46.69C128.12,61.11,128.12,48.48,126.47,48.48Z"/></clipPath><clipPath id="clip-path-2"><path class="cls-1" d="M126.47,81.37H79.78V94h46.69C128.12,94,128.12,81.37,126.47,81.37Z"/></clipPath><clipPath id="clip-path-3"><path class="cls-1" d="M87.52,77.56H134.2V64.92H87.52C85.86,64.92,85.86,77.56,87.52,77.56Z"/></clipPath><clipPath id="clip-path-4"><path class="cls-2" d="M88.32,17.11c.61,2.27,2.51,2,4.78,1.36a4.26,4.26,0,0,0-2.23-8.22C88.6,10.86,87.7,14.84,88.32,17.11Z"/></clipPath><clipPath id="clip-path-5"><path class="cls-3" d="M98,40.57l-13.08-.3,2-6.64L83.64,22.86c-.12-1.42,1.28-2.61,3-2.57l10.42.23c1.74,0,3.08,1.29,2.9,2.71L96,33.84Z"/></clipPath></defs><g id="Layer_2" data-name="Layer 2"><g id="Layer_1-2" data-name="Layer 1"><rect class="cls-4" x="2.03" y="14.79" width="111.28" height="68.61" rx="2.97"/><path class="cls-5" d="M105.23,78.56H10.12A2.62,2.62,0,0,1,7.44,76V22.17a2.62,2.62,0,0,1,2.68-2.55h95.11a2.63,2.63,0,0,1,2.69,2.55V76A2.63,2.63,0,0,1,105.23,78.56Z"/><polygon class="cls-1" points="52.39 41.54 65.12 48.89 52.39 56.24 52.39 41.54"/><path class="cls-6" d="M7.25,70.58c-3-.44-5.32-5.94-3.24-9.24S7.25,57,5.51,53.72-1.27,47.81.3,43.64s6.6-4.34,5.39-8.17S-.42,30.1,2,24.12c2.16-5.4,7.08-2.64,7.08-8.88C9.05,9.92,1.49,4.61,8.12.71c5.49-3.23,9.11,5.33,9,10-.12,8.17-6.43,10.39-4,15.53,1.21,2.56,5.94,4.16,4.9,10.59S10.9,42.6,10.9,46.6s7.41,6.1,6.8,13.66C17.16,66.92,16.14,71.9,7.25,70.58Z"/><path class="cls-7" d="M127.12,46.57H79.73V63h47.39c2.15,0,3.89-2.53,3.89-5.64V52.21C131,49.1,129.27,46.57,127.12,46.57Z"/><path class="cls-1" d="M126.47,48.48H79.78V61.11h46.69C128.12,61.11,128.12,48.48,126.47,48.48Z"/><g class="cls-8"><rect class="cls-9" x="78.97" y="49.98" width="49.99" height="0.66"/><rect class="cls-9" x="78.97" y="52.19" width="49.99" height="0.66"/><rect class="cls-9" x="78.97" y="54.4" width="49.99" height="0.66"/><rect class="cls-9" x="78.97" y="56.62" width="49.99" height="0.66"/><rect class="cls-9" x="78.97" y="58.83" width="49.99" height="0.66"/></g><path class="cls-10" d="M127.12,79.47H79.73V95.91h47.39c2.15,0,3.89-2.52,3.89-5.64V85.1C131,82,129.27,79.47,127.12,79.47Z"/><path class="cls-1" d="M126.47,81.37H79.78V94h46.69C128.12,94,128.12,81.37,126.47,81.37Z"/><g class="cls-11"><rect class="cls-9" x="78.97" y="82.87" width="49.99" height="0.66"/><rect class="cls-9" x="78.97" y="85.09" width="49.99" height="0.66"/><rect class="cls-9" x="78.97" y="87.3" width="49.99" height="0.66"/><rect class="cls-9" x="78.97" y="89.51" width="49.99" height="0.66"/><rect class="cls-9" x="78.97" y="91.72" width="49.99" height="0.66"/></g><path class="cls-12" d="M86.87,79.47h47.39V63H86.87c-2.15,0-3.9,2.52-3.9,5.64v5.17C83,76.94,84.72,79.47,86.87,79.47Z"/><path class="cls-1" d="M87.52,77.56H134.2V64.92H87.52C85.86,64.92,85.86,77.56,87.52,77.56Z"/><g class="cls-13"><rect class="cls-9" x="85.03" y="75.39" width="49.99" height="0.66"/><rect class="cls-9" x="85.03" y="73.18" width="49.99" height="0.66"/><rect class="cls-9" x="85.03" y="70.97" width="49.99" height="0.66"/><rect class="cls-9" x="85.03" y="68.76" width="49.99" height="0.66"/><rect class="cls-9" x="85.03" y="66.54" width="49.99" height="0.66"/></g><path class="cls-14" d="M67.7,61l2.59.47-.36,2-5.27-1c-.35-.07-.32-.87,0-1Z"/><path class="cls-14" d="M78.17,63.09l2.62-.3.23,2-5.31.61c-.36,0-.57-.73-.28-.94Z"/><path class="cls-6" d="M94.05,45.31c1.71-3,.54-7.74.54-7.74L87.2,39.1,76,43.51,68.12,56.93,81.53,59l-.18-9S91.33,50,94.05,45.31Z"/><path class="cls-7" d="M97,45.76a6.66,6.66,0,0,0,.81-5.36l-7.65-.85L78.49,44.44l-5,13.21,11,1.8-.18-9S94.31,50.47,97,45.76Z"/><path class="cls-15" d="M92.05,10.18a5.46,5.46,0,0,1,5.77,3.43,5.21,5.21,0,0,1,.39,2.89,1.27,1.27,0,0,1-1.3,1.1l-2.19-.05Z"/><path class="cls-16" d="M98,40.57l-13.27-.44,2.14-6.5L83.64,22.86c-.12-1.42,1.28-2.61,3-2.57l10.42.23c1.74,0,3.08,1.29,2.9,2.71L96,33.84Z"/><path class="cls-12" d="M84.15,21.4c-1.58,2.12-1.44,11.48-1.62,12s-2.93,8.29-2.93,8.29l2.75.18s3.06-7.2,3.33-8.19,1.4-10,1.08-10.81C86.13,21.31,84.66,20.72,84.15,21.4Z"/><path class="cls-17" d="M91.76,22.25c2.32.05,2.34-1.53,2.35-1.91l.06-2.56c0-.58-.85-.55-1.37-.56l-1.66,0c-.51,0-1.39.44-1.4,1l0,2.05A2,2,0,0,0,91.76,22.25Z"/><path class="cls-2" d="M88.32,17.11c.61,2.27,2.51,2,4.78,1.36a4.26,4.26,0,0,0-2.23-8.22C88.6,10.86,87.7,14.84,88.32,17.11Z"/><g class="cls-18"><path class="cls-15" d="M93.12,12.4s0,1.5.17,1.51a1.44,1.44,0,0,1,1.54.45c.56.74-.08,1.45-.76,1.59s-.25,1.91,1.37,1.64,2.27-4.05,1.47-5.52S93.5,8.93,92.57,9s-7.16,3.25-7.16,3.25Z"/></g><path class="cls-19" d="M82.35,41.89l-2.75-.18s.19,2.16,1.52,2.41C82.78,44.43,82.35,41.89,82.35,41.89Z"/><path class="cls-19" d="M89.55,42l2.09,1.73s-1.59,1.48-2.75.77C87.45,43.62,89.55,42,89.55,42Z"/><g class="cls-20"><path class="cls-17" d="M96.85,18.37A5.25,5.25,0,1,1,91.72,13,5.26,5.26,0,0,1,96.85,18.37Z"/></g><path class="cls-15" d="M93.91,11c.93,0,2.77-2.73,1.18-4.31A2.5,2.5,0,0,0,91,8C90.74,10.75,91.9,10.93,93.91,11Z"/><path class="cls-1" d="M9.23,71.54H8.87c0-1.06.88-3,1.8-5.07a32.7,32.7,0,0,0,1.69-4.22c1.21-4.44-1.81-8.2-4-10.94a11.9,11.9,0,0,1-2.22-3.37c-.87-3.11,1-4.84,2.9-6.51,1.32-1.18,2.68-2.41,3.1-4.15.61-2.48-.5-3.79-1.78-5.32a9.75,9.75,0,0,1-2.79-5.9c-.14-1.77.89-3.17,2.09-4.8A14.77,14.77,0,0,0,13,14.13a12.29,12.29,0,0,0-2.07-8.51l.29-.22a12.66,12.66,0,0,1,2.13,8.78,15,15,0,0,1-3.38,7.29C8.78,23,7.78,24.4,7.91,26a9.48,9.48,0,0,0,2.71,5.7c1.28,1.53,2.5,3,1.85,5.64-.45,1.84-1.85,3.11-3.21,4.33C7.41,43.37,5.66,45,6.47,47.84a11.36,11.36,0,0,0,2.15,3.24c2.26,2.81,5.35,6.65,4.09,11.27A34.4,34.4,0,0,1,11,66.62C10.13,68.56,9.23,70.56,9.23,71.54Z"/><path class="cls-15" d="M14.18,95.79H5.41l-2.6-21s.36-5.46,7.68-5.15a6.22,6.22,0,0,1,6.28,5.15Z"/><path class="cls-1" d="M11.8,5.51A.77.77,0,1,1,11,4.75.76.76,0,0,1,11.8,5.51Z"/><polygon class="cls-19" points="78.17 63.09 80.79 62.79 81.04 58.86 77.84 58.41 78.17 63.09"/><polygon class="cls-19" points="67.81 61.11 70.29 61.51 71.81 57.47 68.84 57.02 67.81 61.11"/><path class="cls-12" d="M97.65,21.9c-.92.82-1.2,4.62-.9,6.36a54.76,54.76,0,0,1,.48,5.95c0,.66-7.68,7.8-7.68,7.8l2.1,1.74s8.89-6.54,9.31-8.1.12-12.31-.85-13.39A1.63,1.63,0,0,0,97.65,21.9Z"/></g></g></svg>