<svg xmlns="http://www.w3.org/2000/svg" xmlns:xlink="http://www.w3.org/1999/xlink" viewBox="0 0 145.79 106.47"><defs><style>.cls-1{fill:#fff;}.cls-2{fill:none;}.cls-3{fill:#fda8a3;}.cls-4{fill:#ffc7c7;}.cls-5{fill:#1194c8;}.cls-6{clip-path:url(#clip-path);}.cls-7{fill:#b3e3ef;}.cls-8{fill:#2a2873;}.cls-9{clip-path:url(#clip-path-2);}.cls-10{fill:#833125;}.cls-11{clip-path:url(#clip-path-3);}.cls-12{fill:#f7958d;}.cls-13{fill:#fca89e;}.cls-14{clip-path:url(#clip-path-4);}.cls-15{fill:#0c5a9a;}.cls-16{fill:#1c7bba;}.cls-17{fill:#da3f3a;}.cls-18{fill:#ff645f;}.cls-19{clip-path:url(#clip-path-5);}.cls-20{fill:#112256;}.cls-21{fill:#61b3db;}.cls-22{fill:#0e97cd;}</style><clipPath id="clip-path" transform="translate(0.67)"><path class="cls-1" d="M8.53,84.34H46.22V73.1H8.53C7.06,73.1,7.06,84.34,8.53,84.34Z"/></clipPath><clipPath id="clip-path-2" transform="translate(0.67)"><path class="cls-1" d="M8.17,55.08H45.85V43.83H8.17C6.7,43.83,6.7,55.08,8.17,55.08Z"/></clipPath><clipPath id="clip-path-3" transform="translate(0.67)"><path class="cls-1" d="M37.74,58.46H.05V69.71H37.74C39.21,69.71,39.21,58.46,37.74,58.46Z"/></clipPath><clipPath id="clip-path-4" transform="translate(0.67)"><rect class="cls-2" x="84" y="47.64" width="61.11" height="38.37" rx="1.72"/></clipPath><clipPath id="clip-path-5" transform="translate(0.67)"><path class="cls-3" d="M62.6,25.93c.76,2.56,2.9,2.17,5.45,1.41a4.82,4.82,0,1,0-2.73-9.25C62.76,18.84,61.85,23.38,62.6,25.93Z"/></clipPath></defs><g id="Layer_2" data-name="Layer 2"><g id="Layer_1-2" data-name="Layer 1"><path class="cls-4" d="M106.94,41.42A41.42,41.42,0,1,1,65.52,0,41.43,41.43,0,0,1,106.94,41.42Z" transform="translate(0.67)"/><path class="cls-5" d="M8,86H46.26V71.4H8c-1.91,0-3.46,2.25-3.46,5V81C4.49,83.79,6,86,8,86Z" transform="translate(0.67)"/><path class="cls-1" d="M8.53,84.34H46.22V73.1H8.53C7.06,73.1,7.06,84.34,8.53,84.34Z" transform="translate(0.67)"/><g class="cls-6"><rect class="cls-7" x="6.99" y="82.41" width="40.62" height="0.59"/><rect class="cls-7" x="6.99" y="80.44" width="40.62" height="0.59"/><rect class="cls-7" x="6.99" y="78.47" width="40.62" height="0.59"/><rect class="cls-7" x="6.99" y="76.51" width="40.62" height="0.59"/><rect class="cls-7" x="6.99" y="74.54" width="40.62" height="0.59"/></g><path class="cls-8" d="M7.59,56.77H45.9V42.14H7.59c-1.91,0-3.46,2.24-3.46,5v4.59C4.13,54.52,5.68,56.77,7.59,56.77Z" transform="translate(0.67)"/><path class="cls-1" d="M8.17,55.08H45.85V43.83H8.17C6.7,43.83,6.7,55.08,8.17,55.08Z" transform="translate(0.67)"/><g class="cls-9"><rect class="cls-7" x="6.63" y="53.15" width="40.62" height="0.59"/><rect class="cls-7" x="6.63" y="51.18" width="40.62" height="0.59"/><rect class="cls-7" x="6.63" y="49.21" width="40.62" height="0.59"/><rect class="cls-7" x="6.63" y="47.24" width="40.62" height="0.59"/><rect class="cls-7" x="6.63" y="45.27" width="40.62" height="0.59"/></g><path class="cls-10" d="M38.31,56.77H0V71.4H38.31c1.92,0,3.47-2.24,3.47-5v-4.6C41.78,59,40.23,56.77,38.31,56.77Z" transform="translate(0.67)"/><path class="cls-1" d="M37.74,58.46H.05V69.71H37.74C39.21,69.71,39.21,58.46,37.74,58.46Z" transform="translate(0.67)"/><g class="cls-11"><rect class="cls-7" y="59.8" width="40.62" height="0.59"/><rect class="cls-7" y="61.77" width="40.62" height="0.59"/><rect class="cls-7" y="63.74" width="40.62" height="0.59"/><rect class="cls-7" y="65.71" width="40.62" height="0.59"/><rect class="cls-7" y="67.68" width="40.62" height="0.59"/></g><rect class="cls-8" x="84.68" y="47.64" width="61.11" height="38.37" rx="1.72"/><path class="cls-12" d="M120.91,75.72s-.76,3.37-5.07,3.11-5-3.31-5-3.31l.16-6h9.62Z" transform="translate(0.67)"/><path class="cls-13" d="M112.3,72.22c4.51,3.61,7.52,1.06,10.61-3.82,3.67-5.79,3.7-11.51-.81-15.12a10.46,10.46,0,0,0-14.7,1.63C103.79,59.42,107.79,68.61,112.3,72.22Z" transform="translate(0.67)"/><polygon class="cls-1" points="114.27 61.22 121.9 65.63 114.27 70.04 114.27 61.22"/><g class="cls-14"><rect class="cls-15" x="97" y="75.57" width="38.52" height="30.9" rx="12.04"/><path class="cls-8" d="M137.11,66.38l-.35,0,1-9.39c.34-3.23.3-5.67-3.42-7.62l.17-.32c3.91,2.06,3.95,4.71,3.61,8Z" transform="translate(0.67)"/><polygon class="cls-15" points="128.56 48.98 102.59 48.43 106.37 59.11 126.22 59.08 128.56 48.98"/><polygon class="cls-16" points="116.16 56.34 97.59 49 116.84 40.38 135.51 49.2 116.16 56.34"/><polygon class="cls-8" points="135.88 68.89 137.78 65.53 139.04 69.18 135.88 68.89"/></g><path class="cls-17" d="M75.82,52.24H58.36l.47,31.66h3.33S64.68,68,65.64,59.17H68l.69,24.73H72s3.93-24.83,3.83-29.62A15.46,15.46,0,0,0,75.82,52.24Z" transform="translate(0.67)"/><path class="cls-18" d="M75.82,52.24H58.36L56.18,32.56c-.2-1.61,1.63-3,4-3H74c2.33,0,4.15,1.38,4,3Z" transform="translate(0.67)"/><path class="cls-12" d="M69.25,29.44v-2.9c0-.66-1-.6-1.57-.6H65.8c-.58,0-1.56.53-1.56,1.19v2.31a2.31,2.31,0,0,0,2.28,2.26C69.57,31.49,69.25,29.66,69.25,29.44Z" transform="translate(0.67)"/><path class="cls-3" d="M62.6,25.93c.76,2.56,2.9,2.17,5.45,1.41a4.82,4.82,0,1,0-2.73-9.25C62.76,18.84,61.85,23.38,62.6,25.93Z" transform="translate(0.67)"/><g class="cls-19"><path class="cls-8" d="M67.92,20.47s0,1.71.23,1.71a1.63,1.63,0,0,1,1.76.47c.65.82-.06,1.64-.82,1.82s-.23,2.17,1.59,1.82S73.14,21.65,72.2,20s-3.93-3.46-5-3.34-8,3.87-8,3.87Z" transform="translate(0.67)"/></g><path class="cls-18" d="M59.16,29.72a13.12,13.12,0,0,0-2.46.52c-2.43,1-9.62,5.81-9.62,5.81a2.58,2.58,0,0,0-.85,3.12c1.12,2,8.37,7.78,8.37,7.78l1.94-2.16-5-5.67s6.57-2.22,8.77-2.88c1-.29-.63-4.27-.63-4.27Z" transform="translate(0.67)"/><path class="cls-20" d="M58.8,83.86h3.36v2.21H56.33c-.39,0-.52-.87-.18-1Z" transform="translate(0.67)"/><path class="cls-20" d="M71.84,83.86H68.48v2.21h5.84c.38,0,.51-.87.18-1Z" transform="translate(0.67)"/><rect class="cls-1" x="60.11" y="40.47" width="15.33" height="13.72"/><polygon class="cls-12" points="55.28 46.95 60.39 49.51 60.95 48.59 57.21 44.8 55.28 46.95"/><path class="cls-18" d="M75.11,29.72a13.12,13.12,0,0,1,2.46.52c2.43,1,9.62,5.81,9.62,5.81A2.58,2.58,0,0,1,88,39.17c-1.12,2-8.38,7.78-8.38,7.78l-1.93-2.16,5-5.67S76.19,36.9,74,36.24c-1-.29.64-4.27.64-4.27Z" transform="translate(0.67)"/><polygon class="cls-12" points="80.34 46.95 75.23 49.51 74.66 48.59 78.41 44.8 80.34 46.95"/><rect class="cls-8" x="62.74" y="44.48" width="10.14" height="1.64"/><rect class="cls-8" x="62.74" y="48.21" width="10.14" height="1.64"/><rect class="cls-20" x="32.45" y="20.04" width="2.1" height="17.46"/><path class="cls-21" d="M30.82,19c0-1.12,2-7.41,2-7.41s2,6.29,2,7.41a2,2,0,0,1-4,0Z" transform="translate(0.67)"/><path class="cls-21" d="M28.86,26.08c-.79-.79-3.8-6.66-3.8-6.66s5.88,3,6.67,3.8a2,2,0,1,1-2.87,2.86Z" transform="translate(0.67)"/><path class="cls-21" d="M34,23.22c.79-.79,6.67-3.8,6.67-3.8s-3,5.87-3.81,6.66A2,2,0,0,1,34,23.22Z" transform="translate(0.67)"/><polygon class="cls-20" points="33.09 26.92 29.29 23.12 29.44 22.97 33.24 26.77 33.09 26.92"/><rect class="cls-20" x="32.27" y="24.84" width="5.37" height="0.21" transform="translate(-6.73 32.01) rotate(-44.98)"/><rect class="cls-20" x="33.42" y="17.28" width="0.21" height="5.37"/><path class="cls-20" d="M33.28,17.28a.43.43,0,1,1-.42-.42A.42.42,0,0,1,33.28,17.28Z" transform="translate(0.67)"/><circle class="cls-20" cx="37.47" cy="23" r="0.42"/><path class="cls-20" d="M29.13,23a.43.43,0,1,1-.42-.42A.42.42,0,0,1,29.13,23Z" transform="translate(0.67)"/><path class="cls-22" d="M36,28.82H29.75a3.21,3.21,0,0,0-1.55,2.76c-.3,3.85,2.11,10.62,2.11,10.62h5.93s2-8.08,1.53-10.62A3.87,3.87,0,0,0,36,28.82Z" transform="translate(0.67)"/></g></g></svg>