<svg xmlns="http://www.w3.org/2000/svg" xmlns:xlink="http://www.w3.org/1999/xlink" viewBox="0 0 109.49 115.25"><defs><style>.cls-1{fill:#2b79e6;}.cls-2{fill:#a2ccda;}.cls-3{fill:#fca89e;}.cls-4{fill:#f7958d;}.cls-5{clip-path:url(#clip-path);}.cls-6{fill:#0a5dc1;}.cls-7{fill:#2a2873;}.cls-8{fill:#823024;}.cls-9{fill:#fff;}</style><clipPath id="clip-path"><path class="cls-1" d="M102.09,115.25v-5A26,26,0,0,0,76.15,84.31H33.89A25.94,25.94,0,0,0,8,110.25v5Z"/></clipPath></defs><g id="Layer_2" data-name="Layer 2"><g id="Layer_1-2" data-name="Layer 1"><circle class="cls-2" cx="54.74" cy="54.74" r="54.74" transform="translate(-4.93 5.42) rotate(-5.42)"/><path class="cls-3" d="M78.52,63.87a6,6,0,1,1-6-6A6,6,0,0,1,78.52,63.87Z"/><circle class="cls-4" cx="72.51" cy="63.87" r="3.84"/><path class="cls-3" d="M43,63.87a6,6,0,1,1-6-6A6,6,0,0,1,43,63.87Z"/><path class="cls-4" d="M40.34,63.87A3.36,3.36,0,1,1,37,60.51,3.36,3.36,0,0,1,40.34,63.87Z"/><path class="cls-1" d="M102.09,115.25v-5A26,26,0,0,0,76.15,84.31H33.89A25.94,25.94,0,0,0,8,110.25v5Z"/><g class="cls-5"><path class="cls-6" d="M18.7,88c2,4.49,21.57,11.49,27.74,13.17s9.24-10.93,9.24-10.93S42.23,78.48,30.47,81,18.7,88,18.7,88Z"/><path class="cls-6" d="M91.39,88c-2,4.49-21.56,11.49-27.73,13.17s-9.24-10.93-9.24-10.93S67.86,78.48,79.63,81,91.39,88,91.39,88Z"/></g><path class="cls-4" d="M67.22,86.55s-3,5.46-11.17,5.2c-10.38-.34-12.61-6.48-12.61-6.48V72.35H66.5Z"/><path class="cls-3" d="M47.38,78c9.39,7.52,15.67,2.21,22.11-7.94,7.65-12.07,7.7-24-1.69-31.5A21.77,21.77,0,0,0,37.19,42C29.67,51.34,38,70.49,47.38,78Z"/><path class="cls-7" d="M13,59.44l-1.89-18c-.65-6.19-.56-11.24,6.84-15.14l.17.32c-7.22,3.8-7.31,8.53-6.65,14.78l1.89,18Z"/><polygon class="cls-1" points="30.55 26.08 80.37 25.03 73.13 45.51 35.05 45.45 30.55 26.08"/><polygon class="cls-6" points="54.35 35.53 89.97 26.13 53.03 13.54 17.21 26.5 54.35 35.53"/><polygon class="cls-7" points="16.51 64.28 12.87 57.83 10.45 64.83 16.51 64.28"/><path class="cls-8" d="M35.05,45.45s-7,4.49-.47,10,27.73-9.84,27.73-9.84Z"/><polygon class="cls-9" points="51.82 57.19 64.74 64.64 51.82 72.1 51.82 57.19"/><path class="cls-8" d="M73.13,45.51s3,3.53,3.22,6.05-4,4.87-6.66,1.08a52.69,52.69,0,0,1-4.32-7.2Z"/></g></g></svg>